<mxfile host="app.diagrams.net" modified="2023-10-20T02:54:31.115Z" agent="Mozilla/5.0 (Windows NT 10.0; Win64; x64) AppleWebKit/537.36 (KHTML, like Gecko) Chrome/118.0.0.0 Safari/537.36" etag="dMvA5RMWHchmKiXdxw0N" version="22.0.5" type="github">
  <diagram id="6a731a19-8d31-9384-78a2-239565b7b9f0" name="Page-1">
    <mxGraphModel dx="5949" dy="2500" grid="1" gridSize="10" guides="1" tooltips="1" connect="1" arrows="1" fold="1" page="1" pageScale="1" pageWidth="1169" pageHeight="827" background="#003469" math="0" shadow="0">
      <root>
        <mxCell id="0" />
        <mxCell id="1" parent="0" />
        <mxCell id="2019" value="" style="rounded=1;whiteSpace=wrap;html=1;dashed=1;strokeColor=none;strokeWidth=2;fillColor=#E6E6E6;fontFamily=Verdana;fontSize=12;fontColor=#00BEF2" parent="1" vertex="1">
          <mxGeometry x="40" y="120" width="165" height="670" as="geometry" />
        </mxCell>
        <mxCell id="2020" value="" style="rounded=1;whiteSpace=wrap;html=1;dashed=1;strokeColor=none;strokeWidth=2;fillColor=#E6E6E6;fontFamily=Verdana;fontSize=12;fontColor=#00BEF2" parent="1" vertex="1">
          <mxGeometry x="220" y="120" width="165" height="670" as="geometry" />
        </mxCell>
        <mxCell id="2021" value="" style="rounded=1;whiteSpace=wrap;html=1;dashed=1;strokeColor=none;strokeWidth=2;fillColor=#E6E6E6;fontFamily=Verdana;fontSize=12;fontColor=#00BEF2" parent="1" vertex="1">
          <mxGeometry x="400" y="120" width="165" height="670" as="geometry" />
        </mxCell>
        <mxCell id="2022" value="" style="rounded=1;whiteSpace=wrap;html=1;dashed=1;strokeColor=none;strokeWidth=2;fillColor=#E6E6E6;fontFamily=Verdana;fontSize=12;fontColor=#00BEF2" parent="1" vertex="1">
          <mxGeometry x="580" y="120" width="165" height="670" as="geometry" />
        </mxCell>
        <mxCell id="2023" value="" style="rounded=1;whiteSpace=wrap;html=1;dashed=1;strokeColor=none;strokeWidth=2;fillColor=#E6E6E6;fontFamily=Verdana;fontSize=12;fontColor=#00BEF2" parent="1" vertex="1">
          <mxGeometry x="760" y="120" width="165" height="670" as="geometry" />
        </mxCell>
        <mxCell id="2024" value="" style="rounded=1;whiteSpace=wrap;html=1;dashed=1;strokeColor=none;strokeWidth=2;fillColor=#E6E6E6;fontFamily=Verdana;fontSize=12;fontColor=#00BEF2" parent="1" vertex="1">
          <mxGeometry x="940" y="120" width="165" height="670" as="geometry" />
        </mxCell>
        <mxCell id="2025" value="Event" style="whiteSpace=wrap;html=1;dashed=1;strokeColor=none;strokeWidth=2;fillColor=#3399FF;fontFamily=Helvetica;fontSize=18;fontColor=#FFFFFF;fontStyle=1" parent="1" vertex="1">
          <mxGeometry x="40" y="120" width="165" height="60" as="geometry" />
        </mxCell>
        <mxCell id="2026" value="Compute" style="whiteSpace=wrap;html=1;dashed=1;strokeColor=none;strokeWidth=2;fillColor=#3399FF;fontFamily=Helvetica;fontSize=18;fontColor=#FFFFFF;fontStyle=1" parent="1" vertex="1">
          <mxGeometry x="220" y="120" width="165" height="60" as="geometry" />
        </mxCell>
        <mxCell id="2027" value="Data&lt;div&gt;Services&lt;/div&gt;" style="whiteSpace=wrap;html=1;dashed=1;strokeColor=none;strokeWidth=2;fillColor=#3399FF;fontFamily=Helvetica;fontSize=18;fontColor=#FFFFFF;fontStyle=1" parent="1" vertex="1">
          <mxGeometry x="400" y="120" width="165" height="60" as="geometry" />
        </mxCell>
        <mxCell id="2028" value="Data&lt;div&gt;Storage&lt;/div&gt;" style="whiteSpace=wrap;html=1;dashed=1;strokeColor=none;strokeWidth=2;fillColor=#3399FF;fontFamily=Helvetica;fontSize=18;fontColor=#FFFFFF;fontStyle=1" parent="1" vertex="1">
          <mxGeometry x="580" y="120" width="165" height="60" as="geometry" />
        </mxCell>
        <mxCell id="2029" value="App&lt;div&gt;Services&lt;/div&gt;" style="whiteSpace=wrap;html=1;dashed=1;strokeColor=none;strokeWidth=2;fillColor=#3399FF;fontFamily=Helvetica;fontSize=18;fontColor=#FFFFFF;fontStyle=1" parent="1" vertex="1">
          <mxGeometry x="760" y="120" width="165" height="60" as="geometry" />
        </mxCell>
        <mxCell id="2030" value="&amp;nbsp; &amp;nbsp;Presentation" style="whiteSpace=wrap;html=1;dashed=1;strokeColor=none;strokeWidth=2;fillColor=#3399FF;fontFamily=Helvetica;fontSize=18;fontColor=#FFFFFF;fontStyle=1" parent="1" vertex="1">
          <mxGeometry x="940" y="120" width="165" height="60" as="geometry" />
        </mxCell>
        <mxCell id="2031" value="" style="shape=mxgraph.arrows.two_way_arrow_horizontal;html=1;verticalLabelPosition=bottom;verticalAlign=top;strokeWidth=2;strokeColor=none;dashed=1;fillColor=#FFFFFF;fontFamily=Verdana;fontSize=12;fontColor=#00BEF2" parent="1" vertex="1">
          <mxGeometry x="180" y="131" width="67" height="39" as="geometry" />
        </mxCell>
        <mxCell id="2032" value="" style="shape=mxgraph.arrows.two_way_arrow_horizontal;html=1;verticalLabelPosition=bottom;verticalAlign=top;strokeWidth=2;strokeColor=none;dashed=1;fillColor=#FFFFFF;fontFamily=Verdana;fontSize=12;fontColor=#00BEF2" parent="1" vertex="1">
          <mxGeometry x="360" y="131" width="67" height="39" as="geometry" />
        </mxCell>
        <mxCell id="2033" value="" style="shape=mxgraph.arrows.two_way_arrow_horizontal;html=1;verticalLabelPosition=bottom;verticalAlign=top;strokeWidth=2;strokeColor=none;dashed=1;fillColor=#FFFFFF;fontFamily=Verdana;fontSize=12;fontColor=#00BEF2" parent="1" vertex="1">
          <mxGeometry x="540" y="131" width="67" height="39" as="geometry" />
        </mxCell>
        <mxCell id="2034" value="" style="shape=mxgraph.arrows.two_way_arrow_horizontal;html=1;verticalLabelPosition=bottom;verticalAlign=top;strokeWidth=2;strokeColor=none;dashed=1;fillColor=#FFFFFF;fontFamily=Verdana;fontSize=12;fontColor=#00BEF2" parent="1" vertex="1">
          <mxGeometry x="720" y="131" width="67" height="39" as="geometry" />
        </mxCell>
        <mxCell id="2035" value="" style="shape=mxgraph.arrows.two_way_arrow_horizontal;html=1;verticalLabelPosition=bottom;verticalAlign=top;strokeWidth=2;strokeColor=none;dashed=1;fillColor=#FFFFFF;fontFamily=Verdana;fontSize=12;fontColor=#00BEF2" parent="1" vertex="1">
          <mxGeometry x="900" y="131" width="67" height="39" as="geometry" />
        </mxCell>
        <mxCell id="2036" value="" style="verticalLabelPosition=bottom;html=1;verticalAlign=top;strokeColor=none;fillColor=#003366;shape=mxgraph.azure.cloud_service;dashed=1;fontFamily=Helvetica;fontSize=18;fontColor=#FFFFFF;opacity=25" parent="1" vertex="1">
          <mxGeometry x="90" y="180" width="970" height="600" as="geometry" />
        </mxCell>
        <mxCell id="2037" value="" style="verticalLabelPosition=bottom;html=1;verticalAlign=top;strokeColor=none;fillColor=#3399FF;shape=mxgraph.azure.tablet;dashed=1;fontFamily=Helvetica;fontSize=14;fontColor=#004C99" parent="1" vertex="1">
          <mxGeometry x="66" y="401" width="50" height="37.5" as="geometry" />
        </mxCell>
        <mxCell id="2038" value="" style="verticalLabelPosition=bottom;html=1;verticalAlign=top;strokeColor=none;fillColor=#3399FF;shape=mxgraph.azure.mobile;dashed=1;fontFamily=Helvetica;fontSize=14;fontColor=#004C99" parent="1" vertex="1">
          <mxGeometry x="146" y="395" width="35" height="50" as="geometry" />
        </mxCell>
        <mxCell id="2039" value="Devices" style="verticalLabelPosition=bottom;html=1;verticalAlign=top;strokeColor=none;fillColor=#3399FF;shape=mxgraph.azure.laptop;dashed=1;fontFamily=Helvetica;fontSize=14;fontColor=#004C99" parent="1" vertex="1">
          <mxGeometry x="96" y="451" width="50" height="30" as="geometry" />
        </mxCell>
        <mxCell id="2040" value="Applications" style="verticalLabelPosition=bottom;html=1;verticalAlign=top;strokeColor=none;fillColor=#3399FF;shape=mxgraph.azure.mobile_services;dashed=1;fontFamily=Helvetica;fontSize=14;fontColor=#004C99" parent="1" vertex="1">
          <mxGeometry x="107" y="250" width="32.5" height="50" as="geometry" />
        </mxCell>
        <mxCell id="2041" value="Social" style="verticalLabelPosition=bottom;html=1;verticalAlign=top;strokeColor=none;fillColor=#3399FF;shape=mxgraph.azure.user;dashed=1;fontSize=14;fontColor=#004C99" parent="1" vertex="1">
          <mxGeometry x="92" y="680" width="47.5" height="50" as="geometry" />
        </mxCell>
        <mxCell id="2042" value="" style="verticalLabelPosition=bottom;html=1;verticalAlign=top;strokeColor=none;fillColor=#3399FF;shape=mxgraph.azure.github_code;dashed=1;fontSize=14;fontColor=#004C99" parent="1" vertex="1">
          <mxGeometry x="133" y="560" width="50" height="50" as="geometry" />
        </mxCell>
        <mxCell id="2043" value="" style="verticalLabelPosition=bottom;html=1;verticalAlign=top;strokeColor=none;fillColor=#3399FF;shape=mxgraph.azure.dropbox_code_source;dashed=1;fontSize=14;fontColor=#004C99" parent="1" vertex="1">
          <mxGeometry x="73" y="563" width="50" height="47.5" as="geometry" />
        </mxCell>
        <mxCell id="2044" value="Repositories" style="text;html=1;strokeColor=none;fillColor=none;align=center;verticalAlign=middle;whiteSpace=wrap;overflow=hidden;dashed=1;fontSize=14;fontColor=#004C99" parent="1" vertex="1">
          <mxGeometry x="60" y="620" width="120" height="20" as="geometry" />
        </mxCell>
        <mxCell id="2045" value="Azure Website" style="verticalLabelPosition=bottom;html=1;verticalAlign=top;strokeColor=none;fillColor=#3399FF;shape=mxgraph.azure.azure_website;dashed=1;fontSize=14;fontColor=#004C99" parent="1" vertex="1">
          <mxGeometry x="278" y="258" width="50" height="50" as="geometry" />
        </mxCell>
        <mxCell id="2046" value="Mobile Services" style="verticalLabelPosition=bottom;html=1;verticalAlign=top;strokeColor=none;fillColor=#3399FF;shape=mxgraph.azure.mobile_services;dashed=1;fontSize=14;fontColor=#004C99" parent="1" vertex="1">
          <mxGeometry x="287" y="661" width="32.5" height="50" as="geometry" />
        </mxCell>
        <mxCell id="2047" value="Windows Azure Management Portal" style="text;html=1;strokeColor=none;fillColor=none;align=center;verticalAlign=middle;whiteSpace=wrap;overflow=hidden;dashed=1;fontSize=36;fontColor=#FFFFFF;fontFamily=Helvetica;fontStyle=1" parent="1" vertex="1">
          <mxGeometry x="40" y="50" width="1060" height="50" as="geometry" />
        </mxCell>
        <mxCell id="2048" value="Business&amp;nbsp;&lt;div&gt;Analytics&lt;/div&gt;" style="rounded=1;whiteSpace=wrap;html=1;dashed=1;strokeColor=none;strokeWidth=2;fillColor=#FFFFFF;fontFamily=Helvetica;fontSize=14;fontColor=#FFB366;opacity=75;verticalAlign=top;fontStyle=1" parent="1" vertex="1">
          <mxGeometry x="410" y="190" width="140" height="260" as="geometry" />
        </mxCell>
        <mxCell id="2049" value="Data&lt;div&gt;Management&lt;/div&gt;" style="rounded=1;whiteSpace=wrap;html=1;dashed=1;strokeColor=none;strokeWidth=2;fillColor=#FFFFFF;fontFamily=Helvetica;fontSize=14;fontColor=#FFB366;opacity=75;verticalAlign=top;fontStyle=1" parent="1" vertex="1">
          <mxGeometry x="413" y="460" width="140" height="320" as="geometry" />
        </mxCell>
        <mxCell id="2050" value="SQL Reporting" style="verticalLabelPosition=bottom;html=1;verticalAlign=top;strokeColor=none;fillColor=#3399FF;shape=mxgraph.azure.sql_reporting;dashed=1;fontSize=14;fontColor=#004C99" parent="1" vertex="1">
          <mxGeometry x="460" y="258" width="40" height="50" as="geometry" />
        </mxCell>
        <mxCell id="2051" value="HDInsight" style="verticalLabelPosition=bottom;html=1;verticalAlign=top;strokeColor=none;fillColor=#3399FF;shape=mxgraph.azure.hdinsight;dashed=1;fontSize=14;fontColor=#004C99" parent="1" vertex="1">
          <mxGeometry x="458" y="355" width="50" height="50" as="geometry" />
        </mxCell>
        <mxCell id="2052" value="SQL Database" style="verticalLabelPosition=bottom;html=1;verticalAlign=top;strokeColor=none;fillColor=#3399FF;shape=mxgraph.azure.sql_database;dashed=1;fontFamily=Helvetica;fontSize=14;fontColor=#004C99" parent="1" vertex="1">
          <mxGeometry x="464" y="600" width="37.5" height="50" as="geometry" />
        </mxCell>
        <mxCell id="2053" value="Tables" style="verticalLabelPosition=bottom;html=1;verticalAlign=top;strokeColor=none;fillColor=#3399FF;shape=mxgraph.azure.storage_table;dashed=1;fontFamily=Helvetica;fontSize=14;fontColor=#004C99" parent="1" vertex="1">
          <mxGeometry x="458" y="689" width="50" height="45" as="geometry" />
        </mxCell>
        <mxCell id="2054" value="Blobs" style="verticalLabelPosition=bottom;html=1;verticalAlign=top;strokeColor=none;fillColor=#3399FF;shape=mxgraph.azure.storage_blob;dashed=1;fontFamily=Helvetica;fontSize=14;fontColor=#004C99" parent="1" vertex="1">
          <mxGeometry x="457" y="523" width="50" height="45" as="geometry" />
        </mxCell>
        <mxCell id="2055" value="Storage Management" style="rounded=1;whiteSpace=wrap;html=1;dashed=1;strokeColor=none;strokeWidth=2;fillColor=#FFFFFF;fontFamily=Helvetica;fontSize=14;fontColor=#FFB366;opacity=75;verticalAlign=top;fontStyle=1" parent="1" vertex="1">
          <mxGeometry x="594" y="240" width="140" height="280" as="geometry" />
        </mxCell>
        <mxCell id="2056" value="Storage Servers" style="verticalLabelPosition=bottom;html=1;verticalAlign=top;strokeColor=none;fillColor=#3399FF;shape=mxgraph.azure.server_rack;dashed=1;fontFamily=Helvetica;fontSize=14;fontColor=#004C99" parent="1" vertex="1">
          <mxGeometry x="639" y="316" width="50" height="50" as="geometry" />
        </mxCell>
        <mxCell id="2057" value="Database" style="verticalLabelPosition=bottom;html=1;verticalAlign=top;strokeColor=none;fillColor=#3399FF;shape=mxgraph.azure.database;dashed=1;fontFamily=Helvetica;fontSize=14;fontColor=#004C99" parent="1" vertex="1">
          <mxGeometry x="644" y="414" width="37.5" height="50" as="geometry" />
        </mxCell>
        <mxCell id="2058" value="Physical&lt;div&gt;Data Storage&lt;/div&gt;" style="verticalLabelPosition=bottom;html=1;verticalAlign=top;strokeColor=none;fillColor=#3399FF;shape=mxgraph.azure.vhd;dashed=1;fontFamily=Helvetica;fontSize=14;fontColor=#004C99" parent="1" vertex="1">
          <mxGeometry x="643" y="590" width="40" height="50" as="geometry" />
        </mxCell>
        <mxCell id="2059" value="Identity" style="rounded=1;whiteSpace=wrap;html=1;dashed=1;strokeColor=none;strokeWidth=2;fillColor=#FFFFFF;fontFamily=Helvetica;fontSize=14;fontColor=#FFB366;opacity=75;verticalAlign=top;fontStyle=1" parent="1" vertex="1">
          <mxGeometry x="773" y="196" width="140" height="134" as="geometry" />
        </mxCell>
        <mxCell id="2060" value="Windows Azure&amp;nbsp;&lt;div&gt;Active Directorry&lt;/div&gt;" style="verticalLabelPosition=bottom;html=1;verticalAlign=top;strokeColor=none;fillColor=#3399FF;shape=mxgraph.azure.azure_active_directory;dashed=1;fontFamily=Helvetica;fontSize=14;fontColor=#004C99" parent="1" vertex="1">
          <mxGeometry x="819" y="225" width="47.5" height="50" as="geometry" />
        </mxCell>
        <mxCell id="2061" value="Performance" style="rounded=1;whiteSpace=wrap;html=1;dashed=1;strokeColor=none;strokeWidth=2;fillColor=#FFFFFF;fontFamily=Helvetica;fontSize=14;fontColor=#FFB366;opacity=75;verticalAlign=top;fontStyle=1" parent="1" vertex="1">
          <mxGeometry x="774" y="341" width="140" height="199" as="geometry" />
        </mxCell>
        <mxCell id="2062" value="Caching" style="verticalLabelPosition=bottom;html=1;verticalAlign=top;strokeColor=none;fillColor=#3399FF;shape=mxgraph.azure.azure_cache;dashed=1;fontFamily=Helvetica;fontSize=14;fontColor=#004C99" parent="1" vertex="1">
          <mxGeometry x="821" y="376" width="45" height="50" as="geometry" />
        </mxCell>
        <mxCell id="2063" value="Content&amp;nbsp;&lt;div&gt;Delivery Network&lt;/div&gt;" style="verticalLabelPosition=bottom;html=1;verticalAlign=top;strokeColor=none;fillColor=#3399FF;shape=mxgraph.azure.content_delivery_network;dashed=1;fontFamily=Helvetica;fontSize=14;fontColor=#004C99" parent="1" vertex="1">
          <mxGeometry x="819" y="455" width="50" height="32.5" as="geometry" />
        </mxCell>
        <mxCell id="2064" value="Messaging" style="rounded=1;whiteSpace=wrap;html=1;dashed=1;strokeColor=none;strokeWidth=2;fillColor=#FFFFFF;fontFamily=Helvetica;fontSize=14;fontColor=#FFB366;opacity=75;verticalAlign=top;fontStyle=1" parent="1" vertex="1">
          <mxGeometry x="773" y="550" width="140" height="229" as="geometry" />
        </mxCell>
        <mxCell id="2065" value="Queues" style="verticalLabelPosition=bottom;html=1;verticalAlign=top;strokeColor=none;fillColor=#3399FF;shape=mxgraph.azure.queue_generic;dashed=1;fontFamily=Helvetica;fontSize=14;fontColor=#004C99" parent="1" vertex="1">
          <mxGeometry x="820" y="576" width="50" height="15" as="geometry" />
        </mxCell>
        <mxCell id="2066" value="Service Bus" style="verticalLabelPosition=bottom;html=1;verticalAlign=top;strokeColor=none;fillColor=#3399FF;shape=mxgraph.azure.service_bus;dashed=1;fontFamily=Helvetica;fontSize=14;fontColor=#004C99" parent="1" vertex="1">
          <mxGeometry x="824" y="624" width="45" height="50" as="geometry" />
        </mxCell>
        <mxCell id="2067" value="Media Services" style="verticalLabelPosition=bottom;html=1;verticalAlign=top;strokeColor=none;fillColor=#3399FF;shape=mxgraph.azure.media_service;dashed=1;fontFamily=Helvetica;fontSize=14;fontColor=#004C99" parent="1" vertex="1">
          <mxGeometry x="821" y="703" width="45" height="50" as="geometry" />
        </mxCell>
        <mxCell id="2068" value="Cloud&lt;div&gt;Services&lt;/div&gt;" style="rounded=1;whiteSpace=wrap;html=1;dashed=1;strokeColor=none;strokeWidth=2;fillColor=#FFFFFF;fontFamily=Helvetica;fontSize=14;fontColor=#FFB366;opacity=75;verticalAlign=top;fontStyle=1" parent="1" vertex="1">
          <mxGeometry x="233" y="397" width="140" height="223" as="geometry" />
        </mxCell>
        <mxCell id="2069" value="Cloud" style="verticalLabelPosition=bottom;html=1;verticalAlign=top;strokeColor=none;fillColor=#3399FF;shape=mxgraph.azure.cloud;dashed=1;fontSize=14;fontColor=#004C99" parent="1" vertex="1">
          <mxGeometry x="278" y="449" width="50" height="32.5" as="geometry" />
        </mxCell>
        <mxCell id="2070" value="Virtual Machine" style="verticalLabelPosition=bottom;html=1;verticalAlign=top;strokeColor=none;fillColor=#3399FF;shape=mxgraph.azure.virtual_machine;dashed=1;fontSize=14;fontColor=#004C99" parent="1" vertex="1">
          <mxGeometry x="278" y="536" width="50" height="40" as="geometry" />
        </mxCell>
        <mxCell id="2071" value="Web Dashboards" style="verticalLabelPosition=bottom;html=1;verticalAlign=top;strokeColor=none;fillColor=#3399FF;shape=mxgraph.azure.laptop;dashed=1;fontFamily=Helvetica;fontSize=14;fontColor=#004C99" parent="1" vertex="1">
          <mxGeometry x="998" y="301" width="50" height="30" as="geometry" />
        </mxCell>
        <mxCell id="2072" value="Certificates" style="verticalLabelPosition=bottom;html=1;verticalAlign=top;strokeColor=none;fillColor=#3399FF;shape=mxgraph.azure.certificate;dashed=1;fontFamily=Helvetica;fontSize=14;fontColor=#004C99" parent="1" vertex="1">
          <mxGeometry x="998" y="399" width="50" height="40" as="geometry" />
        </mxCell>
        <mxCell id="2073" value="Enterprise&lt;div&gt;Services&lt;/div&gt;" style="verticalLabelPosition=bottom;html=1;verticalAlign=top;strokeColor=none;fillColor=#3399FF;shape=mxgraph.azure.enterprise;dashed=1;fontFamily=Helvetica;fontSize=14;fontColor=#004C99" parent="1" vertex="1">
          <mxGeometry x="1008" y="518" width="30" height="50" as="geometry" />
        </mxCell>
        <mxCell id="2074" value="Seminars" style="verticalLabelPosition=bottom;html=1;verticalAlign=top;strokeColor=none;fillColor=#3399FF;shape=mxgraph.azure.user;dashed=1;fontFamily=Helvetica;fontSize=14;fontColor=#004C99" parent="1" vertex="1">
          <mxGeometry x="1001" y="630" width="47.5" height="50" as="geometry" />
        </mxCell>
        <mxCell id="2075" value="" style="arrow;html=1;endArrow=block;endFill=1;strokeColor=none;strokeWidth=4;fontFamily=Helvetica;fontSize=36;fontColor=#FFB366;fillColor=#FFB366;" parent="1" edge="1">
          <mxGeometry width="100" height="100" relative="1" as="geometry">
            <mxPoint x="167" y="283" as="sourcePoint" />
            <mxPoint x="247" y="283" as="targetPoint" />
          </mxGeometry>
        </mxCell>
        <mxCell id="2076" value="" style="arrow;html=1;endArrow=block;endFill=1;strokeColor=none;strokeWidth=4;fontFamily=Helvetica;fontSize=36;fontColor=#FFB366;fillColor=#FFB366;opacity=100" parent="1" edge="1">
          <mxGeometry width="100" height="100" relative="1" as="geometry">
            <mxPoint x="347" y="283" as="sourcePoint" />
            <mxPoint x="427" y="283" as="targetPoint" />
          </mxGeometry>
        </mxCell>
        <mxCell id="2077" value="" style="arrow;html=1;endArrow=block;endFill=1;strokeColor=none;strokeWidth=4;fontFamily=Helvetica;fontSize=36;fontColor=#FFB366;fillColor=#FFB366;" parent="1" edge="1">
          <mxGeometry width="100" height="100" relative="1" as="geometry">
            <mxPoint x="527" y="360" as="sourcePoint" />
            <mxPoint x="607" y="360" as="targetPoint" />
          </mxGeometry>
        </mxCell>
        <mxCell id="2078" value="" style="arrow;html=1;endArrow=block;endFill=1;strokeColor=none;strokeWidth=4;fontFamily=Helvetica;fontSize=36;fontColor=#FFB366;fillColor=#FFB366;" parent="1" edge="1">
          <mxGeometry width="100" height="100" relative="1" as="geometry">
            <mxPoint x="714" y="426" as="sourcePoint" />
            <mxPoint x="794" y="426" as="targetPoint" />
          </mxGeometry>
        </mxCell>
        <mxCell id="2079" value="" style="arrow;html=1;endArrow=block;endFill=1;strokeColor=none;strokeWidth=4;fontFamily=Helvetica;fontSize=36;fontColor=#FFB366;fillColor=#FFB366;" parent="1" edge="1">
          <mxGeometry width="100" height="100" relative="1" as="geometry">
            <mxPoint x="714" y="270" as="sourcePoint" />
            <mxPoint x="794" y="270" as="targetPoint" />
          </mxGeometry>
        </mxCell>
        <mxCell id="2080" value="" style="arrow;html=1;endArrow=block;endFill=1;strokeColor=none;strokeWidth=4;fontFamily=Helvetica;fontSize=36;fontColor=#FFB366;fillColor=#FFB366;" parent="1" edge="1">
          <mxGeometry width="100" height="100" relative="1" as="geometry">
            <mxPoint x="887" y="438" as="sourcePoint" />
            <mxPoint x="967" y="438" as="targetPoint" />
          </mxGeometry>
        </mxCell>
        <mxCell id="2081" value="" style="arrow;html=1;endArrow=block;endFill=1;strokeColor=none;strokeWidth=4;fontFamily=Helvetica;fontSize=36;fontColor=#FFB366;fillColor=#FFB366;" parent="1" edge="1">
          <mxGeometry width="100" height="100" relative="1" as="geometry">
            <mxPoint x="894" y="664" as="sourcePoint" />
            <mxPoint x="974" y="664" as="targetPoint" />
          </mxGeometry>
        </mxCell>
        <mxCell id="2082" value="" style="arrow;html=1;endArrow=block;endFill=1;strokeColor=none;strokeWidth=4;fontFamily=Helvetica;fontSize=36;fontColor=#FFB366;fillColor=#FFB366;" parent="1" edge="1">
          <mxGeometry width="100" height="100" relative="1" as="geometry">
            <mxPoint x="707" y="639" as="sourcePoint" />
            <mxPoint x="787" y="639" as="targetPoint" />
          </mxGeometry>
        </mxCell>
        <mxCell id="2083" value="" style="arrow;html=1;endArrow=block;endFill=1;strokeColor=none;strokeWidth=4;fontFamily=Helvetica;fontSize=36;fontColor=#FFB366;fillColor=#FFB366;" parent="1" edge="1">
          <mxGeometry width="100" height="100" relative="1" as="geometry">
            <mxPoint x="534" y="624" as="sourcePoint" />
            <mxPoint x="614" y="624" as="targetPoint" />
          </mxGeometry>
        </mxCell>
        <mxCell id="2084" value="" style="arrow;html=1;endArrow=block;endFill=1;strokeColor=none;strokeWidth=4;fontFamily=Helvetica;fontSize=36;fontColor=#FFB366;fillColor=#FFB366;" parent="1" edge="1">
          <mxGeometry width="100" height="100" relative="1" as="geometry">
            <mxPoint x="347" y="536" as="sourcePoint" />
            <mxPoint x="427" y="536" as="targetPoint" />
          </mxGeometry>
        </mxCell>
        <mxCell id="2085" value="" style="arrow;html=1;endArrow=block;endFill=1;strokeColor=none;strokeWidth=4;fontFamily=Helvetica;fontSize=36;fontColor=#FFB366;fillColor=#FFB366;" parent="1" edge="1">
          <mxGeometry width="100" height="100" relative="1" as="geometry">
            <mxPoint x="174" y="688" as="sourcePoint" />
            <mxPoint x="254" y="688" as="targetPoint" />
          </mxGeometry>
        </mxCell>
        <mxCell id="3ENWwBmR5Q0ZpJki1CVQ-2152" value="" style="shape=image;verticalLabelPosition=bottom;labelBackgroundColor=#ffffff;verticalAlign=top;aspect=fixed;imageAspect=0;image=data:image/svg+xml,PHN2ZyB4bWxuczpjYz0iaHR0cDovL2NyZWF0aXZlY29tbW9ucy5vcmcvbnMjIiB4bWxuczpkYz0iaHR0cDovL3B1cmwub3JnL2RjL2VsZW1lbnRzLzEuMS8iIHhtbG5zOmlua3NjYXBlPSJodHRwOi8vd3d3Lmlua3NjYXBlLm9yZy9uYW1lc3BhY2VzL2lua3NjYXBlIiB4bWxuczpyZGY9Imh0dHA6Ly93d3cudzMub3JnLzE5OTkvMDIvMjItcmRmLXN5bnRheC1ucyMiIHhtbG5zOnNvZGlwb2RpPSJodHRwOi8vc29kaXBvZGkuc291cmNlZm9yZ2UubmV0L0RURC9zb2RpcG9kaS0wLmR0ZCIgeG1sbnM6c3ZnPSJodHRwOi8vd3d3LnczLm9yZy8yMDAwL3N2ZyIgeG1sbnM9Imh0dHA6Ly93d3cudzMub3JnLzIwMDAvc3ZnIiB4bWxuczp4bGluaz0iaHR0cDovL3d3dy53My5vcmcvMTk5OS94bGluayIgdmVyc2lvbj0iMS4xIiBpZD0ic3ZnMTA5MTQyIiBpbmtzY2FwZTp2ZXJzaW9uPSIwLjkyLjMgKDI0MDU1NDYsIDIwMTgtMDMtMTEpIiBzb2RpcG9kaTpkb2NuYW1lPSJhbmRyb2lkX3RhYmxldC5zdmciIHg9IjBweCIgeT0iMHB4IiB2aWV3Qm94PSIwIDAgNDMuNDYgMjguOCIgc3R5bGU9ImVuYWJsZS1iYWNrZ3JvdW5kOm5ldyAwIDAgNDMuNDYgMjguODsiIHhtbDpzcGFjZT0icHJlc2VydmUiPiYjeGE7PHNvZGlwb2RpOm5hbWVkdmlldyBib3JkZXJjb2xvcj0iIzY2NjY2NiIgYm9yZGVyb3BhY2l0eT0iMSIgZml0LW1hcmdpbi1ib3R0b209IjAiIGZpdC1tYXJnaW4tbGVmdD0iMCIgZml0LW1hcmdpbi1yaWdodD0iMCIgZml0LW1hcmdpbi10b3A9IjAiIGdyaWR0b2xlcmFuY2U9IjEwIiBndWlkZXRvbGVyYW5jZT0iMTAiIGlkPSJuYW1lZHZpZXcxMDkxNDQiIGlua3NjYXBlOmN1cnJlbnQtbGF5ZXI9InN2ZzEwOTE0MiIgaW5rc2NhcGU6Y3g9IjI4Ljk3NTkyIiBpbmtzY2FwZTpjeT0iMTkuMjAyMTI0IiBpbmtzY2FwZTpwYWdlb3BhY2l0eT0iMCIgaW5rc2NhcGU6cGFnZXNoYWRvdz0iMiIgaW5rc2NhcGU6d2luZG93LWhlaWdodD0iMTAxNyIgaW5rc2NhcGU6d2luZG93LW1heGltaXplZD0iMSIgaW5rc2NhcGU6d2luZG93LXdpZHRoPSIxOTIwIiBpbmtzY2FwZTp3aW5kb3cteD0iLTgiIGlua3NjYXBlOndpbmRvdy15PSItOCIgaW5rc2NhcGU6em9vbT0iMjIuNTgwNjY1IiBvYmplY3R0b2xlcmFuY2U9IjEwIiBwYWdlY29sb3I9IiNmZmZmZmYiIHNob3dncmlkPSJmYWxzZSI+JiN4YTsJPC9zb2RpcG9kaTpuYW1lZHZpZXc+JiN4YTs8ZyBpZD0iZzEwOTE0MCI+JiN4YTsJPHRpdGxlIGlkPSJ0aXRsZTEwOTA3MCI+UGFnZS0xPC90aXRsZT4mI3hhOwk8ZyBpZD0iZ3JvdXAxLTEiPiYjeGE7CQk8dGl0bGUgaWQ9InRpdGxlMTA5MDcyIj5BbmRyb2lkIHRhYmxldDwvdGl0bGU+JiN4YTsJCTxnIGlkPSJzaGFwZTItMiI+JiN4YTsJCQk8dGl0bGUgaWQ9InRpdGxlMTA5MDc0Ij5TaGVldC4yPC90aXRsZT4mI3hhOwkJCTxwYXRoIGlkPSJwYXRoMTA5MDc2IiBpbmtzY2FwZTpjb25uZWN0b3ItY3VydmF0dXJlPSIwIiBzdHlsZT0iZmlsbDojM0Y1NzY1OyIgZD0iTTEuNzYsMjguOEMwLjY5LDI4LjgsMCwyOC4xNSwwLDI3LjA3ICAgICBDMCwxLjc2LDAsMS43NiwwLDEuNzZDMCwwLjg4LDAuNjksMCwxLjc2LDBjMzkuOTgsMCwzOS45OCwwLDM5Ljk4LDBjMC44OCwwLDEuNzIsMC44OCwxLjcyLDEuNzZjMCwyNS4zMSwwLDI1LjMxLDAsMjUuMzEgICAgIGMwLDEuMDgtMC44NCwxLjczLTEuNzIsMS43M0gxLjc2eiIvPiYjeGE7CQk8L2c+JiN4YTsJCTxnIGlkPSJzaGFwZTMtNCIgdHJhbnNmb3JtPSJ0cmFuc2xhdGUoMy4wNjA4NCwtMy4wNjM0OCkiPiYjeGE7CQkJPHRpdGxlIGlkPSJ0aXRsZTEwOTA3OSI+U2hlZXQuMzwvdGl0bGU+JiN4YTsJCQk8cGF0aCBpZD0icGF0aDEwOTA4MSIgaW5rc2NhcGU6Y29ubmVjdG9yLWN1cnZhdHVyZT0iMCIgc3R5bGU9ImZpbGw6I0ZGRkZGRjsiIGQ9Ik0wLDYuMTNWMjguOGgzNi43M1Y2LjEzSDB6Ii8+JiN4YTsJCTwvZz4mI3hhOwkJPGcgaWQ9InNoYXBlNC02IiB0cmFuc2Zvcm09InRyYW5zbGF0ZSgyNi4zMjMyLC0xMS42NDEyKSI+JiN4YTsJCQk8dGl0bGUgaWQ9InRpdGxlMTA5MDg0Ij5TaGVldC40PC90aXRsZT4mI3hhOwkJCTxwYXRoIGlkPSJwYXRoMTA5MDg2IiBpbmtzY2FwZTpjb25uZWN0b3ItY3VydmF0dXJlPSIwIiBzdHlsZT0iZmlsbDojOTdDMDNFOyIgZD0iTTEuODQsMjQuMmMwLDMuNjgsMCwzLjY4LDAsMy42OCAgICAgYzAsMC4yMywwLDAuNDYtMC4yMywwLjY5YzAsMC4yMy0wLjIzLDAuMjMtMC42OSwwLjIzQzAuNDYsMjguOCwwLDI4LjM0LDAsMjcuODhjMC0zLjY4LDAtMy42OCwwLTMuNjggICAgIGMwLTAuMjMsMC4yMy0wLjQ2LDAuNDYtMC42OWMwLTAuMjMsMC4yMy0wLjIzLDAuNDYtMC4yM0MxLjYxLDIzLjI4LDEuODQsMjMuNTEsMS44NCwyNC4yeiIvPiYjeGE7CQk8L2c+JiN4YTsJCTxnIGlkPSJzaGFwZTUtOCIgdHJhbnNmb3JtPSJ0cmFuc2xhdGUoMTcuNzUyOSwtNi43Mzk2NykiPiYjeGE7CQkJPHRpdGxlIGlkPSJ0aXRsZTEwOTA4OSI+U2hlZXQuNTwvdGl0bGU+JiN4YTsJCQk8cGF0aCBpZD0icGF0aDEwOTA5MSIgaW5rc2NhcGU6Y29ubmVjdG9yLWN1cnZhdHVyZT0iMCIgc3R5bGU9ImZpbGw6Izk3QzAzRTsiIGQ9Ik03Ljk2LDE4LjM4YzAsNi4zNiwwLDYuMzYsMCw2LjM2ICAgICBjMCwwLjY5LDAsMS4xNS0xLjA3LDEuMTVjLTAuNDYsMC0wLjQ2LDAtMC40NiwwYzAsMi4wMywwLDIuMDMsMCwyLjAzYzAsMC40Ni0wLjQ2LDAuODgtMC44OCwwLjg4Yy0wLjQ2LDAtMC44OC0wLjQyLTAuODgtMC44OCAgICAgYzAtMi4wMywwLTIuMDMsMC0yLjAzYy0xLjU3LDAtMS41NywwLTEuNTcsMGMwLDIuMDMsMCwyLjAzLDAsMi4wM2MwLDAuNDYtMC4xOSwwLjg4LTAuODgsMC44OGMtMC40MiwwLTAuODgtMC40Mi0wLjg4LTAuODggICAgIGMwLTIuMDMsMC0yLjAzLDAtMi4wM2MtMC40MiwwLTAuNDIsMC0wLjQyLDBDMCwyNS44OSwwLDI1LjQzLDAsMjQuNzRjMC02LjM2LDAtNi4zNiwwLTYuMzZINy45NnoiLz4mI3hhOwkJPC9nPiYjeGE7CQk8ZyBpZD0ic2hhcGU2LTEwIiB0cmFuc2Zvcm09InRyYW5zbGF0ZSgxNy43NTI5LC0xNy43NjgyKSI+JiN4YTsJCQk8dGl0bGUgaWQ9InRpdGxlMTA5MDk0Ij5TaGVldC42PC90aXRsZT4mI3hhOwkJCTxwYXRoIGlkPSJwYXRoMTA5MDk2IiBpbmtzY2FwZTpjb25uZWN0b3ItY3VydmF0dXJlPSIwIiBzdHlsZT0iZmlsbDojRkZGRkZGOyIgZD0iTTcuOTYsMjguOEMwLDI4LjgsMCwyOC44LDAsMjguOCAgICAgYzAtMSwwLjY5LTIuMDMsMS45OS0yLjY1Yy0wLjY1LTAuOC0wLjY1LTAuOC0wLjY1LTAuOGMwLTAuMjMsMC0wLjIzLDAtMC4yM3MwLDAsMC4yMywwYzAuNjUsMS4wMywwLjY1LDEuMDMsMC42NSwxLjAzICAgICBjMC40Ni0wLjE5LDEuMTEtMC4xOSwxLjc2LTAuMTljMC40NiwwLDEuMTEsMCwxLjU3LDAuMTljMC44OC0xLjAzLDAuODgtMS4wMywwLjg4LTEuMDNzMCwwLDAuMjMsMGMwLDAsMCwwLDAsMC4yMyAgICAgYy0wLjg4LDAuOC0wLjg4LDAuOC0wLjg4LDAuOEM3LjA4LDI2Ljc3LDcuOTYsMjcuOCw3Ljk2LDI4Ljh6IE02LjIsMjcuMzhjMC0wLjE5LTAuMjMtMC40Mi0wLjQyLTAuNDIgICAgIGMtMC40NiwwLTAuNDYsMC4yMy0wLjQ2LDAuNDJzMCwwLjQyLDAuNDYsMC40MkM1Ljk3LDI3LjgsNi4yLDI3LjU3LDYuMiwyNy4zOHogTTIuNjgsMjcuMzhjMC0wLjE5LTAuMjMtMC40Mi0wLjQ2LTAuNDIgICAgIFMxLjgsMjcuMTksMS44LDI3LjM4czAuMTksMC40MiwwLjQyLDAuNDJTMi42OCwyNy41NywyLjY4LDI3LjM4eiIvPiYjeGE7CQk8L2c+JiN4YTsJCTxnIGlkPSJzaGFwZTctMTIiIHRyYW5zZm9ybT0idHJhbnNsYXRlKDE1LjMwNDIsLTExLjY0MTIpIj4mI3hhOwkJCTx0aXRsZSBpZD0idGl0bGUxMDkwOTkiPlNoZWV0Ljc8L3RpdGxlPiYjeGE7CQkJPHBhdGggaWQ9InBhdGgxMDkxMDEiIGlua3NjYXBlOmNvbm5lY3Rvci1jdXJ2YXR1cmU9IjAiIHN0eWxlPSJmaWxsOiM5N0MwM0U7IiBkPSJNMS44NCwyNC4yYzAsMy42OCwwLDMuNjgsMCwzLjY4ICAgICBjMCwwLjIzLDAsMC40Ni0wLjIzLDAuNjlDMS4zOCwyOC44LDEuMTUsMjguOCwwLjkyLDI4LjhDMC40NiwyOC44LDAsMjguMzQsMCwyNy44OGMwLTMuNjgsMC0zLjY4LDAtMy42OCAgICAgYzAtMC4yMywwLjIzLTAuNDYsMC4yMy0wLjY5YzAuMjMtMC4yMywwLjQ2LTAuMjMsMC42OS0wLjIzQzEuMzgsMjMuMjgsMS44NCwyMy41MSwxLjg0LDI0LjJ6Ii8+JiN4YTsJCTwvZz4mI3hhOwkJPGcgaWQ9InNoYXBlOC0xNCIgdHJhbnNmb3JtPSJ0cmFuc2xhdGUoMTUuMzA0MiwtNi4xMjY5NykiPiYjeGE7CQkJPHRpdGxlIGlkPSJ0aXRsZTEwOTEwNCI+U2hlZXQuODwvdGl0bGU+JiN4YTsJCQk8cGF0aCBpZD0icGF0aDEwOTEwNiIgaW5rc2NhcGU6Y29ubmVjdG9yLWN1cnZhdHVyZT0iMCIgc3R5bGU9ImZpbGw6I0ZGRkZGRjsiIGQ9Ik0xMS45OCwxNy41NGMtMC4yMywwLTAuNjUsMC4yMy0wLjg4LDAuMjMgICAgIGMwLTAuMjMsMC0wLjIzLDAtMC4yM2wwLDBjMC0xLjExLTAuNjUtMi4yMi0xLjczLTMuMWMwLjQyLTAuNDYsMC40Mi0wLjQ2LDAuNDItMC40NmMwLTAuMTksMC4yMy0wLjE5LDAtMC40MiAgICAgYzAtMC4yMywwLTAuNDYtMC4yMi0wLjQ2YzAtMC4yMy0wLjItMC4yMy0wLjQzLTAuMjNjLTAuMjMsMC0wLjQyLDAuMjMtMC40MiwwLjQ2Yy0wLjY1LDAuNjUtMC42NSwwLjY1LTAuNjUsMC42NSAgICAgYy0wLjQ2LTAuMTktMC44OC0wLjE5LTEuMzQtMC4xOWMtMC42NSwwLTEuMDcsMC0xLjQ5LDAuMTljLTAuNDYtMC42NS0wLjQ2LTAuNjUtMC40Ni0wLjY1Yy0wLjE5LTAuMjMtMC40Mi0wLjQ2LTAuNjUtMC40NiAgICAgYzAsMC0wLjE5LDAtMC40MiwwLjIzYzAsMC0wLjIzLDAuMjMtMC4yMywwLjQ2YzAsMC4yMywwLDAuMjMsMC4yMywwLjQyYzAuMjMsMC40NiwwLjIzLDAuNDYsMC4yMywwLjQ2ICAgICBjLTEuMTEsMC44OC0xLjc2LDEuOTktMS43NiwzLjFsMCwwYzAsMC4yMywwLDAuMjMsMCwwLjIzYy0wLjE5LDAtMC40Mi0wLjIzLTAuODQtMC4yM0MwLjQ2LDE3LjU0LDAsMTguMTksMCwxOS4wNyAgICAgYzAsMy41NiwwLDMuNTYsMCwzLjU2YzAsMC44OCwwLjQ2LDEuNTMsMS4zNCwxLjUzYzAuNDIsMCwwLjY1LTAuMjMsMC44NC0wLjQyYzAsMC42NSwwLDAuNjUsMCwwLjY1YzAsMC40MiwwLDEuNTMsMS41MywxLjUzICAgICBjMCwxLjU3LDAsMS41NywwLDEuNTdjMCwwLjY2LDAuNjUsMS4zMSwxLjMsMS4zMWMwLjg4LDAsMS41My0wLjY1LDEuNTMtMS4zMWMwLTEuNTcsMC0xLjU3LDAtMS41N2MwLjQyLDAsMC40MiwwLDAuNDIsMCAgICAgYzAsMS41NywwLDEuNTcsMCwxLjU3YzAsMC42NiwwLjY1LDEuMzEsMS4zLDEuMzFjMC44OCwwLDEuNTMtMC42NSwxLjUzLTEuMzFjMC0xLjU3LDAtMS41NywwLTEuNTdjMS4zMSwwLDEuMzEtMS4xMSwxLjMxLTEuNTMgICAgIGMwLTAuNjUsMC0wLjY1LDAtMC42NWMwLjIzLDAuMTksMC42NSwwLjQyLDAuODgsMC40MmMwLjg0LDAsMS40OS0wLjY1LDEuNDktMS41M2MwLTMuNTYsMC0zLjU2LDAtMy41NiAgICAgQzEzLjQ3LDE4LjE5LDEyLjgyLDE3LjU0LDExLjk4LDE3LjU0eiIvPiYjeGE7CQk8L2c+JiN4YTsJCTxnIGlkPSJzaGFwZTktMTYiIHRyYW5zZm9ybT0idHJhbnNsYXRlKDE1LjMwNDIsLTExLjY0MTIpIj4mI3hhOwkJCTx0aXRsZSBpZD0idGl0bGUxMDkxMDkiPlNoZWV0Ljk8L3RpdGxlPiYjeGE7CQkJPHBhdGggaWQ9InBhdGgxMDkxMTEiIGlua3NjYXBlOmNvbm5lY3Rvci1jdXJ2YXR1cmU9IjAiIHN0eWxlPSJmaWxsOiMzRjU3NjU7IiBkPSJNMS44NCwyNC4yYzAtMC42OS0wLjQ2LTAuOTItMC45Mi0wLjkyICAgICBjLTAuMjMsMC0wLjQ2LDAtMC42OSwwLjIzQzAuMjMsMjMuNzQsMCwyMy45NywwLDI0LjJjMCwzLjY4LDAsMy42OCwwLDMuNjhjMCwwLjQ2LDAuNDYsMC45MiwwLjkyLDAuOTJjMC4yMywwLDAuNDYsMCwwLjY5LTAuMjMgICAgIHMwLjIzLTAuNDYsMC4yMy0wLjY5VjI0LjJ6Ii8+JiN4YTsJCTwvZz4mI3hhOwkJPGcgaWQ9InNoYXBlMTAtMTgiIHRyYW5zZm9ybT0idHJhbnNsYXRlKDE3Ljc1MjksLTYuNzM5NjcpIj4mI3hhOwkJCTx0aXRsZSBpZD0idGl0bGUxMDkxMTQiPlNoZWV0LjEwPC90aXRsZT4mI3hhOwkJCTxwYXRoIGlkPSJwYXRoMTA5MTE2IiBpbmtzY2FwZTpjb25uZWN0b3ItY3VydmF0dXJlPSIwIiBzdHlsZT0iZmlsbDojM0Y1NzY1OyIgZD0iTTAsMTguMzhjMCw2LjM2LDAsNi4zNiwwLDYuMzYgICAgIGMwLDAuNjksMCwxLjE1LDAuOTIsMS4xNWMwLjQyLDAsMC40MiwwLDAuNDIsMGMwLDIuMDMsMCwyLjAzLDAsMi4wM2MwLDAuNDYsMC40NiwwLjg4LDAuODgsMC44OGMwLjY5LDAsMC44OC0wLjQyLDAuODgtMC44OCAgICAgYzAtMi4wMywwLTIuMDMsMC0yLjAzYzEuNTcsMCwxLjU3LDAsMS41NywwYzAsMi4wMywwLDIuMDMsMCwyLjAzYzAsMC40NiwwLjQyLDAuODgsMC44OCwwLjg4YzAuNDIsMCwwLjg4LTAuNDIsMC44OC0wLjg4ICAgICBjMC0yLjAzLDAtMi4wMywwLTIuMDNjMC40NiwwLDAuNDYsMCwwLjQ2LDBjMS4wNywwLDEuMDctMC40NiwxLjA3LTEuMTVjMC02LjM2LDAtNi4zNiwwLTYuMzZIMHoiLz4mI3hhOwkJPC9nPiYjeGE7CQk8ZyBpZD0ic2hhcGUxMS0yMCIgdHJhbnNmb3JtPSJ0cmFuc2xhdGUoMTcuNzUyOSwtMTcuNzY4MikiPiYjeGE7CQkJPHRpdGxlIGlkPSJ0aXRsZTEwOTExOSI+U2hlZXQuMTE8L3RpdGxlPiYjeGE7CQkJPHBhdGggaWQ9InBhdGgxMDkxMjEiIGlua3NjYXBlOmNvbm5lY3Rvci1jdXJ2YXR1cmU9IjAiIHN0eWxlPSJmaWxsOiMzRjU3NjU7IiBkPSJNNS43OCwyNi4xNWMwLjg4LTAuOCwwLjg4LTAuOCwwLjg4LTAuOCAgICAgYzAtMC4yMywwLTAuMjMsMC0wLjIzYy0wLjIzLDAtMC4yMywwLTAuMjMsMGMtMC44OCwxLjAzLTAuODgsMS4wMy0wLjg4LDEuMDNjLTAuNDYtMC4xOS0xLjExLTAuMTktMS41Ny0wLjE5ICAgICBjLTAuNjUsMC0xLjMsMC0xLjc2LDAuMTljLTAuNjUtMS4wMy0wLjY1LTEuMDMtMC42NS0xLjAzYy0wLjIzLDAtMC4yMywwLTAuMjMsMHMwLDAsMCwwLjIzYzAuNjUsMC44LDAuNjUsMC44LDAuNjUsMC44ICAgICBDMC42OSwyNi43NywwLDI3LjgsMCwyOC44YzcuOTYsMCw3Ljk2LDAsNy45NiwwQzcuOTYsMjcuOCw3LjA4LDI2Ljc3LDUuNzgsMjYuMTV6Ii8+JiN4YTsJCTwvZz4mI3hhOwkJPGcgaWQ9InNoYXBlMTItMjIiIHRyYW5zZm9ybT0idHJhbnNsYXRlKDI2LjMyMzIsLTExLjY0MTIpIj4mI3hhOwkJCTx0aXRsZSBpZD0idGl0bGUxMDkxMjQiPlNoZWV0LjEyPC90aXRsZT4mI3hhOwkJCTxwYXRoIGlkPSJwYXRoMTA5MTI2IiBpbmtzY2FwZTpjb25uZWN0b3ItY3VydmF0dXJlPSIwIiBzdHlsZT0iZmlsbDojM0Y1NzY1OyIgZD0iTTEuODQsMjQuMmMwLTAuNjktMC4yMy0wLjkyLTAuOTItMC45MiAgICAgYy0wLjIzLDAtMC40NiwwLTAuNDYsMC4yM0MwLjIzLDIzLjc0LDAsMjMuOTcsMCwyNC4yYzAsMy42OCwwLDMuNjgsMCwzLjY4YzAsMC40NiwwLjQ2LDAuOTIsMC45MiwwLjkyczAuNjksMCwwLjY5LTAuMjMgICAgIGMwLjIzLTAuMjMsMC4yMy0wLjQ2LDAuMjMtMC42OVYyNC4yeiIvPiYjeGE7CQk8L2c+JiN4YTsJCTxnIGlkPSJzaGFwZTEzLTI0IiB0cmFuc2Zvcm09InRyYW5zbGF0ZSgxOS41ODk0LC0xOC45OTM2KSI+JiN4YTsJCQk8dGl0bGUgaWQ9InRpdGxlMTA5MTI5Ij5TaGVldC4xMzwvdGl0bGU+JiN4YTsJCQk8cGF0aCBpZD0icGF0aDEwOTEzMSIgaW5rc2NhcGU6Y29ubmVjdG9yLWN1cnZhdHVyZT0iMCIgc3R5bGU9ImZpbGw6I0ZGRkZGRjsiIGQ9Ik0wLDI4LjQ5YzAtMC4xNSwwLjMxLTAuMzEsMC42MS0wLjMxICAgICBjMC4zNSwwLDAuNjEsMC4xNiwwLjYxLDAuMzFjMCwwLjE5LTAuMjYsMC4zMS0wLjYxLDAuMzFDMC4zMSwyOC44LDAsMjguNjgsMCwyOC40OXoiLz4mI3hhOwkJPC9nPiYjeGE7CQk8ZyBpZD0ic2hhcGUxNC0yNiIgdHJhbnNmb3JtPSJ0cmFuc2xhdGUoMjMuMjYyNCwtMTguOTkzNikiPiYjeGE7CQkJPHRpdGxlIGlkPSJ0aXRsZTEwOTEzNCI+U2hlZXQuMTQ8L3RpdGxlPiYjeGE7CQkJPHBhdGggaWQ9InBhdGgxMDkxMzYiIGlua3NjYXBlOmNvbm5lY3Rvci1jdXJ2YXR1cmU9IjAiIHN0eWxlPSJmaWxsOiNGRkZGRkY7IiBkPSJNMCwyOC40OWMwLTAuMTUsMC4xNS0wLjMxLDAuMzEtMC4zMSAgICAgYzAuMTksMCwwLjMsMC4xNiwwLjMsMC4zMWMwLDAuMTktMC4xMSwwLjMxLTAuMywwLjMxQzAuMTUsMjguOCwwLDI4LjY4LDAsMjguNDl6Ii8+JiN4YTsJCTwvZz4mI3hhOwk8L2c+JiN4YTs8L2c+JiN4YTs8L3N2Zz4=;" parent="1" vertex="1">
          <mxGeometry x="210" y="520" width="43" height="29" as="geometry" />
        </mxCell>
        <mxCell id="BIbaWBOUddNFx-qwVSOw-2087" value="" style="rounded=1;whiteSpace=wrap;html=1;dashed=1;strokeColor=none;strokeWidth=2;fillColor=#E6E6E6;fontFamily=Verdana;fontSize=12;fontColor=#FFFFFF;labelBorderColor=default;labelBackgroundColor=#009900;movable=0;resizable=0;rotatable=0;deletable=0;editable=0;locked=1;connectable=0;" parent="1" vertex="1">
          <mxGeometry x="-980" y="870" width="5490" height="2290" as="geometry" />
        </mxCell>
        <mxCell id="BIbaWBOUddNFx-qwVSOw-2156" value="" style="group" parent="1" vertex="1" connectable="0">
          <mxGeometry x="-898" y="1590" width="578" height="200" as="geometry" />
        </mxCell>
        <mxCell id="BIbaWBOUddNFx-qwVSOw-2148" value="" style="group" parent="BIbaWBOUddNFx-qwVSOw-2156" vertex="1" connectable="0">
          <mxGeometry width="471.5" height="200" as="geometry" />
        </mxCell>
        <mxCell id="BIbaWBOUddNFx-qwVSOw-2091" value="" style="group" parent="BIbaWBOUddNFx-qwVSOw-2148" vertex="1" connectable="0">
          <mxGeometry width="149.55" height="200" as="geometry" />
        </mxCell>
        <mxCell id="BIbaWBOUddNFx-qwVSOw-2085" value="" style="image;aspect=fixed;html=1;points=[];align=center;fontSize=12;image=img/lib/azure2/management_governance/My_Customers.svg;shadow=1;" parent="BIbaWBOUddNFx-qwVSOw-2091" vertex="1">
          <mxGeometry x="14" width="135.55" height="110" as="geometry" />
        </mxCell>
        <mxCell id="BIbaWBOUddNFx-qwVSOw-2089" value="Customer" style="text;html=1;strokeColor=none;fillColor=none;align=center;verticalAlign=middle;whiteSpace=wrap;rounded=0;fontStyle=1;fontSize=20;" parent="BIbaWBOUddNFx-qwVSOw-2091" vertex="1">
          <mxGeometry y="130" width="110" height="70" as="geometry" />
        </mxCell>
        <mxCell id="BIbaWBOUddNFx-qwVSOw-2092" value="" style="group" parent="BIbaWBOUddNFx-qwVSOw-2148" vertex="1" connectable="0">
          <mxGeometry x="361.5" y="8" width="110" height="164" as="geometry" />
        </mxCell>
        <mxCell id="BIbaWBOUddNFx-qwVSOw-2088" value="" style="image;aspect=fixed;html=1;points=[];align=center;fontSize=12;image=img/lib/azure2/general/Browser.svg;" parent="BIbaWBOUddNFx-qwVSOw-2092" vertex="1">
          <mxGeometry x="18.5" y="11" width="88.75" height="71" as="geometry" />
        </mxCell>
        <mxCell id="BIbaWBOUddNFx-qwVSOw-2090" value="Browser&lt;br&gt;MangoRx(Wordpress)" style="text;html=1;strokeColor=none;fillColor=none;align=center;verticalAlign=middle;whiteSpace=wrap;rounded=0;fontStyle=1;fontSize=20;" parent="BIbaWBOUddNFx-qwVSOw-2092" vertex="1">
          <mxGeometry y="94" width="110" height="70" as="geometry" />
        </mxCell>
        <mxCell id="BIbaWBOUddNFx-qwVSOw-2106" value="&lt;b&gt;&lt;font style=&quot;font-size: 40px;&quot;&gt;1&lt;/font&gt;&lt;/b&gt;" style="ellipse;whiteSpace=wrap;html=1;aspect=fixed;labelBackgroundColor=none;labelBorderColor=none;fillColor=#008a00;fontColor=#ffffff;strokeColor=#005700;" parent="BIbaWBOUddNFx-qwVSOw-2148" vertex="1">
          <mxGeometry x="212" y="10" width="40" height="40" as="geometry" />
        </mxCell>
        <mxCell id="BIbaWBOUddNFx-qwVSOw-2145" style="edgeStyle=orthogonalEdgeStyle;rounded=0;orthogonalLoop=1;jettySize=auto;html=1;startArrow=classic;startFill=1;" parent="BIbaWBOUddNFx-qwVSOw-2148" source="BIbaWBOUddNFx-qwVSOw-2085" target="BIbaWBOUddNFx-qwVSOw-2088" edge="1">
          <mxGeometry relative="1" as="geometry" />
        </mxCell>
        <mxCell id="BIbaWBOUddNFx-qwVSOw-2118" value="&lt;b&gt;&lt;font style=&quot;font-size: 40px;&quot;&gt;2&lt;/font&gt;&lt;/b&gt;" style="ellipse;whiteSpace=wrap;html=1;aspect=fixed;labelBackgroundColor=none;labelBorderColor=none;fillColor=#008a00;fontColor=#ffffff;strokeColor=#005700;" parent="BIbaWBOUddNFx-qwVSOw-2156" vertex="1">
          <mxGeometry x="538" y="8" width="40" height="40" as="geometry" />
        </mxCell>
        <mxCell id="BIbaWBOUddNFx-qwVSOw-2141" style="edgeStyle=orthogonalEdgeStyle;rounded=0;orthogonalLoop=1;jettySize=auto;html=1;entryX=0;entryY=0.5;entryDx=0;entryDy=0;endArrow=block;endFill=1;startArrow=block;startFill=1;" parent="1" source="BIbaWBOUddNFx-qwVSOw-2089" target="BIbaWBOUddNFx-qwVSOw-2138" edge="1">
          <mxGeometry relative="1" as="geometry">
            <Array as="points">
              <mxPoint x="-843" y="1924" />
            </Array>
          </mxGeometry>
        </mxCell>
        <mxCell id="BIbaWBOUddNFx-qwVSOw-2142" style="edgeStyle=orthogonalEdgeStyle;rounded=0;orthogonalLoop=1;jettySize=auto;html=1;exitX=0.25;exitY=1;exitDx=0;exitDy=0;entryX=0;entryY=0.5;entryDx=0;entryDy=0;startArrow=classic;startFill=1;" parent="1" source="BIbaWBOUddNFx-qwVSOw-2089" target="BIbaWBOUddNFx-qwVSOw-2139" edge="1">
          <mxGeometry relative="1" as="geometry" />
        </mxCell>
        <mxCell id="BIbaWBOUddNFx-qwVSOw-2155" style="edgeStyle=orthogonalEdgeStyle;rounded=0;orthogonalLoop=1;jettySize=auto;html=1;entryX=0.05;entryY=0.5;entryDx=0;entryDy=0;entryPerimeter=0;startArrow=classic;startFill=1;" parent="1" source="BIbaWBOUddNFx-qwVSOw-2088" target="BIbaWBOUddNFx-qwVSOw-2109" edge="1">
          <mxGeometry relative="1" as="geometry" />
        </mxCell>
        <mxCell id="BIbaWBOUddNFx-qwVSOw-2169" value="" style="rounded=1;whiteSpace=wrap;html=1;dashed=1;strokeColor=#009900;strokeWidth=2;fillColor=none;fontFamily=Verdana;fontSize=12;fontColor=#00BEF2;dashPattern=12 12;gradientColor=none;glass=1;" parent="1" vertex="1">
          <mxGeometry x="-950" y="1030" width="580" height="1350" as="geometry" />
        </mxCell>
        <mxCell id="BIbaWBOUddNFx-qwVSOw-2171" value="Client" style="whiteSpace=wrap;html=1;dashed=1;strokeWidth=2;fontFamily=Helvetica;fontSize=29;fontStyle=1;rounded=1;glass=1;shadow=1;strokeColor=none;fillColor=none;" parent="1" vertex="1">
          <mxGeometry x="-839" y="1033" width="440" height="60" as="geometry" />
        </mxCell>
        <mxCell id="BIbaWBOUddNFx-qwVSOw-2167" value="" style="group" parent="1" vertex="1" connectable="0">
          <mxGeometry x="-843" y="1860" width="431" height="304" as="geometry" />
        </mxCell>
        <mxCell id="BIbaWBOUddNFx-qwVSOw-2149" value="" style="group" parent="BIbaWBOUddNFx-qwVSOw-2167" vertex="1" connectable="0">
          <mxGeometry width="431" height="304" as="geometry" />
        </mxCell>
        <mxCell id="BIbaWBOUddNFx-qwVSOw-2138" value="" style="shape=image;html=1;verticalAlign=top;verticalLabelPosition=bottom;labelBackgroundColor=#ffffff;imageAspect=0;aspect=fixed;image=https://cdn3.iconfinder.com/data/icons/flat-office-icons-1/140/Artboard_1-13-128.png" parent="BIbaWBOUddNFx-qwVSOw-2149" vertex="1">
          <mxGeometry x="303" width="128" height="128" as="geometry" />
        </mxCell>
        <mxCell id="BIbaWBOUddNFx-qwVSOw-2139" value="" style="shape=image;html=1;verticalAlign=top;verticalLabelPosition=bottom;labelBackgroundColor=#ffffff;imageAspect=0;aspect=fixed;image=https://cdn4.iconfinder.com/data/icons/smart-phones-technologies/128/android-phone-color.png" parent="BIbaWBOUddNFx-qwVSOw-2149" vertex="1">
          <mxGeometry x="303" y="176" width="128" height="128" as="geometry" />
        </mxCell>
        <mxCell id="BIbaWBOUddNFx-qwVSOw-2184" value="&lt;b style=&quot;font-size: 25px;&quot;&gt;&lt;font style=&quot;font-size: 25px;&quot;&gt;1.1&lt;/font&gt;&lt;/b&gt;" style="ellipse;whiteSpace=wrap;html=1;aspect=fixed;labelBackgroundColor=none;labelBorderColor=none;fillColor=#008a00;fontColor=#ffffff;strokeColor=#005700;fontSize=25;" parent="BIbaWBOUddNFx-qwVSOw-2149" vertex="1">
          <mxGeometry x="103" y="188" width="40" height="40" as="geometry" />
        </mxCell>
        <mxCell id="BIbaWBOUddNFx-qwVSOw-2152" style="edgeStyle=orthogonalEdgeStyle;rounded=0;orthogonalLoop=1;jettySize=auto;html=1;exitX=1;exitY=0.5;exitDx=0;exitDy=0;entryX=0.05;entryY=0.5;entryDx=0;entryDy=0;entryPerimeter=0;startArrow=classic;startFill=1;" parent="1" source="BIbaWBOUddNFx-qwVSOw-2138" target="BIbaWBOUddNFx-qwVSOw-2174" edge="1">
          <mxGeometry relative="1" as="geometry" />
        </mxCell>
        <mxCell id="BIbaWBOUddNFx-qwVSOw-2153" style="edgeStyle=orthogonalEdgeStyle;rounded=0;orthogonalLoop=1;jettySize=auto;html=1;startArrow=classic;startFill=1;" parent="1" source="BIbaWBOUddNFx-qwVSOw-2139" target="BIbaWBOUddNFx-qwVSOw-2174" edge="1">
          <mxGeometry relative="1" as="geometry">
            <mxPoint x="235" y="1990" as="targetPoint" />
          </mxGeometry>
        </mxCell>
        <mxCell id="BIbaWBOUddNFx-qwVSOw-2179" value="" style="group" parent="1" vertex="1" connectable="0">
          <mxGeometry x="-263" y="1858" width="227" height="182" as="geometry" />
        </mxCell>
        <mxCell id="BIbaWBOUddNFx-qwVSOw-2174" value="" style="verticalLabelPosition=bottom;html=1;verticalAlign=top;align=center;strokeColor=none;fillColor=#FF8000;shape=mxgraph.azure.cloud;" parent="BIbaWBOUddNFx-qwVSOw-2179" vertex="1">
          <mxGeometry x="30" width="197" height="132" as="geometry" />
        </mxCell>
        <mxCell id="BIbaWBOUddNFx-qwVSOw-2175" value="Cloudflare&amp;nbsp;" style="text;html=1;strokeColor=none;fillColor=none;align=center;verticalAlign=middle;whiteSpace=wrap;rounded=0;fontStyle=1;fontSize=20;" parent="BIbaWBOUddNFx-qwVSOw-2179" vertex="1">
          <mxGeometry y="112" width="150" height="70" as="geometry" />
        </mxCell>
        <mxCell id="BIbaWBOUddNFx-qwVSOw-2183" value="&lt;b style=&quot;font-size: 25px;&quot;&gt;&lt;font style=&quot;font-size: 25px;&quot;&gt;1.1&lt;/font&gt;&lt;/b&gt;" style="ellipse;whiteSpace=wrap;html=1;aspect=fixed;labelBackgroundColor=none;labelBorderColor=none;fillColor=#008a00;fontColor=#ffffff;strokeColor=#005700;fontSize=25;" parent="1" vertex="1">
          <mxGeometry x="-730" y="1880" width="40" height="40" as="geometry" />
        </mxCell>
        <mxCell id="BIbaWBOUddNFx-qwVSOw-2185" value="&lt;b style=&quot;font-size: 25px;&quot;&gt;&lt;font style=&quot;font-size: 25px;&quot;&gt;1.2&lt;/font&gt;&lt;/b&gt;" style="ellipse;whiteSpace=wrap;html=1;aspect=fixed;labelBackgroundColor=none;labelBorderColor=none;fillColor=#008a00;fontColor=#ffffff;strokeColor=#005700;fontSize=25;" parent="1" vertex="1">
          <mxGeometry x="-360" y="2058" width="40" height="40" as="geometry" />
        </mxCell>
        <mxCell id="BIbaWBOUddNFx-qwVSOw-2186" value="&lt;b style=&quot;font-size: 25px;&quot;&gt;&lt;font style=&quot;font-size: 25px;&quot;&gt;1.2&lt;/font&gt;&lt;/b&gt;" style="ellipse;whiteSpace=wrap;html=1;aspect=fixed;labelBackgroundColor=none;labelBorderColor=none;fillColor=#008a00;fontColor=#ffffff;strokeColor=#005700;fontSize=25;" parent="1" vertex="1">
          <mxGeometry x="-360" y="1883" width="40" height="40" as="geometry" />
        </mxCell>
        <mxCell id="BIbaWBOUddNFx-qwVSOw-2191" value="" style="image;aspect=fixed;html=1;points=[];align=center;fontSize=12;image=img/lib/azure2/networking/Application_Gateways.svg;" parent="1" vertex="1">
          <mxGeometry x="-250" y="2150" width="130" height="130" as="geometry" />
        </mxCell>
        <mxCell id="BIbaWBOUddNFx-qwVSOw-2199" value="" style="group" parent="1" vertex="1" connectable="0">
          <mxGeometry x="-279" y="1161" width="679" height="629" as="geometry" />
        </mxCell>
        <mxCell id="BIbaWBOUddNFx-qwVSOw-2166" value="" style="group" parent="BIbaWBOUddNFx-qwVSOw-2199" vertex="1" connectable="0">
          <mxGeometry width="219" height="629" as="geometry" />
        </mxCell>
        <mxCell id="BIbaWBOUddNFx-qwVSOw-2159" value="" style="group" parent="BIbaWBOUddNFx-qwVSOw-2166" vertex="1" connectable="0">
          <mxGeometry y="418" width="219" height="211" as="geometry" />
        </mxCell>
        <mxCell id="BIbaWBOUddNFx-qwVSOw-2123" value="Cloudflare&amp;nbsp;" style="text;html=1;strokeColor=none;fillColor=none;align=center;verticalAlign=middle;whiteSpace=wrap;rounded=0;fontStyle=1;fontSize=20;" parent="BIbaWBOUddNFx-qwVSOw-2159" vertex="1">
          <mxGeometry y="141" width="150" height="70" as="geometry" />
        </mxCell>
        <mxCell id="BIbaWBOUddNFx-qwVSOw-2109" value="" style="verticalLabelPosition=bottom;html=1;verticalAlign=top;align=center;strokeColor=none;fillColor=#F28430;shape=mxgraph.azure.cloud;" parent="BIbaWBOUddNFx-qwVSOw-2159" vertex="1">
          <mxGeometry x="29" width="190" height="130" as="geometry" />
        </mxCell>
        <mxCell id="BIbaWBOUddNFx-qwVSOw-2165" value="" style="group" parent="BIbaWBOUddNFx-qwVSOw-2166" vertex="1" connectable="0">
          <mxGeometry x="10" width="205" height="399" as="geometry" />
        </mxCell>
        <mxCell id="BIbaWBOUddNFx-qwVSOw-2136" value="" style="group" parent="BIbaWBOUddNFx-qwVSOw-2165" vertex="1" connectable="0">
          <mxGeometry x="74" width="131" height="180" as="geometry" />
        </mxCell>
        <mxCell id="BIbaWBOUddNFx-qwVSOw-2137" value="" style="group" parent="BIbaWBOUddNFx-qwVSOw-2136" vertex="1" connectable="0">
          <mxGeometry y="13" width="131" height="176" as="geometry" />
        </mxCell>
        <mxCell id="BIbaWBOUddNFx-qwVSOw-2163" value="" style="group" parent="BIbaWBOUddNFx-qwVSOw-2137" vertex="1" connectable="0">
          <mxGeometry x="-62" width="193" height="176" as="geometry" />
        </mxCell>
        <mxCell id="BIbaWBOUddNFx-qwVSOw-2135" value="&lt;b&gt;&lt;font style=&quot;font-size: 40px;&quot;&gt;4&lt;/font&gt;&lt;/b&gt;" style="ellipse;whiteSpace=wrap;html=1;aspect=fixed;labelBackgroundColor=none;labelBorderColor=none;fillColor=#008a00;fontColor=#ffffff;strokeColor=#005700;" parent="BIbaWBOUddNFx-qwVSOw-2163" vertex="1">
          <mxGeometry x="132" y="144" width="32" height="32" as="geometry" />
        </mxCell>
        <mxCell id="BIbaWBOUddNFx-qwVSOw-2162" value="" style="group" parent="BIbaWBOUddNFx-qwVSOw-2163" vertex="1" connectable="0">
          <mxGeometry width="193" height="157.8" as="geometry" />
        </mxCell>
        <mxCell id="BIbaWBOUddNFx-qwVSOw-2133" value="" style="image;aspect=fixed;html=1;points=[];align=center;fontSize=12;image=img/lib/azure2/general/Blob_Page.svg;" parent="BIbaWBOUddNFx-qwVSOw-2162" vertex="1">
          <mxGeometry x="62" width="131" height="104.8" as="geometry" />
        </mxCell>
        <mxCell id="BIbaWBOUddNFx-qwVSOw-2161" value="Blob &lt;br&gt;Storage" style="text;html=1;strokeColor=none;fillColor=none;align=center;verticalAlign=middle;whiteSpace=wrap;rounded=0;fontStyle=1;fontSize=20;" parent="BIbaWBOUddNFx-qwVSOw-2162" vertex="1">
          <mxGeometry y="107.8" width="170" height="50" as="geometry" />
        </mxCell>
        <mxCell id="BIbaWBOUddNFx-qwVSOw-2164" value="" style="group" parent="BIbaWBOUddNFx-qwVSOw-2165" vertex="1" connectable="0">
          <mxGeometry y="229" width="198.46" height="170" as="geometry" />
        </mxCell>
        <mxCell id="BIbaWBOUddNFx-qwVSOw-2126" value="" style="image;aspect=fixed;html=1;points=[];align=center;fontSize=12;image=img/lib/azure2/compute/Cloud_Services_Classic.svg;" parent="BIbaWBOUddNFx-qwVSOw-2164" vertex="1">
          <mxGeometry x="60" width="138.46" height="100" as="geometry" />
        </mxCell>
        <mxCell id="BIbaWBOUddNFx-qwVSOw-2128" value="Azure&amp;nbsp;&lt;br&gt;CDN" style="text;html=1;strokeColor=none;fillColor=none;align=center;verticalAlign=middle;whiteSpace=wrap;rounded=0;fontStyle=1;fontSize=20;" parent="BIbaWBOUddNFx-qwVSOw-2164" vertex="1">
          <mxGeometry y="92" width="170" height="50" as="geometry" />
        </mxCell>
        <mxCell id="BIbaWBOUddNFx-qwVSOw-2129" value="&lt;b&gt;&lt;font style=&quot;font-size: 40px;&quot;&gt;3&lt;/font&gt;&lt;/b&gt;" style="ellipse;whiteSpace=wrap;html=1;aspect=fixed;labelBackgroundColor=none;labelBorderColor=none;fillColor=#008a00;fontColor=#ffffff;strokeColor=#005700;" parent="BIbaWBOUddNFx-qwVSOw-2164" vertex="1">
          <mxGeometry x="139" y="130" width="40" height="40" as="geometry" />
        </mxCell>
        <mxCell id="BIbaWBOUddNFx-qwVSOw-2160" style="edgeStyle=orthogonalEdgeStyle;rounded=0;orthogonalLoop=1;jettySize=auto;html=1;entryX=0.571;entryY=0;entryDx=0;entryDy=0;entryPerimeter=0;startArrow=classic;startFill=1;" parent="BIbaWBOUddNFx-qwVSOw-2165" source="BIbaWBOUddNFx-qwVSOw-2133" target="BIbaWBOUddNFx-qwVSOw-2126" edge="1">
          <mxGeometry relative="1" as="geometry" />
        </mxCell>
        <mxCell id="BIbaWBOUddNFx-qwVSOw-2158" style="edgeStyle=orthogonalEdgeStyle;rounded=0;orthogonalLoop=1;jettySize=auto;html=1;exitX=0.58;exitY=0.05;exitDx=0;exitDy=0;exitPerimeter=0;startArrow=classic;startFill=1;" parent="BIbaWBOUddNFx-qwVSOw-2166" source="BIbaWBOUddNFx-qwVSOw-2109" target="BIbaWBOUddNFx-qwVSOw-2126" edge="1">
          <mxGeometry relative="1" as="geometry" />
        </mxCell>
        <mxCell id="BIbaWBOUddNFx-qwVSOw-2189" style="edgeStyle=orthogonalEdgeStyle;rounded=0;orthogonalLoop=1;jettySize=auto;html=1;exitX=0.89;exitY=0.5;exitDx=0;exitDy=0;exitPerimeter=0;startArrow=classic;startFill=1;" parent="BIbaWBOUddNFx-qwVSOw-2199" source="BIbaWBOUddNFx-qwVSOw-2109" target="BIbaWBOUddNFx-qwVSOw-2187" edge="1">
          <mxGeometry relative="1" as="geometry" />
        </mxCell>
        <mxCell id="BIbaWBOUddNFx-qwVSOw-2181" value="&lt;b&gt;&lt;font style=&quot;font-size: 40px;&quot;&gt;5&lt;/font&gt;&lt;/b&gt;" style="ellipse;whiteSpace=wrap;html=1;aspect=fixed;labelBackgroundColor=none;labelBorderColor=none;fillColor=#008a00;fontColor=#ffffff;strokeColor=#005700;" parent="BIbaWBOUddNFx-qwVSOw-2199" vertex="1">
          <mxGeometry x="239" y="490" width="40" height="40" as="geometry" />
        </mxCell>
        <mxCell id="BIbaWBOUddNFx-qwVSOw-2193" value="" style="group" parent="BIbaWBOUddNFx-qwVSOw-2199" vertex="1" connectable="0">
          <mxGeometry x="585" y="419" width="130" height="130" as="geometry" />
        </mxCell>
        <mxCell id="BIbaWBOUddNFx-qwVSOw-2187" value="" style="image;aspect=fixed;html=1;points=[];align=center;fontSize=12;image=img/lib/azure2/networking/Application_Gateways.svg;" parent="BIbaWBOUddNFx-qwVSOw-2193" vertex="1">
          <mxGeometry width="130" height="130" as="geometry" />
        </mxCell>
        <mxCell id="BIbaWBOUddNFx-qwVSOw-2196" value="&lt;b&gt;&lt;font style=&quot;font-size: 40px;&quot;&gt;6&lt;/font&gt;&lt;/b&gt;" style="ellipse;whiteSpace=wrap;html=1;aspect=fixed;labelBackgroundColor=none;labelBorderColor=none;fillColor=#008a00;fontColor=#ffffff;strokeColor=#005700;" parent="BIbaWBOUddNFx-qwVSOw-2199" vertex="1">
          <mxGeometry x="589" y="294.5" width="40" height="40" as="geometry" />
        </mxCell>
        <mxCell id="BIbaWBOUddNFx-qwVSOw-2192" style="edgeStyle=orthogonalEdgeStyle;rounded=0;orthogonalLoop=1;jettySize=auto;html=1;startArrow=classic;startFill=1;entryX=0.5;entryY=1;entryDx=0;entryDy=0;" parent="1" source="BIbaWBOUddNFx-qwVSOw-2187" target="BIbaWBOUddNFx-qwVSOw-2202" edge="1">
          <mxGeometry relative="1" as="geometry" />
        </mxCell>
        <mxCell id="BIbaWBOUddNFx-qwVSOw-2201" style="edgeStyle=orthogonalEdgeStyle;rounded=0;orthogonalLoop=1;jettySize=auto;html=1;entryX=0.473;entryY=0.985;entryDx=0;entryDy=0;entryPerimeter=0;startArrow=classic;startFill=1;" parent="1" source="BIbaWBOUddNFx-qwVSOw-2174" target="BIbaWBOUddNFx-qwVSOw-2187" edge="1">
          <mxGeometry relative="1" as="geometry" />
        </mxCell>
        <mxCell id="BIbaWBOUddNFx-qwVSOw-2202" value="" style="rounded=1;whiteSpace=wrap;html=1;dashed=1;strokeColor=#009900;strokeWidth=2;fillColor=none;fontFamily=Verdana;fontSize=12;fontColor=#00BEF2;dashPattern=12 12;gradientColor=none;glass=1;movable=1;resizable=1;rotatable=1;deletable=1;editable=1;locked=0;connectable=1;" parent="1" vertex="1">
          <mxGeometry x="121" y="1190" width="498" height="247.25" as="geometry" />
        </mxCell>
        <mxCell id="BIbaWBOUddNFx-qwVSOw-2200" value="" style="group" parent="1" vertex="1" connectable="0">
          <mxGeometry x="116" y="1250" width="304" height="171" as="geometry" />
        </mxCell>
        <mxCell id="BIbaWBOUddNFx-qwVSOw-2227" value="" style="group" parent="BIbaWBOUddNFx-qwVSOw-2200" vertex="1" connectable="0">
          <mxGeometry x="73.25" width="150" height="161" as="geometry" />
        </mxCell>
        <mxCell id="BIbaWBOUddNFx-qwVSOw-2178" value="E-Commerce&lt;br&gt;(mangorx.com)" style="text;html=1;strokeColor=none;fillColor=none;align=center;verticalAlign=middle;whiteSpace=wrap;rounded=0;fontStyle=1;fontSize=20;" parent="BIbaWBOUddNFx-qwVSOw-2227" vertex="1">
          <mxGeometry y="91" width="150" height="70" as="geometry" />
        </mxCell>
        <mxCell id="BIbaWBOUddNFx-qwVSOw-2172" value="" style="shape=image;verticalLabelPosition=bottom;labelBackgroundColor=#ffffff;verticalAlign=top;aspect=fixed;imageAspect=0;image=data:image/svg+xml,PHN2ZyB4bWxuczpkYz0iaHR0cDovL3B1cmwub3JnL2RjL2VsZW1lbnRzLzEuMS8iIHhtbG5zOmNjPSJodHRwOi8vY3JlYXRpdmVjb21tb25zLm9yZy9ucyMiIHhtbG5zOnJkZj0iaHR0cDovL3d3dy53My5vcmcvMTk5OS8wMi8yMi1yZGYtc3ludGF4LW5zIyIgeG1sbnM6c3ZnPSJodHRwOi8vd3d3LnczLm9yZy8yMDAwL3N2ZyIgeG1sbnM9Imh0dHA6Ly93d3cudzMub3JnLzIwMDAvc3ZnIiB4bWxuczpzb2RpcG9kaT0iaHR0cDovL3NvZGlwb2RpLnNvdXJjZWZvcmdlLm5ldC9EVEQvc29kaXBvZGktMC5kdGQiIHhtbG5zOmlua3NjYXBlPSJodHRwOi8vd3d3Lmlua3NjYXBlLm9yZy9uYW1lc3BhY2VzL2lua3NjYXBlIiB2ZXJzaW9uPSIxLjEiIGlkPSJzdmcxMTEyNyIgaW5rc2NhcGU6dmVyc2lvbj0iMC45Mi4zICgyNDA1NTQ2LCAyMDE4LTAzLTExKSIgc29kaXBvZGk6ZG9jbmFtZT0id2ViX2FwcHMuc3ZnIiB4PSIwcHgiIHk9IjBweCIgdmlld0JveD0iMCAwIDUxLjAyOTMxNiA1MS4wMTk5OTkiIHhtbDpzcGFjZT0icHJlc2VydmUiIHdpZHRoPSI1MS4wMjkzMTYiIGhlaWdodD0iNTEuMDIiPjxtZXRhZGF0YSBpZD0ibWV0YWRhdGExMjM5MiI+PHJkZjpSREY+PGNjOldvcmsgcmRmOmFib3V0PSIiPjxkYzpmb3JtYXQ+aW1hZ2Uvc3ZnK3htbDwvZGM6Zm9ybWF0PjxkYzp0eXBlIHJkZjpyZXNvdXJjZT0iaHR0cDovL3B1cmwub3JnL2RjL2RjbWl0eXBlL1N0aWxsSW1hZ2UiLz48ZGM6dGl0bGUvPjwvY2M6V29yaz48L3JkZjpSREY+PC9tZXRhZGF0YT48ZGVmcyBpZD0iZGVmczEyMzkwIj4mI3hhOwkmI3hhOwkmI3hhOyYjeGE7CQkmI3hhOwkJJiN4YTsJCSYjeGE7CSYjeGE7CQkJJiN4YTsJCQkmI3hhOwkJCSYjeGE7CQkmI3hhOwkJCSYjeGE7CQkJJiN4YTsJCQkmI3hhOwkJJiN4YTsJCQkJJiN4YTsJCQkmI3hhOwkJCQkmI3hhOwkJCSYjeGE7CQkJCQkmI3hhOwkJCQkmI3hhOwkJCQkJJiN4YTsJCQkJPC9kZWZzPiYjeGE7PGZpbHRlciBpZD0iZmlsdGVyXzIiPiYjeGE7CTxmZUdhdXNzaWFuQmx1ciBpZD0iZmVHYXVzc2lhbkJsdXIxMTEwMCIgc3RkRGV2aWF0aW9uPSIyIi8+JiN4YTs8L2ZpbHRlcj4mI3hhOzxzb2RpcG9kaTpuYW1lZHZpZXcgYm9yZGVyY29sb3I9IiM2NjY2NjYiIGJvcmRlcm9wYWNpdHk9IjEiIGZpdC1tYXJnaW4tYm90dG9tPSIwIiBmaXQtbWFyZ2luLWxlZnQ9IjAiIGZpdC1tYXJnaW4tcmlnaHQ9IjAiIGZpdC1tYXJnaW4tdG9wPSIwIiBncmlkdG9sZXJhbmNlPSIxMCIgZ3VpZGV0b2xlcmFuY2U9IjEwIiBpZD0ibmFtZWR2aWV3MTExMjkiIGlua3NjYXBlOmN1cnJlbnQtbGF5ZXI9InN2ZzExMTI3IiBpbmtzY2FwZTpjeD0iMzQuNTc5OTYxIiBpbmtzY2FwZTpjeT0iMzMuNzcwNzQ2IiBpbmtzY2FwZTpwYWdlb3BhY2l0eT0iMCIgaW5rc2NhcGU6cGFnZXNoYWRvdz0iMiIgaW5rc2NhcGU6d2luZG93LWhlaWdodD0iMTAxNyIgaW5rc2NhcGU6d2luZG93LW1heGltaXplZD0iMSIgaW5rc2NhcGU6d2luZG93LXdpZHRoPSIxOTIwIiBpbmtzY2FwZTp3aW5kb3cteD0iLTgiIGlua3NjYXBlOndpbmRvdy15PSItOCIgaW5rc2NhcGU6em9vbT0iOC42MTMxNjY5IiBvYmplY3R0b2xlcmFuY2U9IjEwIiBwYWdlY29sb3I9IiNmZmZmZmYiIHNob3dncmlkPSJmYWxzZSI+JiN4YTsJPC9zb2RpcG9kaTpuYW1lZHZpZXc+JiN4YTs8cGF0aCBkPSJtIDQxLjAxNDUyNiw0NS43NiBjIC00LjYyLDMuNTMgLTEwLjA3LDUuMjYgLTE1LjQ3LDUuMjYgLTcuNjgsMCAtMTUuMjcsLTMuNDUgLTIwLjI3OTk5OTYsLTEwLjAxIEMgLTMuMzA1NDc0LDI5LjgyIC0xLjE5NTQ3NCwxMy44MyAxMC4wMTQ1MjYsNS4yNSBjIDQuNjIsLTMuNTUgMTAuMDgsLTUuMjUgMTUuNDgsLTUuMjUgNy42NywwIDE1LjI2LDMuNDUgMjAuMjgsMTAuMDEgOC41NywxMS4xOCA2LjQzLDI3LjE5IC00Ljc2LDM1Ljc1IHoiIHN0eWxlPSJmaWxsOiM1OWI0ZDkiIGlua3NjYXBlOmNvbm5lY3Rvci1jdXJ2YXR1cmU9IjAiIGlkPSJwYXRoMTExMTMiLz48cGF0aCBkPSJtIDM2LjMzMTI3NiwyOS45ODI5NyBjIDEuODUsMi40MSA1LjI5LDIuODUgNy43LDEuMDIgMC4xMiwtMC4wOSAwLjIyLC0wLjIxIDAuMzMsLTAuMzEgMi40NiwxLjczIDQuMTcsMi44NyA1LjEzLDMuNTMgMC4yOCwtMC43NCAwLjQ4LC0xLjQ1IDAuNjgsLTIuMTkgLTEuMDEsLTAuNzYgLTIuMzksLTEuODEgLTQuMzcsLTMuNDIgMC42NSwtMS43MiAwLjQ0LC0zLjcyIC0wLjc1LC01LjI4IC0xLjcsLTIuMjEgLTQuNzIsLTIuNzcgLTcuMDgsLTEuNDEgLTIuNiwtMi4zMyAtNS40NSwtNSAtOC40NiwtNy45OSA5LjM1LC01LjAzIDE2LC00LjI5IDE2LC00LjI5IC0xLjExLC0xLjQyIC0yLjM2LC0yLjY2IC0zLjY4LC0zLjc4IC0zLjk1LC0wLjYxIC0xMC4wNywtMC41NCAtMTcuMDcsMy4xOSBsIC0wLjAxLC0wLjAxIHYgMCBjIC0yLjMzLC0yLjQ0IC00LjcxLC01LjA2IC03LjEyLC03Ljg3IC0xLjE2LDAuMzcgLTIuMjksMC44MyAtMy4zOCwxLjM4IDEuNzgsMi45MiA0LjE4LDUuODcgNi44OSw4Ljc0IDAsMC4wMSAwLjAxLDAuMDEgMC4wMiwwLjAyIC0yLjI2LDEuNTcgLTQuNzcsMy42OCAtNy4wOSw2LjEzIC0wLjMsMC4zMiAtMC41OCwwLjY0IC0wLjg2LDAuOTUgLTEuMzgsLTAuMjkgLTIuODQsLTAuMiAtNC4xOTk5OTk2LDAuMjkgLTIuMzEsLTQuOTggLTIuMTMsLTguOTkgLTEuNzYsLTExLjA1IC0xLDEuMDUgLTEuOTQsMi4xNSAtMi43NTAwMDA0LDMuMzMgLTAuNiwyLjQ3IC0wLjc3LDYuMDIgMS4wMTAwMDA0LDEwLjMgLTIuMDYwMDAwNCwyLjcgLTIuMTYwMDAwNCw2LjUyIC0wLjAxLDkuMzUgMC4xOCwwLjIzIDAuMzcsMC40NSAwLjU3LDAuNjUgLTAuOTQwMDAwNCwzLjIgLTEuMzYwMDAwNCw2LjI5IC0xLjQ5MDAwMDQsOC45NCAwLjI0LDAuMzMgMC4yNCwwLjYgMC40OCwwLjkyIDEuMjMwMDAwNCwxLjU3IDIuNzYwMDAwNCwyLjg5IDQuMjUwMDAwNCw0LjA5IC0wLjE4LC0yLjgxIDAuMDEsLTYuOTUgMS43NDk5OTk2LC0xMS42MSAxLjIsMC4wOSAyLjQxLC0wLjA5IDMuNTUsLTAuNTcgMC42NiwwLjU3IDEuMzQsMS4xNSAyLjA3LDEuNzQgMi41LDEuOTggNSwzLjUzIDcuNDMsNC43NCAtMC4xMiwxLjI0IDAuMTksMi41MiAwLjk5LDMuNTkgMS43MiwyLjIyIDQuOTEsMi42NCA3LjEzLDAuOTQgMC40NiwtMC4zNiAwLjgzLC0wLjc4IDEuMTMsLTEuMjQgMy45NywwLjg4IDcuNDQsMS4wNCAxMC4wMSwxLjA0IDAuMzksMCAyLjIyLC0yLjQ5IDMuMjYsLTQuMDMgLTEuNTYsMC4zMyAtNi4yLDAuOTcgLTEyLjU1LC0wLjg2IC0wLjE1LC0wLjcxIC0wLjQ0LC0xLjQgLTAuOTEsLTIuMDIgLTEuNjIsLTIuMTEgLTQuNTYsLTIuNTcgLTYuNzYsLTEuMTUgLTIuMiwtMS4yIC00LjUxLC0yLjcgLTYuODksLTQuNTkgLTAuNDgsLTAuMzggLTAuOTUsLTAuNzYgLTEuMzksLTEuMTQgMS40NSwtMi4yOSAxLjYxLC01LjIzIDAuMzIsLTcuNyAwLjMsLTAuMjkgMC41OCwtMC41OSAwLjg5LC0wLjg4IDIuMzYsLTIuMiA0LjU4LC0zLjk2IDYuNjYsLTUuMzggLTAuMDksLTAuMDggLTAuMTYsLTAuMTYgLTAuMjUsLTAuMjQgMC4wOSwwLjA4IDAuMTYsMC4xNiAwLjI1LDAuMjQgdiAwIGMgMy4xOCwyLjk0IDYuNTYsNS43MyA5Ljc2LDguMjMgLTAuODUsMS43OSAtMC43MiwzLjk4IDAuNTcsNS42NiB6IiBzdHlsZT0iZmlsbDojZmZmZmZmIiBpbmtzY2FwZTpjb25uZWN0b3ItY3VydmF0dXJlPSIwIiBpZD0icGF0aDExMTIxIi8+JiN4YTs8L3N2Zz4=;" parent="BIbaWBOUddNFx-qwVSOw-2227" vertex="1">
          <mxGeometry x="18.75" width="90" height="90" as="geometry" />
        </mxCell>
        <mxCell id="BIbaWBOUddNFx-qwVSOw-2203" value="" style="image;sketch=0;aspect=fixed;html=1;points=[];align=center;fontSize=12;image=img/lib/mscae/Azure_Firewall.svg;" parent="BIbaWBOUddNFx-qwVSOw-2200" vertex="1">
          <mxGeometry x="286" y="-9" width="110" height="110" as="geometry" />
        </mxCell>
        <mxCell id="BIbaWBOUddNFx-qwVSOw-2211" value="Azure FireWall" style="text;html=1;strokeColor=none;fillColor=none;align=center;verticalAlign=middle;whiteSpace=wrap;rounded=0;fontStyle=1;fontSize=20;" parent="BIbaWBOUddNFx-qwVSOw-2200" vertex="1">
          <mxGeometry x="266" y="91" width="150" height="70" as="geometry" />
        </mxCell>
        <mxCell id="BIbaWBOUddNFx-qwVSOw-2235" value="" style="rounded=1;whiteSpace=wrap;html=1;dashed=1;strokeColor=#009900;strokeWidth=2;fillColor=none;fontFamily=Verdana;fontSize=12;fontColor=#00BEF2;dashPattern=12 12;gradientColor=none;glass=1;" parent="1" vertex="1">
          <mxGeometry x="900" y="2290" width="528" height="250" as="geometry" />
        </mxCell>
        <mxCell id="BIbaWBOUddNFx-qwVSOw-2236" value="" style="group" parent="1" vertex="1" connectable="0">
          <mxGeometry x="1210" y="2310" width="150" height="180" as="geometry" />
        </mxCell>
        <mxCell id="BIbaWBOUddNFx-qwVSOw-2237" value="" style="image;sketch=0;aspect=fixed;html=1;points=[];align=center;fontSize=12;image=img/lib/mscae/Azure_Firewall.svg;" parent="BIbaWBOUddNFx-qwVSOw-2236" vertex="1">
          <mxGeometry x="20" width="110" height="110" as="geometry" />
        </mxCell>
        <mxCell id="BIbaWBOUddNFx-qwVSOw-2238" value="Azure FireWall" style="text;html=1;strokeColor=none;fillColor=none;align=center;verticalAlign=middle;whiteSpace=wrap;rounded=0;fontStyle=1;fontSize=20;" parent="BIbaWBOUddNFx-qwVSOw-2236" vertex="1">
          <mxGeometry y="110" width="150" height="70" as="geometry" />
        </mxCell>
        <mxCell id="BIbaWBOUddNFx-qwVSOw-2239" value="" style="group" parent="1" vertex="1" connectable="0">
          <mxGeometry x="940" y="2338" width="160" height="161" as="geometry" />
        </mxCell>
        <mxCell id="BIbaWBOUddNFx-qwVSOw-2240" value="" style="shape=image;verticalLabelPosition=bottom;labelBackgroundColor=#ffffff;verticalAlign=top;aspect=fixed;imageAspect=0;image=data:image/svg+xml,PHN2ZyB4bWxuczpkYz0iaHR0cDovL3B1cmwub3JnL2RjL2VsZW1lbnRzLzEuMS8iIHhtbG5zOmNjPSJodHRwOi8vY3JlYXRpdmVjb21tb25zLm9yZy9ucyMiIHhtbG5zOnJkZj0iaHR0cDovL3d3dy53My5vcmcvMTk5OS8wMi8yMi1yZGYtc3ludGF4LW5zIyIgeG1sbnM6c3ZnPSJodHRwOi8vd3d3LnczLm9yZy8yMDAwL3N2ZyIgeG1sbnM9Imh0dHA6Ly93d3cudzMub3JnLzIwMDAvc3ZnIiB4bWxuczpzb2RpcG9kaT0iaHR0cDovL3NvZGlwb2RpLnNvdXJjZWZvcmdlLm5ldC9EVEQvc29kaXBvZGktMC5kdGQiIHhtbG5zOmlua3NjYXBlPSJodHRwOi8vd3d3Lmlua3NjYXBlLm9yZy9uYW1lc3BhY2VzL2lua3NjYXBlIiB2ZXJzaW9uPSIxLjEiIGlkPSJzdmcxMTEyNyIgaW5rc2NhcGU6dmVyc2lvbj0iMC45Mi4zICgyNDA1NTQ2LCAyMDE4LTAzLTExKSIgc29kaXBvZGk6ZG9jbmFtZT0id2ViX2FwcHMuc3ZnIiB4PSIwcHgiIHk9IjBweCIgdmlld0JveD0iMCAwIDUxLjAyOTMxNiA1MS4wMTk5OTkiIHhtbDpzcGFjZT0icHJlc2VydmUiIHdpZHRoPSI1MS4wMjkzMTYiIGhlaWdodD0iNTEuMDIiPjxtZXRhZGF0YSBpZD0ibWV0YWRhdGExMjM5MiI+PHJkZjpSREY+PGNjOldvcmsgcmRmOmFib3V0PSIiPjxkYzpmb3JtYXQ+aW1hZ2Uvc3ZnK3htbDwvZGM6Zm9ybWF0PjxkYzp0eXBlIHJkZjpyZXNvdXJjZT0iaHR0cDovL3B1cmwub3JnL2RjL2RjbWl0eXBlL1N0aWxsSW1hZ2UiLz48ZGM6dGl0bGUvPjwvY2M6V29yaz48L3JkZjpSREY+PC9tZXRhZGF0YT48ZGVmcyBpZD0iZGVmczEyMzkwIj4mI3hhOwkmI3hhOwkmI3hhOyYjeGE7CQkmI3hhOwkJJiN4YTsJCSYjeGE7CSYjeGE7CQkJJiN4YTsJCQkmI3hhOwkJCSYjeGE7CQkmI3hhOwkJCSYjeGE7CQkJJiN4YTsJCQkmI3hhOwkJJiN4YTsJCQkJJiN4YTsJCQkmI3hhOwkJCQkmI3hhOwkJCSYjeGE7CQkJCQkmI3hhOwkJCQkmI3hhOwkJCQkJJiN4YTsJCQkJPC9kZWZzPiYjeGE7PGZpbHRlciBpZD0iZmlsdGVyXzIiPiYjeGE7CTxmZUdhdXNzaWFuQmx1ciBpZD0iZmVHYXVzc2lhbkJsdXIxMTEwMCIgc3RkRGV2aWF0aW9uPSIyIi8+JiN4YTs8L2ZpbHRlcj4mI3hhOzxzb2RpcG9kaTpuYW1lZHZpZXcgYm9yZGVyY29sb3I9IiM2NjY2NjYiIGJvcmRlcm9wYWNpdHk9IjEiIGZpdC1tYXJnaW4tYm90dG9tPSIwIiBmaXQtbWFyZ2luLWxlZnQ9IjAiIGZpdC1tYXJnaW4tcmlnaHQ9IjAiIGZpdC1tYXJnaW4tdG9wPSIwIiBncmlkdG9sZXJhbmNlPSIxMCIgZ3VpZGV0b2xlcmFuY2U9IjEwIiBpZD0ibmFtZWR2aWV3MTExMjkiIGlua3NjYXBlOmN1cnJlbnQtbGF5ZXI9InN2ZzExMTI3IiBpbmtzY2FwZTpjeD0iMzQuNTc5OTYxIiBpbmtzY2FwZTpjeT0iMzMuNzcwNzQ2IiBpbmtzY2FwZTpwYWdlb3BhY2l0eT0iMCIgaW5rc2NhcGU6cGFnZXNoYWRvdz0iMiIgaW5rc2NhcGU6d2luZG93LWhlaWdodD0iMTAxNyIgaW5rc2NhcGU6d2luZG93LW1heGltaXplZD0iMSIgaW5rc2NhcGU6d2luZG93LXdpZHRoPSIxOTIwIiBpbmtzY2FwZTp3aW5kb3cteD0iLTgiIGlua3NjYXBlOndpbmRvdy15PSItOCIgaW5rc2NhcGU6em9vbT0iOC42MTMxNjY5IiBvYmplY3R0b2xlcmFuY2U9IjEwIiBwYWdlY29sb3I9IiNmZmZmZmYiIHNob3dncmlkPSJmYWxzZSI+JiN4YTsJPC9zb2RpcG9kaTpuYW1lZHZpZXc+JiN4YTs8cGF0aCBkPSJtIDQxLjAxNDUyNiw0NS43NiBjIC00LjYyLDMuNTMgLTEwLjA3LDUuMjYgLTE1LjQ3LDUuMjYgLTcuNjgsMCAtMTUuMjcsLTMuNDUgLTIwLjI3OTk5OTYsLTEwLjAxIEMgLTMuMzA1NDc0LDI5LjgyIC0xLjE5NTQ3NCwxMy44MyAxMC4wMTQ1MjYsNS4yNSBjIDQuNjIsLTMuNTUgMTAuMDgsLTUuMjUgMTUuNDgsLTUuMjUgNy42NywwIDE1LjI2LDMuNDUgMjAuMjgsMTAuMDEgOC41NywxMS4xOCA2LjQzLDI3LjE5IC00Ljc2LDM1Ljc1IHoiIHN0eWxlPSJmaWxsOiM1OWI0ZDkiIGlua3NjYXBlOmNvbm5lY3Rvci1jdXJ2YXR1cmU9IjAiIGlkPSJwYXRoMTExMTMiLz48cGF0aCBkPSJtIDM2LjMzMTI3NiwyOS45ODI5NyBjIDEuODUsMi40MSA1LjI5LDIuODUgNy43LDEuMDIgMC4xMiwtMC4wOSAwLjIyLC0wLjIxIDAuMzMsLTAuMzEgMi40NiwxLjczIDQuMTcsMi44NyA1LjEzLDMuNTMgMC4yOCwtMC43NCAwLjQ4LC0xLjQ1IDAuNjgsLTIuMTkgLTEuMDEsLTAuNzYgLTIuMzksLTEuODEgLTQuMzcsLTMuNDIgMC42NSwtMS43MiAwLjQ0LC0zLjcyIC0wLjc1LC01LjI4IC0xLjcsLTIuMjEgLTQuNzIsLTIuNzcgLTcuMDgsLTEuNDEgLTIuNiwtMi4zMyAtNS40NSwtNSAtOC40NiwtNy45OSA5LjM1LC01LjAzIDE2LC00LjI5IDE2LC00LjI5IC0xLjExLC0xLjQyIC0yLjM2LC0yLjY2IC0zLjY4LC0zLjc4IC0zLjk1LC0wLjYxIC0xMC4wNywtMC41NCAtMTcuMDcsMy4xOSBsIC0wLjAxLC0wLjAxIHYgMCBjIC0yLjMzLC0yLjQ0IC00LjcxLC01LjA2IC03LjEyLC03Ljg3IC0xLjE2LDAuMzcgLTIuMjksMC44MyAtMy4zOCwxLjM4IDEuNzgsMi45MiA0LjE4LDUuODcgNi44OSw4Ljc0IDAsMC4wMSAwLjAxLDAuMDEgMC4wMiwwLjAyIC0yLjI2LDEuNTcgLTQuNzcsMy42OCAtNy4wOSw2LjEzIC0wLjMsMC4zMiAtMC41OCwwLjY0IC0wLjg2LDAuOTUgLTEuMzgsLTAuMjkgLTIuODQsLTAuMiAtNC4xOTk5OTk2LDAuMjkgLTIuMzEsLTQuOTggLTIuMTMsLTguOTkgLTEuNzYsLTExLjA1IC0xLDEuMDUgLTEuOTQsMi4xNSAtMi43NTAwMDA0LDMuMzMgLTAuNiwyLjQ3IC0wLjc3LDYuMDIgMS4wMTAwMDA0LDEwLjMgLTIuMDYwMDAwNCwyLjcgLTIuMTYwMDAwNCw2LjUyIC0wLjAxLDkuMzUgMC4xOCwwLjIzIDAuMzcsMC40NSAwLjU3LDAuNjUgLTAuOTQwMDAwNCwzLjIgLTEuMzYwMDAwNCw2LjI5IC0xLjQ5MDAwMDQsOC45NCAwLjI0LDAuMzMgMC4yNCwwLjYgMC40OCwwLjkyIDEuMjMwMDAwNCwxLjU3IDIuNzYwMDAwNCwyLjg5IDQuMjUwMDAwNCw0LjA5IC0wLjE4LC0yLjgxIDAuMDEsLTYuOTUgMS43NDk5OTk2LC0xMS42MSAxLjIsMC4wOSAyLjQxLC0wLjA5IDMuNTUsLTAuNTcgMC42NiwwLjU3IDEuMzQsMS4xNSAyLjA3LDEuNzQgMi41LDEuOTggNSwzLjUzIDcuNDMsNC43NCAtMC4xMiwxLjI0IDAuMTksMi41MiAwLjk5LDMuNTkgMS43MiwyLjIyIDQuOTEsMi42NCA3LjEzLDAuOTQgMC40NiwtMC4zNiAwLjgzLC0wLjc4IDEuMTMsLTEuMjQgMy45NywwLjg4IDcuNDQsMS4wNCAxMC4wMSwxLjA0IDAuMzksMCAyLjIyLC0yLjQ5IDMuMjYsLTQuMDMgLTEuNTYsMC4zMyAtNi4yLDAuOTcgLTEyLjU1LC0wLjg2IC0wLjE1LC0wLjcxIC0wLjQ0LC0xLjQgLTAuOTEsLTIuMDIgLTEuNjIsLTIuMTEgLTQuNTYsLTIuNTcgLTYuNzYsLTEuMTUgLTIuMiwtMS4yIC00LjUxLC0yLjcgLTYuODksLTQuNTkgLTAuNDgsLTAuMzggLTAuOTUsLTAuNzYgLTEuMzksLTEuMTQgMS40NSwtMi4yOSAxLjYxLC01LjIzIDAuMzIsLTcuNyAwLjMsLTAuMjkgMC41OCwtMC41OSAwLjg5LC0wLjg4IDIuMzYsLTIuMiA0LjU4LC0zLjk2IDYuNjYsLTUuMzggLTAuMDksLTAuMDggLTAuMTYsLTAuMTYgLTAuMjUsLTAuMjQgMC4wOSwwLjA4IDAuMTYsMC4xNiAwLjI1LDAuMjQgdiAwIGMgMy4xOCwyLjk0IDYuNTYsNS43MyA5Ljc2LDguMjMgLTAuODUsMS43OSAtMC43MiwzLjk4IDAuNTcsNS42NiB6IiBzdHlsZT0iZmlsbDojZmZmZmZmIiBpbmtzY2FwZTpjb25uZWN0b3ItY3VydmF0dXJlPSIwIiBpZD0icGF0aDExMTIxIi8+JiN4YTs8L3N2Zz4=;" parent="BIbaWBOUddNFx-qwVSOw-2239" vertex="1">
          <mxGeometry x="35" width="90" height="90" as="geometry" />
        </mxCell>
        <mxCell id="BIbaWBOUddNFx-qwVSOw-2241" value="Microservices N" style="text;html=1;strokeColor=none;fillColor=none;align=center;verticalAlign=middle;whiteSpace=wrap;rounded=0;fontStyle=1;fontSize=20;" parent="BIbaWBOUddNFx-qwVSOw-2239" vertex="1">
          <mxGeometry y="91" width="160" height="70" as="geometry" />
        </mxCell>
        <mxCell id="BIbaWBOUddNFx-qwVSOw-2268" style="edgeStyle=orthogonalEdgeStyle;rounded=0;orthogonalLoop=1;jettySize=auto;html=1;startArrow=classic;startFill=1;" parent="1" source="BIbaWBOUddNFx-qwVSOw-2204" target="BIbaWBOUddNFx-qwVSOw-2187" edge="1">
          <mxGeometry relative="1" as="geometry">
            <Array as="points">
              <mxPoint x="1174" y="1645" />
            </Array>
          </mxGeometry>
        </mxCell>
        <mxCell id="BIbaWBOUddNFx-qwVSOw-2204" value="" style="rounded=1;whiteSpace=wrap;html=1;dashed=1;strokeColor=#009900;strokeWidth=2;fillColor=none;fontFamily=Verdana;fontSize=12;fontColor=#00BEF2;dashPattern=12 12;gradientColor=none;glass=1;" parent="1" vertex="1">
          <mxGeometry x="910" y="1701.5" width="528" height="250" as="geometry" />
        </mxCell>
        <mxCell id="BIbaWBOUddNFx-qwVSOw-2223" value="Microservices 1" style="text;html=1;strokeColor=none;fillColor=none;align=center;verticalAlign=middle;whiteSpace=wrap;rounded=0;fontStyle=1;fontSize=20;" parent="1" vertex="1">
          <mxGeometry x="998" y="1837" width="160" height="70" as="geometry" />
        </mxCell>
        <mxCell id="BIbaWBOUddNFx-qwVSOw-2224" value="" style="shape=image;verticalLabelPosition=bottom;labelBackgroundColor=#ffffff;verticalAlign=top;aspect=fixed;imageAspect=0;image=data:image/svg+xml,PHN2ZyB4bWxuczpkYz0iaHR0cDovL3B1cmwub3JnL2RjL2VsZW1lbnRzLzEuMS8iIHhtbG5zOmNjPSJodHRwOi8vY3JlYXRpdmVjb21tb25zLm9yZy9ucyMiIHhtbG5zOnJkZj0iaHR0cDovL3d3dy53My5vcmcvMTk5OS8wMi8yMi1yZGYtc3ludGF4LW5zIyIgeG1sbnM6c3ZnPSJodHRwOi8vd3d3LnczLm9yZy8yMDAwL3N2ZyIgeG1sbnM9Imh0dHA6Ly93d3cudzMub3JnLzIwMDAvc3ZnIiB4bWxuczpzb2RpcG9kaT0iaHR0cDovL3NvZGlwb2RpLnNvdXJjZWZvcmdlLm5ldC9EVEQvc29kaXBvZGktMC5kdGQiIHhtbG5zOmlua3NjYXBlPSJodHRwOi8vd3d3Lmlua3NjYXBlLm9yZy9uYW1lc3BhY2VzL2lua3NjYXBlIiB2ZXJzaW9uPSIxLjEiIGlkPSJzdmcxMTEyNyIgaW5rc2NhcGU6dmVyc2lvbj0iMC45Mi4zICgyNDA1NTQ2LCAyMDE4LTAzLTExKSIgc29kaXBvZGk6ZG9jbmFtZT0id2ViX2FwcHMuc3ZnIiB4PSIwcHgiIHk9IjBweCIgdmlld0JveD0iMCAwIDUxLjAyOTMxNiA1MS4wMTk5OTkiIHhtbDpzcGFjZT0icHJlc2VydmUiIHdpZHRoPSI1MS4wMjkzMTYiIGhlaWdodD0iNTEuMDIiPjxtZXRhZGF0YSBpZD0ibWV0YWRhdGExMjM5MiI+PHJkZjpSREY+PGNjOldvcmsgcmRmOmFib3V0PSIiPjxkYzpmb3JtYXQ+aW1hZ2Uvc3ZnK3htbDwvZGM6Zm9ybWF0PjxkYzp0eXBlIHJkZjpyZXNvdXJjZT0iaHR0cDovL3B1cmwub3JnL2RjL2RjbWl0eXBlL1N0aWxsSW1hZ2UiLz48ZGM6dGl0bGUvPjwvY2M6V29yaz48L3JkZjpSREY+PC9tZXRhZGF0YT48ZGVmcyBpZD0iZGVmczEyMzkwIj4mI3hhOwkmI3hhOwkmI3hhOyYjeGE7CQkmI3hhOwkJJiN4YTsJCSYjeGE7CSYjeGE7CQkJJiN4YTsJCQkmI3hhOwkJCSYjeGE7CQkmI3hhOwkJCSYjeGE7CQkJJiN4YTsJCQkmI3hhOwkJJiN4YTsJCQkJJiN4YTsJCQkmI3hhOwkJCQkmI3hhOwkJCSYjeGE7CQkJCQkmI3hhOwkJCQkmI3hhOwkJCQkJJiN4YTsJCQkJPC9kZWZzPiYjeGE7PGZpbHRlciBpZD0iZmlsdGVyXzIiPiYjeGE7CTxmZUdhdXNzaWFuQmx1ciBpZD0iZmVHYXVzc2lhbkJsdXIxMTEwMCIgc3RkRGV2aWF0aW9uPSIyIi8+JiN4YTs8L2ZpbHRlcj4mI3hhOzxzb2RpcG9kaTpuYW1lZHZpZXcgYm9yZGVyY29sb3I9IiM2NjY2NjYiIGJvcmRlcm9wYWNpdHk9IjEiIGZpdC1tYXJnaW4tYm90dG9tPSIwIiBmaXQtbWFyZ2luLWxlZnQ9IjAiIGZpdC1tYXJnaW4tcmlnaHQ9IjAiIGZpdC1tYXJnaW4tdG9wPSIwIiBncmlkdG9sZXJhbmNlPSIxMCIgZ3VpZGV0b2xlcmFuY2U9IjEwIiBpZD0ibmFtZWR2aWV3MTExMjkiIGlua3NjYXBlOmN1cnJlbnQtbGF5ZXI9InN2ZzExMTI3IiBpbmtzY2FwZTpjeD0iMzQuNTc5OTYxIiBpbmtzY2FwZTpjeT0iMzMuNzcwNzQ2IiBpbmtzY2FwZTpwYWdlb3BhY2l0eT0iMCIgaW5rc2NhcGU6cGFnZXNoYWRvdz0iMiIgaW5rc2NhcGU6d2luZG93LWhlaWdodD0iMTAxNyIgaW5rc2NhcGU6d2luZG93LW1heGltaXplZD0iMSIgaW5rc2NhcGU6d2luZG93LXdpZHRoPSIxOTIwIiBpbmtzY2FwZTp3aW5kb3cteD0iLTgiIGlua3NjYXBlOndpbmRvdy15PSItOCIgaW5rc2NhcGU6em9vbT0iOC42MTMxNjY5IiBvYmplY3R0b2xlcmFuY2U9IjEwIiBwYWdlY29sb3I9IiNmZmZmZmYiIHNob3dncmlkPSJmYWxzZSI+JiN4YTsJPC9zb2RpcG9kaTpuYW1lZHZpZXc+JiN4YTs8cGF0aCBkPSJtIDQxLjAxNDUyNiw0NS43NiBjIC00LjYyLDMuNTMgLTEwLjA3LDUuMjYgLTE1LjQ3LDUuMjYgLTcuNjgsMCAtMTUuMjcsLTMuNDUgLTIwLjI3OTk5OTYsLTEwLjAxIEMgLTMuMzA1NDc0LDI5LjgyIC0xLjE5NTQ3NCwxMy44MyAxMC4wMTQ1MjYsNS4yNSBjIDQuNjIsLTMuNTUgMTAuMDgsLTUuMjUgMTUuNDgsLTUuMjUgNy42NywwIDE1LjI2LDMuNDUgMjAuMjgsMTAuMDEgOC41NywxMS4xOCA2LjQzLDI3LjE5IC00Ljc2LDM1Ljc1IHoiIHN0eWxlPSJmaWxsOiM1OWI0ZDkiIGlua3NjYXBlOmNvbm5lY3Rvci1jdXJ2YXR1cmU9IjAiIGlkPSJwYXRoMTExMTMiLz48cGF0aCBkPSJtIDM2LjMzMTI3NiwyOS45ODI5NyBjIDEuODUsMi40MSA1LjI5LDIuODUgNy43LDEuMDIgMC4xMiwtMC4wOSAwLjIyLC0wLjIxIDAuMzMsLTAuMzEgMi40NiwxLjczIDQuMTcsMi44NyA1LjEzLDMuNTMgMC4yOCwtMC43NCAwLjQ4LC0xLjQ1IDAuNjgsLTIuMTkgLTEuMDEsLTAuNzYgLTIuMzksLTEuODEgLTQuMzcsLTMuNDIgMC42NSwtMS43MiAwLjQ0LC0zLjcyIC0wLjc1LC01LjI4IC0xLjcsLTIuMjEgLTQuNzIsLTIuNzcgLTcuMDgsLTEuNDEgLTIuNiwtMi4zMyAtNS40NSwtNSAtOC40NiwtNy45OSA5LjM1LC01LjAzIDE2LC00LjI5IDE2LC00LjI5IC0xLjExLC0xLjQyIC0yLjM2LC0yLjY2IC0zLjY4LC0zLjc4IC0zLjk1LC0wLjYxIC0xMC4wNywtMC41NCAtMTcuMDcsMy4xOSBsIC0wLjAxLC0wLjAxIHYgMCBjIC0yLjMzLC0yLjQ0IC00LjcxLC01LjA2IC03LjEyLC03Ljg3IC0xLjE2LDAuMzcgLTIuMjksMC44MyAtMy4zOCwxLjM4IDEuNzgsMi45MiA0LjE4LDUuODcgNi44OSw4Ljc0IDAsMC4wMSAwLjAxLDAuMDEgMC4wMiwwLjAyIC0yLjI2LDEuNTcgLTQuNzcsMy42OCAtNy4wOSw2LjEzIC0wLjMsMC4zMiAtMC41OCwwLjY0IC0wLjg2LDAuOTUgLTEuMzgsLTAuMjkgLTIuODQsLTAuMiAtNC4xOTk5OTk2LDAuMjkgLTIuMzEsLTQuOTggLTIuMTMsLTguOTkgLTEuNzYsLTExLjA1IC0xLDEuMDUgLTEuOTQsMi4xNSAtMi43NTAwMDA0LDMuMzMgLTAuNiwyLjQ3IC0wLjc3LDYuMDIgMS4wMTAwMDA0LDEwLjMgLTIuMDYwMDAwNCwyLjcgLTIuMTYwMDAwNCw2LjUyIC0wLjAxLDkuMzUgMC4xOCwwLjIzIDAuMzcsMC40NSAwLjU3LDAuNjUgLTAuOTQwMDAwNCwzLjIgLTEuMzYwMDAwNCw2LjI5IC0xLjQ5MDAwMDQsOC45NCAwLjI0LDAuMzMgMC4yNCwwLjYgMC40OCwwLjkyIDEuMjMwMDAwNCwxLjU3IDIuNzYwMDAwNCwyLjg5IDQuMjUwMDAwNCw0LjA5IC0wLjE4LC0yLjgxIDAuMDEsLTYuOTUgMS43NDk5OTk2LC0xMS42MSAxLjIsMC4wOSAyLjQxLC0wLjA5IDMuNTUsLTAuNTcgMC42NiwwLjU3IDEuMzQsMS4xNSAyLjA3LDEuNzQgMi41LDEuOTggNSwzLjUzIDcuNDMsNC43NCAtMC4xMiwxLjI0IDAuMTksMi41MiAwLjk5LDMuNTkgMS43MiwyLjIyIDQuOTEsMi42NCA3LjEzLDAuOTQgMC40NiwtMC4zNiAwLjgzLC0wLjc4IDEuMTMsLTEuMjQgMy45NywwLjg4IDcuNDQsMS4wNCAxMC4wMSwxLjA0IDAuMzksMCAyLjIyLC0yLjQ5IDMuMjYsLTQuMDMgLTEuNTYsMC4zMyAtNi4yLDAuOTcgLTEyLjU1LC0wLjg2IC0wLjE1LC0wLjcxIC0wLjQ0LC0xLjQgLTAuOTEsLTIuMDIgLTEuNjIsLTIuMTEgLTQuNTYsLTIuNTcgLTYuNzYsLTEuMTUgLTIuMiwtMS4yIC00LjUxLC0yLjcgLTYuODksLTQuNTkgLTAuNDgsLTAuMzggLTAuOTUsLTAuNzYgLTEuMzksLTEuMTQgMS40NSwtMi4yOSAxLjYxLC01LjIzIDAuMzIsLTcuNyAwLjMsLTAuMjkgMC41OCwtMC41OSAwLjg5LC0wLjg4IDIuMzYsLTIuMiA0LjU4LC0zLjk2IDYuNjYsLTUuMzggLTAuMDksLTAuMDggLTAuMTYsLTAuMTYgLTAuMjUsLTAuMjQgMC4wOSwwLjA4IDAuMTYsMC4xNiAwLjI1LDAuMjQgdiAwIGMgMy4xOCwyLjk0IDYuNTYsNS43MyA5Ljc2LDguMjMgLTAuODUsMS43OSAtMC43MiwzLjk4IDAuNTcsNS42NiB6IiBzdHlsZT0iZmlsbDojZmZmZmZmIiBpbmtzY2FwZTpjb25uZWN0b3ItY3VydmF0dXJlPSIwIiBpZD0icGF0aDExMTIxIi8+JiN4YTs8L3N2Zz4=;" parent="1" vertex="1">
          <mxGeometry x="1033" y="1746" width="90" height="90" as="geometry" />
        </mxCell>
        <mxCell id="BIbaWBOUddNFx-qwVSOw-2244" value="" style="rounded=1;whiteSpace=wrap;html=1;dashed=1;strokeColor=#009900;strokeWidth=2;fillColor=none;fontFamily=Verdana;fontSize=12;fontColor=#00BEF2;dashPattern=12 12;gradientColor=none;glass=1;" parent="1" vertex="1">
          <mxGeometry x="910" y="2010" width="528" height="250" as="geometry" />
        </mxCell>
        <mxCell id="BIbaWBOUddNFx-qwVSOw-2245" value="" style="group" parent="1" vertex="1" connectable="0">
          <mxGeometry x="1220" y="2030" width="150" height="180" as="geometry" />
        </mxCell>
        <mxCell id="BIbaWBOUddNFx-qwVSOw-2246" value="" style="image;sketch=0;aspect=fixed;html=1;points=[];align=center;fontSize=12;image=img/lib/mscae/Azure_Firewall.svg;" parent="BIbaWBOUddNFx-qwVSOw-2245" vertex="1">
          <mxGeometry x="20" width="110" height="110" as="geometry" />
        </mxCell>
        <mxCell id="BIbaWBOUddNFx-qwVSOw-2247" value="Azure FireWall" style="text;html=1;strokeColor=none;fillColor=none;align=center;verticalAlign=middle;whiteSpace=wrap;rounded=0;fontStyle=1;fontSize=20;" parent="BIbaWBOUddNFx-qwVSOw-2245" vertex="1">
          <mxGeometry y="110" width="150" height="70" as="geometry" />
        </mxCell>
        <mxCell id="BIbaWBOUddNFx-qwVSOw-2248" value="" style="group" parent="1" vertex="1" connectable="0">
          <mxGeometry x="950" y="2058" width="160" height="161" as="geometry" />
        </mxCell>
        <mxCell id="BIbaWBOUddNFx-qwVSOw-2249" value="" style="shape=image;verticalLabelPosition=bottom;labelBackgroundColor=#ffffff;verticalAlign=top;aspect=fixed;imageAspect=0;image=data:image/svg+xml,PHN2ZyB4bWxuczpkYz0iaHR0cDovL3B1cmwub3JnL2RjL2VsZW1lbnRzLzEuMS8iIHhtbG5zOmNjPSJodHRwOi8vY3JlYXRpdmVjb21tb25zLm9yZy9ucyMiIHhtbG5zOnJkZj0iaHR0cDovL3d3dy53My5vcmcvMTk5OS8wMi8yMi1yZGYtc3ludGF4LW5zIyIgeG1sbnM6c3ZnPSJodHRwOi8vd3d3LnczLm9yZy8yMDAwL3N2ZyIgeG1sbnM9Imh0dHA6Ly93d3cudzMub3JnLzIwMDAvc3ZnIiB4bWxuczpzb2RpcG9kaT0iaHR0cDovL3NvZGlwb2RpLnNvdXJjZWZvcmdlLm5ldC9EVEQvc29kaXBvZGktMC5kdGQiIHhtbG5zOmlua3NjYXBlPSJodHRwOi8vd3d3Lmlua3NjYXBlLm9yZy9uYW1lc3BhY2VzL2lua3NjYXBlIiB2ZXJzaW9uPSIxLjEiIGlkPSJzdmcxMTEyNyIgaW5rc2NhcGU6dmVyc2lvbj0iMC45Mi4zICgyNDA1NTQ2LCAyMDE4LTAzLTExKSIgc29kaXBvZGk6ZG9jbmFtZT0id2ViX2FwcHMuc3ZnIiB4PSIwcHgiIHk9IjBweCIgdmlld0JveD0iMCAwIDUxLjAyOTMxNiA1MS4wMTk5OTkiIHhtbDpzcGFjZT0icHJlc2VydmUiIHdpZHRoPSI1MS4wMjkzMTYiIGhlaWdodD0iNTEuMDIiPjxtZXRhZGF0YSBpZD0ibWV0YWRhdGExMjM5MiI+PHJkZjpSREY+PGNjOldvcmsgcmRmOmFib3V0PSIiPjxkYzpmb3JtYXQ+aW1hZ2Uvc3ZnK3htbDwvZGM6Zm9ybWF0PjxkYzp0eXBlIHJkZjpyZXNvdXJjZT0iaHR0cDovL3B1cmwub3JnL2RjL2RjbWl0eXBlL1N0aWxsSW1hZ2UiLz48ZGM6dGl0bGUvPjwvY2M6V29yaz48L3JkZjpSREY+PC9tZXRhZGF0YT48ZGVmcyBpZD0iZGVmczEyMzkwIj4mI3hhOwkmI3hhOwkmI3hhOyYjeGE7CQkmI3hhOwkJJiN4YTsJCSYjeGE7CSYjeGE7CQkJJiN4YTsJCQkmI3hhOwkJCSYjeGE7CQkmI3hhOwkJCSYjeGE7CQkJJiN4YTsJCQkmI3hhOwkJJiN4YTsJCQkJJiN4YTsJCQkmI3hhOwkJCQkmI3hhOwkJCSYjeGE7CQkJCQkmI3hhOwkJCQkmI3hhOwkJCQkJJiN4YTsJCQkJPC9kZWZzPiYjeGE7PGZpbHRlciBpZD0iZmlsdGVyXzIiPiYjeGE7CTxmZUdhdXNzaWFuQmx1ciBpZD0iZmVHYXVzc2lhbkJsdXIxMTEwMCIgc3RkRGV2aWF0aW9uPSIyIi8+JiN4YTs8L2ZpbHRlcj4mI3hhOzxzb2RpcG9kaTpuYW1lZHZpZXcgYm9yZGVyY29sb3I9IiM2NjY2NjYiIGJvcmRlcm9wYWNpdHk9IjEiIGZpdC1tYXJnaW4tYm90dG9tPSIwIiBmaXQtbWFyZ2luLWxlZnQ9IjAiIGZpdC1tYXJnaW4tcmlnaHQ9IjAiIGZpdC1tYXJnaW4tdG9wPSIwIiBncmlkdG9sZXJhbmNlPSIxMCIgZ3VpZGV0b2xlcmFuY2U9IjEwIiBpZD0ibmFtZWR2aWV3MTExMjkiIGlua3NjYXBlOmN1cnJlbnQtbGF5ZXI9InN2ZzExMTI3IiBpbmtzY2FwZTpjeD0iMzQuNTc5OTYxIiBpbmtzY2FwZTpjeT0iMzMuNzcwNzQ2IiBpbmtzY2FwZTpwYWdlb3BhY2l0eT0iMCIgaW5rc2NhcGU6cGFnZXNoYWRvdz0iMiIgaW5rc2NhcGU6d2luZG93LWhlaWdodD0iMTAxNyIgaW5rc2NhcGU6d2luZG93LW1heGltaXplZD0iMSIgaW5rc2NhcGU6d2luZG93LXdpZHRoPSIxOTIwIiBpbmtzY2FwZTp3aW5kb3cteD0iLTgiIGlua3NjYXBlOndpbmRvdy15PSItOCIgaW5rc2NhcGU6em9vbT0iOC42MTMxNjY5IiBvYmplY3R0b2xlcmFuY2U9IjEwIiBwYWdlY29sb3I9IiNmZmZmZmYiIHNob3dncmlkPSJmYWxzZSI+JiN4YTsJPC9zb2RpcG9kaTpuYW1lZHZpZXc+JiN4YTs8cGF0aCBkPSJtIDQxLjAxNDUyNiw0NS43NiBjIC00LjYyLDMuNTMgLTEwLjA3LDUuMjYgLTE1LjQ3LDUuMjYgLTcuNjgsMCAtMTUuMjcsLTMuNDUgLTIwLjI3OTk5OTYsLTEwLjAxIEMgLTMuMzA1NDc0LDI5LjgyIC0xLjE5NTQ3NCwxMy44MyAxMC4wMTQ1MjYsNS4yNSBjIDQuNjIsLTMuNTUgMTAuMDgsLTUuMjUgMTUuNDgsLTUuMjUgNy42NywwIDE1LjI2LDMuNDUgMjAuMjgsMTAuMDEgOC41NywxMS4xOCA2LjQzLDI3LjE5IC00Ljc2LDM1Ljc1IHoiIHN0eWxlPSJmaWxsOiM1OWI0ZDkiIGlua3NjYXBlOmNvbm5lY3Rvci1jdXJ2YXR1cmU9IjAiIGlkPSJwYXRoMTExMTMiLz48cGF0aCBkPSJtIDM2LjMzMTI3NiwyOS45ODI5NyBjIDEuODUsMi40MSA1LjI5LDIuODUgNy43LDEuMDIgMC4xMiwtMC4wOSAwLjIyLC0wLjIxIDAuMzMsLTAuMzEgMi40NiwxLjczIDQuMTcsMi44NyA1LjEzLDMuNTMgMC4yOCwtMC43NCAwLjQ4LC0xLjQ1IDAuNjgsLTIuMTkgLTEuMDEsLTAuNzYgLTIuMzksLTEuODEgLTQuMzcsLTMuNDIgMC42NSwtMS43MiAwLjQ0LC0zLjcyIC0wLjc1LC01LjI4IC0xLjcsLTIuMjEgLTQuNzIsLTIuNzcgLTcuMDgsLTEuNDEgLTIuNiwtMi4zMyAtNS40NSwtNSAtOC40NiwtNy45OSA5LjM1LC01LjAzIDE2LC00LjI5IDE2LC00LjI5IC0xLjExLC0xLjQyIC0yLjM2LC0yLjY2IC0zLjY4LC0zLjc4IC0zLjk1LC0wLjYxIC0xMC4wNywtMC41NCAtMTcuMDcsMy4xOSBsIC0wLjAxLC0wLjAxIHYgMCBjIC0yLjMzLC0yLjQ0IC00LjcxLC01LjA2IC03LjEyLC03Ljg3IC0xLjE2LDAuMzcgLTIuMjksMC44MyAtMy4zOCwxLjM4IDEuNzgsMi45MiA0LjE4LDUuODcgNi44OSw4Ljc0IDAsMC4wMSAwLjAxLDAuMDEgMC4wMiwwLjAyIC0yLjI2LDEuNTcgLTQuNzcsMy42OCAtNy4wOSw2LjEzIC0wLjMsMC4zMiAtMC41OCwwLjY0IC0wLjg2LDAuOTUgLTEuMzgsLTAuMjkgLTIuODQsLTAuMiAtNC4xOTk5OTk2LDAuMjkgLTIuMzEsLTQuOTggLTIuMTMsLTguOTkgLTEuNzYsLTExLjA1IC0xLDEuMDUgLTEuOTQsMi4xNSAtMi43NTAwMDA0LDMuMzMgLTAuNiwyLjQ3IC0wLjc3LDYuMDIgMS4wMTAwMDA0LDEwLjMgLTIuMDYwMDAwNCwyLjcgLTIuMTYwMDAwNCw2LjUyIC0wLjAxLDkuMzUgMC4xOCwwLjIzIDAuMzcsMC40NSAwLjU3LDAuNjUgLTAuOTQwMDAwNCwzLjIgLTEuMzYwMDAwNCw2LjI5IC0xLjQ5MDAwMDQsOC45NCAwLjI0LDAuMzMgMC4yNCwwLjYgMC40OCwwLjkyIDEuMjMwMDAwNCwxLjU3IDIuNzYwMDAwNCwyLjg5IDQuMjUwMDAwNCw0LjA5IC0wLjE4LC0yLjgxIDAuMDEsLTYuOTUgMS43NDk5OTk2LC0xMS42MSAxLjIsMC4wOSAyLjQxLC0wLjA5IDMuNTUsLTAuNTcgMC42NiwwLjU3IDEuMzQsMS4xNSAyLjA3LDEuNzQgMi41LDEuOTggNSwzLjUzIDcuNDMsNC43NCAtMC4xMiwxLjI0IDAuMTksMi41MiAwLjk5LDMuNTkgMS43MiwyLjIyIDQuOTEsMi42NCA3LjEzLDAuOTQgMC40NiwtMC4zNiAwLjgzLC0wLjc4IDEuMTMsLTEuMjQgMy45NywwLjg4IDcuNDQsMS4wNCAxMC4wMSwxLjA0IDAuMzksMCAyLjIyLC0yLjQ5IDMuMjYsLTQuMDMgLTEuNTYsMC4zMyAtNi4yLDAuOTcgLTEyLjU1LC0wLjg2IC0wLjE1LC0wLjcxIC0wLjQ0LC0xLjQgLTAuOTEsLTIuMDIgLTEuNjIsLTIuMTEgLTQuNTYsLTIuNTcgLTYuNzYsLTEuMTUgLTIuMiwtMS4yIC00LjUxLC0yLjcgLTYuODksLTQuNTkgLTAuNDgsLTAuMzggLTAuOTUsLTAuNzYgLTEuMzksLTEuMTQgMS40NSwtMi4yOSAxLjYxLC01LjIzIDAuMzIsLTcuNyAwLjMsLTAuMjkgMC41OCwtMC41OSAwLjg5LC0wLjg4IDIuMzYsLTIuMiA0LjU4LC0zLjk2IDYuNjYsLTUuMzggLTAuMDksLTAuMDggLTAuMTYsLTAuMTYgLTAuMjUsLTAuMjQgMC4wOSwwLjA4IDAuMTYsMC4xNiAwLjI1LDAuMjQgdiAwIGMgMy4xOCwyLjk0IDYuNTYsNS43MyA5Ljc2LDguMjMgLTAuODUsMS43OSAtMC43MiwzLjk4IDAuNTcsNS42NiB6IiBzdHlsZT0iZmlsbDojZmZmZmZmIiBpbmtzY2FwZTpjb25uZWN0b3ItY3VydmF0dXJlPSIwIiBpZD0icGF0aDExMTIxIi8+JiN4YTs8L3N2Zz4=;" parent="BIbaWBOUddNFx-qwVSOw-2248" vertex="1">
          <mxGeometry x="35" width="90" height="90" as="geometry" />
        </mxCell>
        <mxCell id="BIbaWBOUddNFx-qwVSOw-2250" value="Microservices 2" style="text;html=1;strokeColor=none;fillColor=none;align=center;verticalAlign=middle;whiteSpace=wrap;rounded=0;fontStyle=1;fontSize=20;" parent="BIbaWBOUddNFx-qwVSOw-2248" vertex="1">
          <mxGeometry y="91" width="160" height="70" as="geometry" />
        </mxCell>
        <mxCell id="BIbaWBOUddNFx-qwVSOw-2252" style="edgeStyle=orthogonalEdgeStyle;rounded=0;orthogonalLoop=1;jettySize=auto;html=1;exitX=0;exitY=0.5;exitDx=0;exitDy=0;startArrow=classic;startFill=1;" parent="1" source="BIbaWBOUddNFx-qwVSOw-2235" edge="1">
          <mxGeometry relative="1" as="geometry">
            <mxPoint x="390" y="1710" as="targetPoint" />
          </mxGeometry>
        </mxCell>
        <mxCell id="BIbaWBOUddNFx-qwVSOw-2253" style="edgeStyle=orthogonalEdgeStyle;rounded=0;orthogonalLoop=1;jettySize=auto;html=1;startArrow=classic;startFill=1;" parent="1" source="BIbaWBOUddNFx-qwVSOw-2244" edge="1">
          <mxGeometry relative="1" as="geometry">
            <mxPoint x="430" y="1690" as="targetPoint" />
            <Array as="points">
              <mxPoint x="430" y="2135" />
            </Array>
          </mxGeometry>
        </mxCell>
        <mxCell id="BIbaWBOUddNFx-qwVSOw-2254" value="" style="rounded=1;whiteSpace=wrap;html=1;dashed=1;strokeColor=#009900;strokeWidth=2;fillColor=none;fontFamily=Verdana;fontSize=12;fontColor=#00BEF2;dashPattern=12 12;gradientColor=none;glass=1;" parent="1" vertex="1">
          <mxGeometry x="40" y="1033" width="2690" height="2027" as="geometry" />
        </mxCell>
        <mxCell id="BIbaWBOUddNFx-qwVSOw-2255" value="App Service Network" style="whiteSpace=wrap;html=1;dashed=1;strokeWidth=2;fontFamily=Helvetica;fontSize=29;fontStyle=1;rounded=1;glass=1;shadow=1;strokeColor=none;fillColor=none;" parent="1" vertex="1">
          <mxGeometry x="575" y="1033" width="440" height="60" as="geometry" />
        </mxCell>
        <mxCell id="BIbaWBOUddNFx-qwVSOw-2258" style="edgeStyle=orthogonalEdgeStyle;rounded=0;orthogonalLoop=1;jettySize=auto;html=1;exitX=0.8;exitY=0.19;exitDx=0;exitDy=0;exitPerimeter=0;entryX=0.108;entryY=0.209;entryDx=0;entryDy=0;entryPerimeter=0;startArrow=classic;startFill=1;" parent="1" source="BIbaWBOUddNFx-qwVSOw-2109" target="BIbaWBOUddNFx-qwVSOw-2254" edge="1">
          <mxGeometry relative="1" as="geometry" />
        </mxCell>
        <mxCell id="BIbaWBOUddNFx-qwVSOw-2259" value="" style="rounded=1;whiteSpace=wrap;html=1;dashed=1;strokeColor=#009900;strokeWidth=2;fillColor=none;fontFamily=Verdana;fontSize=12;fontColor=#00BEF2;dashPattern=12 12;gradientColor=none;glass=1;" parent="1" vertex="1">
          <mxGeometry x="910" y="1171" width="528" height="250" as="geometry" />
        </mxCell>
        <mxCell id="BIbaWBOUddNFx-qwVSOw-2260" value="" style="group" parent="1" vertex="1" connectable="0">
          <mxGeometry x="1270" y="1191" width="150" height="180" as="geometry" />
        </mxCell>
        <mxCell id="BIbaWBOUddNFx-qwVSOw-2261" value="" style="image;sketch=0;aspect=fixed;html=1;points=[];align=center;fontSize=12;image=img/lib/mscae/Azure_Firewall.svg;" parent="BIbaWBOUddNFx-qwVSOw-2260" vertex="1">
          <mxGeometry x="-10" y="10" width="110" height="110" as="geometry" />
        </mxCell>
        <mxCell id="BIbaWBOUddNFx-qwVSOw-2262" value="Azure FireWall" style="text;html=1;strokeColor=none;fillColor=none;align=center;verticalAlign=middle;whiteSpace=wrap;rounded=0;fontStyle=1;fontSize=20;" parent="BIbaWBOUddNFx-qwVSOw-2260" vertex="1">
          <mxGeometry x="-30" y="130" width="150" height="70" as="geometry" />
        </mxCell>
        <mxCell id="BIbaWBOUddNFx-qwVSOw-2263" value="Search Engine&lt;br&gt;Microservices" style="text;html=1;strokeColor=none;fillColor=none;align=center;verticalAlign=middle;whiteSpace=wrap;rounded=0;fontStyle=1;fontSize=20;" parent="1" vertex="1">
          <mxGeometry x="990" y="1299" width="160" height="70" as="geometry" />
        </mxCell>
        <mxCell id="BIbaWBOUddNFx-qwVSOw-2264" value="" style="shape=image;verticalLabelPosition=bottom;labelBackgroundColor=#ffffff;verticalAlign=top;aspect=fixed;imageAspect=0;image=data:image/svg+xml,PHN2ZyB4bWxuczpkYz0iaHR0cDovL3B1cmwub3JnL2RjL2VsZW1lbnRzLzEuMS8iIHhtbG5zOmNjPSJodHRwOi8vY3JlYXRpdmVjb21tb25zLm9yZy9ucyMiIHhtbG5zOnJkZj0iaHR0cDovL3d3dy53My5vcmcvMTk5OS8wMi8yMi1yZGYtc3ludGF4LW5zIyIgeG1sbnM6c3ZnPSJodHRwOi8vd3d3LnczLm9yZy8yMDAwL3N2ZyIgeG1sbnM9Imh0dHA6Ly93d3cudzMub3JnLzIwMDAvc3ZnIiB4bWxuczpzb2RpcG9kaT0iaHR0cDovL3NvZGlwb2RpLnNvdXJjZWZvcmdlLm5ldC9EVEQvc29kaXBvZGktMC5kdGQiIHhtbG5zOmlua3NjYXBlPSJodHRwOi8vd3d3Lmlua3NjYXBlLm9yZy9uYW1lc3BhY2VzL2lua3NjYXBlIiB2ZXJzaW9uPSIxLjEiIGlkPSJzdmcxMTEyNyIgaW5rc2NhcGU6dmVyc2lvbj0iMC45Mi4zICgyNDA1NTQ2LCAyMDE4LTAzLTExKSIgc29kaXBvZGk6ZG9jbmFtZT0id2ViX2FwcHMuc3ZnIiB4PSIwcHgiIHk9IjBweCIgdmlld0JveD0iMCAwIDUxLjAyOTMxNiA1MS4wMTk5OTkiIHhtbDpzcGFjZT0icHJlc2VydmUiIHdpZHRoPSI1MS4wMjkzMTYiIGhlaWdodD0iNTEuMDIiPjxtZXRhZGF0YSBpZD0ibWV0YWRhdGExMjM5MiI+PHJkZjpSREY+PGNjOldvcmsgcmRmOmFib3V0PSIiPjxkYzpmb3JtYXQ+aW1hZ2Uvc3ZnK3htbDwvZGM6Zm9ybWF0PjxkYzp0eXBlIHJkZjpyZXNvdXJjZT0iaHR0cDovL3B1cmwub3JnL2RjL2RjbWl0eXBlL1N0aWxsSW1hZ2UiLz48ZGM6dGl0bGUvPjwvY2M6V29yaz48L3JkZjpSREY+PC9tZXRhZGF0YT48ZGVmcyBpZD0iZGVmczEyMzkwIj4mI3hhOwkmI3hhOwkmI3hhOyYjeGE7CQkmI3hhOwkJJiN4YTsJCSYjeGE7CSYjeGE7CQkJJiN4YTsJCQkmI3hhOwkJCSYjeGE7CQkmI3hhOwkJCSYjeGE7CQkJJiN4YTsJCQkmI3hhOwkJJiN4YTsJCQkJJiN4YTsJCQkmI3hhOwkJCQkmI3hhOwkJCSYjeGE7CQkJCQkmI3hhOwkJCQkmI3hhOwkJCQkJJiN4YTsJCQkJPC9kZWZzPiYjeGE7PGZpbHRlciBpZD0iZmlsdGVyXzIiPiYjeGE7CTxmZUdhdXNzaWFuQmx1ciBpZD0iZmVHYXVzc2lhbkJsdXIxMTEwMCIgc3RkRGV2aWF0aW9uPSIyIi8+JiN4YTs8L2ZpbHRlcj4mI3hhOzxzb2RpcG9kaTpuYW1lZHZpZXcgYm9yZGVyY29sb3I9IiM2NjY2NjYiIGJvcmRlcm9wYWNpdHk9IjEiIGZpdC1tYXJnaW4tYm90dG9tPSIwIiBmaXQtbWFyZ2luLWxlZnQ9IjAiIGZpdC1tYXJnaW4tcmlnaHQ9IjAiIGZpdC1tYXJnaW4tdG9wPSIwIiBncmlkdG9sZXJhbmNlPSIxMCIgZ3VpZGV0b2xlcmFuY2U9IjEwIiBpZD0ibmFtZWR2aWV3MTExMjkiIGlua3NjYXBlOmN1cnJlbnQtbGF5ZXI9InN2ZzExMTI3IiBpbmtzY2FwZTpjeD0iMzQuNTc5OTYxIiBpbmtzY2FwZTpjeT0iMzMuNzcwNzQ2IiBpbmtzY2FwZTpwYWdlb3BhY2l0eT0iMCIgaW5rc2NhcGU6cGFnZXNoYWRvdz0iMiIgaW5rc2NhcGU6d2luZG93LWhlaWdodD0iMTAxNyIgaW5rc2NhcGU6d2luZG93LW1heGltaXplZD0iMSIgaW5rc2NhcGU6d2luZG93LXdpZHRoPSIxOTIwIiBpbmtzY2FwZTp3aW5kb3cteD0iLTgiIGlua3NjYXBlOndpbmRvdy15PSItOCIgaW5rc2NhcGU6em9vbT0iOC42MTMxNjY5IiBvYmplY3R0b2xlcmFuY2U9IjEwIiBwYWdlY29sb3I9IiNmZmZmZmYiIHNob3dncmlkPSJmYWxzZSI+JiN4YTsJPC9zb2RpcG9kaTpuYW1lZHZpZXc+JiN4YTs8cGF0aCBkPSJtIDQxLjAxNDUyNiw0NS43NiBjIC00LjYyLDMuNTMgLTEwLjA3LDUuMjYgLTE1LjQ3LDUuMjYgLTcuNjgsMCAtMTUuMjcsLTMuNDUgLTIwLjI3OTk5OTYsLTEwLjAxIEMgLTMuMzA1NDc0LDI5LjgyIC0xLjE5NTQ3NCwxMy44MyAxMC4wMTQ1MjYsNS4yNSBjIDQuNjIsLTMuNTUgMTAuMDgsLTUuMjUgMTUuNDgsLTUuMjUgNy42NywwIDE1LjI2LDMuNDUgMjAuMjgsMTAuMDEgOC41NywxMS4xOCA2LjQzLDI3LjE5IC00Ljc2LDM1Ljc1IHoiIHN0eWxlPSJmaWxsOiM1OWI0ZDkiIGlua3NjYXBlOmNvbm5lY3Rvci1jdXJ2YXR1cmU9IjAiIGlkPSJwYXRoMTExMTMiLz48cGF0aCBkPSJtIDM2LjMzMTI3NiwyOS45ODI5NyBjIDEuODUsMi40MSA1LjI5LDIuODUgNy43LDEuMDIgMC4xMiwtMC4wOSAwLjIyLC0wLjIxIDAuMzMsLTAuMzEgMi40NiwxLjczIDQuMTcsMi44NyA1LjEzLDMuNTMgMC4yOCwtMC43NCAwLjQ4LC0xLjQ1IDAuNjgsLTIuMTkgLTEuMDEsLTAuNzYgLTIuMzksLTEuODEgLTQuMzcsLTMuNDIgMC42NSwtMS43MiAwLjQ0LC0zLjcyIC0wLjc1LC01LjI4IC0xLjcsLTIuMjEgLTQuNzIsLTIuNzcgLTcuMDgsLTEuNDEgLTIuNiwtMi4zMyAtNS40NSwtNSAtOC40NiwtNy45OSA5LjM1LC01LjAzIDE2LC00LjI5IDE2LC00LjI5IC0xLjExLC0xLjQyIC0yLjM2LC0yLjY2IC0zLjY4LC0zLjc4IC0zLjk1LC0wLjYxIC0xMC4wNywtMC41NCAtMTcuMDcsMy4xOSBsIC0wLjAxLC0wLjAxIHYgMCBjIC0yLjMzLC0yLjQ0IC00LjcxLC01LjA2IC03LjEyLC03Ljg3IC0xLjE2LDAuMzcgLTIuMjksMC44MyAtMy4zOCwxLjM4IDEuNzgsMi45MiA0LjE4LDUuODcgNi44OSw4Ljc0IDAsMC4wMSAwLjAxLDAuMDEgMC4wMiwwLjAyIC0yLjI2LDEuNTcgLTQuNzcsMy42OCAtNy4wOSw2LjEzIC0wLjMsMC4zMiAtMC41OCwwLjY0IC0wLjg2LDAuOTUgLTEuMzgsLTAuMjkgLTIuODQsLTAuMiAtNC4xOTk5OTk2LDAuMjkgLTIuMzEsLTQuOTggLTIuMTMsLTguOTkgLTEuNzYsLTExLjA1IC0xLDEuMDUgLTEuOTQsMi4xNSAtMi43NTAwMDA0LDMuMzMgLTAuNiwyLjQ3IC0wLjc3LDYuMDIgMS4wMTAwMDA0LDEwLjMgLTIuMDYwMDAwNCwyLjcgLTIuMTYwMDAwNCw2LjUyIC0wLjAxLDkuMzUgMC4xOCwwLjIzIDAuMzcsMC40NSAwLjU3LDAuNjUgLTAuOTQwMDAwNCwzLjIgLTEuMzYwMDAwNCw2LjI5IC0xLjQ5MDAwMDQsOC45NCAwLjI0LDAuMzMgMC4yNCwwLjYgMC40OCwwLjkyIDEuMjMwMDAwNCwxLjU3IDIuNzYwMDAwNCwyLjg5IDQuMjUwMDAwNCw0LjA5IC0wLjE4LC0yLjgxIDAuMDEsLTYuOTUgMS43NDk5OTk2LC0xMS42MSAxLjIsMC4wOSAyLjQxLC0wLjA5IDMuNTUsLTAuNTcgMC42NiwwLjU3IDEuMzQsMS4xNSAyLjA3LDEuNzQgMi41LDEuOTggNSwzLjUzIDcuNDMsNC43NCAtMC4xMiwxLjI0IDAuMTksMi41MiAwLjk5LDMuNTkgMS43MiwyLjIyIDQuOTEsMi42NCA3LjEzLDAuOTQgMC40NiwtMC4zNiAwLjgzLC0wLjc4IDEuMTMsLTEuMjQgMy45NywwLjg4IDcuNDQsMS4wNCAxMC4wMSwxLjA0IDAuMzksMCAyLjIyLC0yLjQ5IDMuMjYsLTQuMDMgLTEuNTYsMC4zMyAtNi4yLDAuOTcgLTEyLjU1LC0wLjg2IC0wLjE1LC0wLjcxIC0wLjQ0LC0xLjQgLTAuOTEsLTIuMDIgLTEuNjIsLTIuMTEgLTQuNTYsLTIuNTcgLTYuNzYsLTEuMTUgLTIuMiwtMS4yIC00LjUxLC0yLjcgLTYuODksLTQuNTkgLTAuNDgsLTAuMzggLTAuOTUsLTAuNzYgLTEuMzksLTEuMTQgMS40NSwtMi4yOSAxLjYxLC01LjIzIDAuMzIsLTcuNyAwLjMsLTAuMjkgMC41OCwtMC41OSAwLjg5LC0wLjg4IDIuMzYsLTIuMiA0LjU4LC0zLjk2IDYuNjYsLTUuMzggLTAuMDksLTAuMDggLTAuMTYsLTAuMTYgLTAuMjUsLTAuMjQgMC4wOSwwLjA4IDAuMTYsMC4xNiAwLjI1LDAuMjQgdiAwIGMgMy4xOCwyLjk0IDYuNTYsNS43MyA5Ljc2LDguMjMgLTAuODUsMS43OSAtMC43MiwzLjk4IDAuNTcsNS42NiB6IiBzdHlsZT0iZmlsbDojZmZmZmZmIiBpbmtzY2FwZTpjb25uZWN0b3ItY3VydmF0dXJlPSIwIiBpZD0icGF0aDExMTIxIi8+JiN4YTs8L3N2Zz4=;" parent="1" vertex="1">
          <mxGeometry x="1025" y="1208" width="90" height="90" as="geometry" />
        </mxCell>
        <mxCell id="BIbaWBOUddNFx-qwVSOw-2214" value="" style="image;sketch=0;aspect=fixed;html=1;points=[];align=center;fontSize=12;image=img/lib/mscae/Azure_Firewall.svg;" parent="1" vertex="1">
          <mxGeometry x="1250" y="1720" width="110" height="110" as="geometry" />
        </mxCell>
        <mxCell id="BIbaWBOUddNFx-qwVSOw-2215" value="Azure FireWall" style="text;html=1;strokeColor=none;fillColor=none;align=center;verticalAlign=middle;whiteSpace=wrap;rounded=0;fontStyle=1;fontSize=20;" parent="1" vertex="1">
          <mxGeometry x="1230" y="1840" width="150" height="70" as="geometry" />
        </mxCell>
        <mxCell id="BIbaWBOUddNFx-qwVSOw-2271" style="edgeStyle=orthogonalEdgeStyle;rounded=0;orthogonalLoop=1;jettySize=auto;html=1;entryX=0.985;entryY=0.069;entryDx=0;entryDy=0;entryPerimeter=0;" parent="1" source="BIbaWBOUddNFx-qwVSOw-2259" target="BIbaWBOUddNFx-qwVSOw-2187" edge="1">
          <mxGeometry relative="1" as="geometry">
            <Array as="points">
              <mxPoint x="1174" y="1589" />
            </Array>
          </mxGeometry>
        </mxCell>
        <mxCell id="BIbaWBOUddNFx-qwVSOw-2315" value="" style="edgeStyle=orthogonalEdgeStyle;rounded=0;orthogonalLoop=1;jettySize=auto;html=1;startArrow=classic;startFill=1;" parent="1" source="BIbaWBOUddNFx-qwVSOw-2277" target="BIbaWBOUddNFx-qwVSOw-2235" edge="1">
          <mxGeometry relative="1" as="geometry" />
        </mxCell>
        <mxCell id="BIbaWBOUddNFx-qwVSOw-2318" style="edgeStyle=orthogonalEdgeStyle;rounded=0;orthogonalLoop=1;jettySize=auto;html=1;exitX=1;exitY=0;exitDx=0;exitDy=0;entryX=1;entryY=0.75;entryDx=0;entryDy=0;startArrow=classic;startFill=1;" parent="1" source="BIbaWBOUddNFx-qwVSOw-2277" target="BIbaWBOUddNFx-qwVSOw-2244" edge="1">
          <mxGeometry relative="1" as="geometry">
            <Array as="points">
              <mxPoint x="1537" y="2640" />
              <mxPoint x="1537" y="2198" />
            </Array>
          </mxGeometry>
        </mxCell>
        <mxCell id="BIbaWBOUddNFx-qwVSOw-2320" style="edgeStyle=orthogonalEdgeStyle;rounded=0;orthogonalLoop=1;jettySize=auto;html=1;exitX=1;exitY=0.5;exitDx=0;exitDy=0;entryX=1;entryY=0.5;entryDx=0;entryDy=0;startArrow=classic;startFill=1;" parent="1" source="BIbaWBOUddNFx-qwVSOw-2277" target="BIbaWBOUddNFx-qwVSOw-2204" edge="1">
          <mxGeometry relative="1" as="geometry">
            <Array as="points">
              <mxPoint x="1650" y="2800" />
              <mxPoint x="1650" y="1826" />
            </Array>
          </mxGeometry>
        </mxCell>
        <mxCell id="BIbaWBOUddNFx-qwVSOw-2277" value="" style="rounded=1;whiteSpace=wrap;html=1;dashed=1;strokeColor=#009900;strokeWidth=2;fillColor=none;fontFamily=Verdana;fontSize=12;fontColor=#00BEF2;dashPattern=12 12;gradientColor=none;glass=1;arcSize=0;" parent="1" vertex="1">
          <mxGeometry x="817" y="2640" width="700" height="320" as="geometry" />
        </mxCell>
        <mxCell id="BIbaWBOUddNFx-qwVSOw-2279" value="Data Storage" style="whiteSpace=wrap;html=1;dashed=1;strokeWidth=2;fontFamily=Helvetica;fontSize=29;fontStyle=1;rounded=1;glass=1;shadow=1;strokeColor=none;fillColor=none;" parent="1" vertex="1">
          <mxGeometry x="971" y="2890" width="370" height="60" as="geometry" />
        </mxCell>
        <mxCell id="BIbaWBOUddNFx-qwVSOw-2311" value="" style="group" parent="1" vertex="1" connectable="0">
          <mxGeometry x="984.0000000000002" y="2738" width="669.9999999999998" height="124" as="geometry" />
        </mxCell>
        <mxCell id="BIbaWBOUddNFx-qwVSOw-2272" value="" style="verticalLabelPosition=bottom;html=1;verticalAlign=top;align=center;strokeColor=none;fillColor=#00BEF2;shape=mxgraph.azure.sql_database;" parent="BIbaWBOUddNFx-qwVSOw-2311" vertex="1">
          <mxGeometry x="-136" y="2" width="90" height="118" as="geometry" />
        </mxCell>
        <mxCell id="BIbaWBOUddNFx-qwVSOw-2273" value="" style="image;aspect=fixed;html=1;points=[];align=center;fontSize=12;image=img/lib/azure2/databases/Azure_Database_PostgreSQL_Server.svg;" parent="BIbaWBOUddNFx-qwVSOw-2311" vertex="1">
          <mxGeometry x="-2.0000000000002274" width="90" height="120" as="geometry" />
        </mxCell>
        <mxCell id="BIbaWBOUddNFx-qwVSOw-2274" value="" style="shape=image;verticalLabelPosition=bottom;labelBackgroundColor=#ffffff;verticalAlign=top;aspect=fixed;imageAspect=0;image=data:image/svg+xml,PHN2ZyB4bWxuczpjYz0iaHR0cDovL2NyZWF0aXZlY29tbW9ucy5vcmcvbnMjIiB4bWxuczpkYz0iaHR0cDovL3B1cmwub3JnL2RjL2VsZW1lbnRzLzEuMS8iIHhtbG5zOmlua3NjYXBlPSJodHRwOi8vd3d3Lmlua3NjYXBlLm9yZy9uYW1lc3BhY2VzL2lua3NjYXBlIiB4bWxuczpyZGY9Imh0dHA6Ly93d3cudzMub3JnLzE5OTkvMDIvMjItcmRmLXN5bnRheC1ucyMiIHhtbG5zOnNvZGlwb2RpPSJodHRwOi8vc29kaXBvZGkuc291cmNlZm9yZ2UubmV0L0RURC9zb2RpcG9kaS0wLmR0ZCIgeG1sbnM6c3ZnPSJodHRwOi8vd3d3LnczLm9yZy8yMDAwL3N2ZyIgeG1sbnM9Imh0dHA6Ly93d3cudzMub3JnLzIwMDAvc3ZnIiB4bWxuczp4bGluaz0iaHR0cDovL3d3dy53My5vcmcvMTk5OS94bGluayIgdmVyc2lvbj0iMS4xIiBpZD0ic3ZnMTAxMjg5IiBpbmtzY2FwZTp2ZXJzaW9uPSIwLjkyLjMgKDI0MDU1NDYsIDIwMTgtMDMtMTEpIiBzb2RpcG9kaTpkb2NuYW1lPSJtb25nb2RiLnN2ZyIgeD0iMHB4IiB5PSIwcHgiIHZpZXdCb3g9IjAgMCAxMDEuMjggNjQuNDYiIHN0eWxlPSJlbmFibGUtYmFja2dyb3VuZDpuZXcgMCAwIDEwMS4yOCA2NC40NjsiIHhtbDpzcGFjZT0icHJlc2VydmUiPiYjeGE7PHNvZGlwb2RpOm5hbWVkdmlldyBib3JkZXJjb2xvcj0iIzY2NjY2NiIgYm9yZGVyb3BhY2l0eT0iMSIgZml0LW1hcmdpbi1ib3R0b209IjAiIGZpdC1tYXJnaW4tbGVmdD0iMCIgZml0LW1hcmdpbi1yaWdodD0iMCIgZml0LW1hcmdpbi10b3A9IjAiIGdyaWR0b2xlcmFuY2U9IjEwIiBndWlkZXRvbGVyYW5jZT0iMTAiIGlkPSJuYW1lZHZpZXcxMDEyOTEiIGlua3NjYXBlOmN1cnJlbnQtbGF5ZXI9InN2ZzEwMTI4OSIgaW5rc2NhcGU6Y3g9IjY3LjUyMzY1MyIgaW5rc2NhcGU6Y3k9IjQzLjE3NTI0NCIgaW5rc2NhcGU6cGFnZW9wYWNpdHk9IjAiIGlua3NjYXBlOnBhZ2VzaGFkb3c9IjIiIGlua3NjYXBlOndpbmRvdy1oZWlnaHQ9IjEwMTciIGlua3NjYXBlOndpbmRvdy1tYXhpbWl6ZWQ9IjEiIGlua3NjYXBlOndpbmRvdy13aWR0aD0iMTkyMCIgaW5rc2NhcGU6d2luZG93LXg9Ii04IiBpbmtzY2FwZTp3aW5kb3cteT0iLTgiIGlua3NjYXBlOnpvb209IjkuODQ1NDgxNCIgb2JqZWN0dG9sZXJhbmNlPSIxMCIgcGFnZWNvbG9yPSIjZmZmZmZmIiBzaG93Z3JpZD0iZmFsc2UiPiYjeGE7CTwvc29kaXBvZGk6bmFtZWR2aWV3PiYjeGE7PGcgaWQ9ImcxMDEyODciIHRyYW5zZm9ybT0idHJhbnNsYXRlKC0wLjY0NTM3OTIxLC0wLjk0MzY1ODU5KSI+JiN4YTsJPHRpdGxlIGlkPSJ0aXRsZTEwMTIxNyI+UGFnZS0xPC90aXRsZT4mI3hhOwk8ZyBpZD0iZ3JvdXAzOTM5LTEiIHRyYW5zZm9ybT0idHJhbnNsYXRlKDAuNTc1NTk0LC0wLjU4MDQ2NikiPiYjeGE7CQk8dGl0bGUgaWQ9InRpdGxlMTAxMjE5Ij5Nb25nb0RCPC90aXRsZT4mI3hhOwkJPGcgaWQ9Imdyb3VwMzk0MC0yIj4mI3hhOwkJCTx0aXRsZSBpZD0idGl0bGUxMDEyMjEiPkxheWVyIDE8L3RpdGxlPiYjeGE7CQkJPGcgaWQ9Imdyb3VwMzk0MS0zIj4mI3hhOwkJCQk8dGl0bGUgaWQ9InRpdGxlMTAxMjIzIj5zdmdfMTwvdGl0bGU+JiN4YTsJCQkJPGcgaWQ9Imdyb3VwMzk0Mi00IiB0cmFuc2Zvcm09InRyYW5zbGF0ZSgzOS4zOTksLTIwLjUxMTUpIj4mI3hhOwkJCQkJPHRpdGxlIGlkPSJ0aXRsZTEwMTIyNSI+Zzg2MjwvdGl0bGU+JiN4YTsJCQkJCTxnIGlkPSJzaGFwZTM5NDMtNSIgdHJhbnNmb3JtPSJ0cmFuc2xhdGUoOS43MDgzNywtNS44MDEwNykiPiYjeGE7CQkJCQkJPHRpdGxlIGlkPSJ0aXRsZTEwMTIyNyI+cGF0aDI8L3RpdGxlPiYjeGE7CQkJCQkJPHBhdGggaWQ9InBhdGgxMDEyMjkiIGlua3NjYXBlOmNvbm5lY3Rvci1jdXJ2YXR1cmU9IjAiIHN0eWxlPSJmaWxsOiM1OTk2MzY7IiBkPSJNMC4xNCwyNy45NmMwLjM0LDAuNjIsMC43OSwxLjYsMS4xOCwyLjIgICAgICAgIGMwLjI2LDAuNDEsMC41NSwwLjc3LDAuODksMS4xYzAuOTgsMC45OSwxLjkxLDIuMDIsMi43NSwzLjEyYzEuOTksMi42MSwzLjMzLDUuNTEsNC4yOSw4LjY1YzAuNTgsMS45MiwwLjg5LDMuODksMC45MSw1Ljg4ICAgICAgICBjMC4xLDUuOTQtMS45NCwxMS4wNS02LjA2LDE1LjI5Yy0wLjY3LDAuNjctMS4zOSwxLjI5LTIuMTYsMS44NWMtMC40MSwwLTAuNi0wLjMyLTAuNzctMC42Yy0wLjMxLTAuNTMtMC41LTEuMTMtMC41OS0xLjczICAgICAgICBjLTAuMTUtMC43Mi0wLjI0LTEuNDQtMC4yLTIuMThjMC0wLjEyLDAtMC4yMiwwLTAuMzRDMC4zNiw2MS4xMywwLDI4LjEyLDAuMTQsMjcuOTZ6Ii8+JiN4YTsJCQkJCTwvZz4mI3hhOwkJCQkJPGcgaWQ9InNoYXBlMzk0NC03IiB0cmFuc2Zvcm09InRyYW5zbGF0ZSgwLC01LjM5MzU3KSI+JiN4YTsJCQkJCQk8dGl0bGUgaWQ9InRpdGxlMTAxMjMyIj5wYXRoODwvdGl0bGU+JiN4YTsJCQkJCQk8cGF0aCBpZD0icGF0aDEwMTIzNCIgaW5rc2NhcGU6Y29ubmVjdG9yLWN1cnZhdHVyZT0iMCIgc3R5bGU9ImZpbGw6IzZDQUM0ODsiIGQ9Ik05Ljg1LDI3LjQ4Yy0wLjA1LTAuMS0wLjA5LTAuMDMtMC4xNCwwLjAyICAgICAgICBjMC4wMiwwLjQ4LTAuMTUsMC45MS0wLjQxLDEuMzJjLTAuMjksMC40MS0wLjY3LDAuNzItMS4wNSwxLjA1Yy0yLjE0LDEuODUtMy44Miw0LjA4LTUuMTYsNi41NyAgICAgICAgYy0xLjc3LDMuMzYtMi43MSw2Ljk1LTIuOTcsMTAuNzRDMCw0OC41NSwwLjU1LDUzLjM2LDAuOTgsNTQuNzZjMS4xOCwzLjY5LDMuMjksNi43OCw2LjAyLDkuNDYgICAgICAgIGMwLjY3LDAuNjUsMS4zOSwxLjI1LDIuMTMsMS44M2MwLjIyLDAsMC4yNC0wLjIsMC4yOS0wLjM0YzAuMS0wLjMxLDAuMTctMC42MiwwLjIyLTAuOTNjMC4yMS0xLjIsMC4zMy0yLjQsMC40OC0zLjYgICAgICAgIEMxMC4xMiw2MS4wNCw5LjkyLDI3LjYsOS44NSwyNy40OHoiLz4mI3hhOwkJCQkJPC9nPiYjeGE7CQkJCQk8ZyBpZD0ic2hhcGUzOTQ1LTkiIHRyYW5zZm9ybT0idHJhbnNsYXRlKDkuMTMzMDcpIj4mI3hhOwkJCQkJCTx0aXRsZSBpZD0idGl0bGUxMDEyMzciPnBhdGgxMDwvdGl0bGU+JiN4YTsJCQkJCQk8cGF0aCBpZD0icGF0aDEwMTIzOSIgaW5rc2NhcGU6Y29ubmVjdG9yLWN1cnZhdHVyZT0iMCIgc3R5bGU9ImZpbGw6I0MyQkZCRjsiIGQ9Ik0xLjg5LDYxLjcxYzAuMDUtMC41NSwwLjMyLTEuMDEsMC42LTEuNDcgICAgICAgIGMtMC4yOC0wLjEyLTAuNS0wLjM2LTAuNjctMC42MmMtMC4xNC0wLjI0LTAuMjYtMC41My0wLjM2LTAuNzljLTAuMzMtMS4wMS0wLjQxLTIuMDYtMC41LTMuMDlsMCwwYzAtMC4xLDAtMC4yMiwwLTAuMzFsMCwwICAgICAgICBjMC0wLjEsMC0wLjIyLDAtMC4zMmMtMC4xMiwwLjEtMC4xNCwwLjkyLTAuMTQsMS4wNGMtMC4wOCwxLjEtMC4yMiwyLjE4LTAuNDQsMy4yM0MwLjMxLDU5LjgxLDAuMjYsNjAuMjQsMCw2MC42MyAgICAgICAgYzAsMC4wNSwwLDAuMDksMC4wMiwwLjE3YzAuNDQsMS4yNywwLjU2LDIuNTYsMC42MywzLjg4YzAsMC4xNywwLDAuMzEsMCwwLjQ4YzAsMC41Ny0wLjAzLDAuNDUsMC40NSwwLjY1ICAgICAgICBjMC4xOSwwLjA3LDAuNDEsMC4wOSwwLjYsMC4yNGMwLjE1LDAsMC4xNy0wLjEyLDAuMTctMC4yMkMxLjg1LDY1LjU3LDEuOCw2NS4zLDEuOCw2NS4wNGMwLTAuNzQtMC4wMy0xLjQ2LDAtMi4yMSAgICAgICAgQzEuNzcsNjIuNDUsMS44NSw2Mi4wNywxLjg5LDYxLjcxeiIvPiYjeGE7CQkJCQk8L2c+JiN4YTsJCQkJPC9nPiYjeGE7CQkJCTxnIGlkPSJncm91cDM5NDYtMTEiPiYjeGE7CQkJCQk8dGl0bGUgaWQ9InRpdGxlMTAxMjQzIj5nODgwPC90aXRsZT4mI3hhOwkJCQkJPGcgaWQ9InNoYXBlMzk0Ny0xMiIgdHJhbnNmb3JtPSJ0cmFuc2xhdGUoMCwtNi4xMTU1NikiPiYjeGE7CQkJCQkJPHRpdGxlIGlkPSJ0aXRsZTEwMTI0NSI+cGF0aDQ8L3RpdGxlPiYjeGE7CQkJCQkJPHBhdGggaWQ9InBhdGgxMDEyNDciIGlua3NjYXBlOmNvbm5lY3Rvci1jdXJ2YXR1cmU9IjAiIHN0eWxlPSJmaWxsOiM0NzQ3NEE7IiBkPSJNMy44NSw2MS40N2MwLDAuODgsMCwxLjc2LDAsMi42MiAgICAgICAgYzAsMC4xMSwwLDAuMjEsMC4wMiwwLjMxYzAuMDMsMC4zMiwwLjIyLDAuNTEsMC41MiwwLjU5YzAuMjYsMC4wNywwLjUzLDAuMTIsMC43OSwwLjE2YzAuMTYsMC4wMSwwLjIxLDAuMDgsMC4yMywwLjI0ICAgICAgICBjMC4wMSwwLjU5LTAuMDQsMC42Ni0wLjYxLDAuNjJjLTEuMzMtMC4wNy0yLjY2LTAuMDktMy45OSwwYy0wLjA1LDAtMC4xLDAtMC4xNCwwYy0wLjQxLDAuMDItMC40NS0wLjAyLTAuNDUtMC40MyAgICAgICAgYzAtMC4wNywwLjAyLTAuMTYsMC4wMi0wLjIzYzAtMC4xMywwLjA5LTAuMTksMC4yMS0wLjE5YzAuMjgtMC4wMywwLjUzLTAuMSwwLjc5LTAuMTVjMC4zNy0wLjA5LDAuNTctMC4zMSwwLjYxLTAuNjcgICAgICAgIGMwLjA1LTAuNCwwLjA1LTAuODIsMC4wNS0xLjIxYzAuMDUtMS41NCwwLjAzLTMuMSwwLjAyLTQuNjNjMC0wLjMtMC4xMi0wLjUyLTAuMzgtMC42NmMtMC4zMS0wLjE3LTAuNjQtMC4zMS0wLjk5LTAuNDIgICAgICAgIGMtMC4xLTAuMDMtMC4yLTAuMDUtMC4yOS0wLjFDMC4wMiw1Ny4yLDAsNTYuOTgsMC4yNCw1Ni44NGMwLjA5LTAuMDUsMC4xOS0wLjA5LDAuMy0wLjExYzEuMDUtMC4xNSwyLjA3LTAuNDEsMy4wNy0wLjc3ICAgICAgICBjMC4yMS0wLjA3LDAuMjYtMC4wNiwwLjI4LDAuMTVjMC4wMSwwLjE0LDAsMC4yOC0wLjAyLDAuNGMtMC4wMywwLjIyLTAuMDMsMC40NS0wLjAzLDAuNjZjMCwwLjA4LDAuMDEsMC4xNywwLjEsMC4yMiAgICAgICAgYzAuMDksMC4wNSwwLjE3LDAsMC4yNC0wLjA1YzAuMzYtMC4yOCwwLjczLTAuNTQsMS4xMi0wLjc2YzAuNTctMC4zMSwxLjE4LTAuNTksMS44My0wLjY4YzAuOC0wLjEsMS40OSwwLjExLDIuMSwwLjYzICAgICAgICBjMC4yNSwwLjIyLDAuNDYsMC40OCwwLjY1LDAuNzZjMC4xNywwLjI0LDAuMTksMC4yNiwwLjQyLDAuMDhjMC42NS0wLjQ4LDEuMzQtMC45MSwyLjA5LTEuMjJjMC43Ny0wLjMzLDEuNTctMC4zOCwyLjM2LTAuMTEgICAgICAgIGMwLjgyLDAuMywxLjM3LDAuODcsMS43LDEuNjRjMC4yNywwLjYzLDAuMzksMS4yOCwwLjM5LDEuOTRjMCwxLjAyLDAsMi4wNCwwLDMuMDdjMCwwLjUyLDAsMS4wNCwwLDEuNTYgICAgICAgIGMwLDAuMzEsMC4xNCwwLjUyLDAuNDQsMC42NmMwLjMyLDAuMTMsMC42OSwwLjE5LDEuMDMsMC4yNWMwLjIzLDAuMDYsMC4yMywwLjA2LDAuMjMsMC4yOGMtMC4wNCwwLjU3LTAuMDksMC42MS0wLjY0LDAuNTcgICAgICAgIGMtMS4zOC0wLjA5LTIuNzgtMC4wNy00LjE3LDBjLTAuMjcsMC4wMi0wLjI3LDAuMDItMC4yOS0wLjI2YzAtMC4wMywwLTAuMDUsMC0wLjA4Yy0wLjAyLTAuNDctMC4wMi0wLjQ3LDAuNDMtMC41NyAgICAgICAgYzAuMTYtMC4wNCwwLjMtMC4wNywwLjQ1LTAuMTNjMC4zNS0wLjEsMC41Mi0wLjMyLDAuNTQtMC42N2MwLjAxLTAuNDMsMC4wMy0wLjg2LDAuMDUtMS4yOWMwLTEuMTMsMC4wMy0yLjI3LTAuMDQtMy4zOSAgICAgICAgYy0wLjAxLTAuMjktMC4wNi0wLjU5LTAuMTktMC44OGMtMC40My0xLjA2LTEuMzgtMS40NC0yLjI5LTEuMzNjLTAuNjksMC4wNy0xLjMsMC4zNC0xLjg3LDAuNzQgICAgICAgIGMtMC4xMiwwLjA5LTAuMjEsMC4xOS0wLjE5LDAuMzZjMC4xNiwxLjExLDAuMDUsMi4yMSwwLjA3LDMuMzJjMC4wMiwwLjc5LDAsMS42MSwwLDIuNGMwLDAuNDMsMC4xNywwLjY0LDAuNTksMC43NCAgICAgICAgYzAuMjYsMC4wNywwLjUyLDAuMTMsMC43OSwwLjE4YzAuMTIsMC4wMSwwLjE5LDAuMDcsMC4xOSwwLjJjMCwwLjA2LDAsMC4xMSwwLDAuMTRjLTAuMDIsMC40OS0wLjA1LDAuNTItMC41MywwLjUgICAgICAgIGMtMS4zOS0wLjA3LTIuNzctMC4wNS00LjEzLDBjLTAuNDcsMC4wMi0wLjUyLTAuMDMtMC40OS0wLjUxYzAuMDItMC4yOCwwLjA2LTAuMywwLjMxLTAuMzVjMC4xOS0wLjAzLDAuMzgtMC4wNywwLjU3LTAuMSAgICAgICAgYzAuNTItMC4xMSwwLjctMC4zLDAuNzMtMC44M2MwLjAyLTAuMzgsMC4wNS0wLjc4LDAuMDUtMS4xNmMwLjAyLTEuMTYsMC4wNS0yLjMyLTAuMDMtMy40N2MtMC4wNC0wLjQzLTAuMTQtMC44NS0wLjM3LTEuMjUgICAgICAgIGMtMC4zNC0wLjY0LTAuODktMC45Ni0xLjYyLTFjLTAuNzQtMC4wNS0xLjQsMC4yMy0yLjAyLDAuNTdjLTAuNDMsMC4yNC0wLjYyLDAuNTUtMC41OSwxLjA2ICAgICAgICBDMy44Nyw1OS44MSwzLjg0LDYwLjY0LDMuODUsNjEuNDdDMy44NCw2MS40NywzLjg1LDYxLjQ3LDMuODUsNjEuNDdDMy44NSw2MS40NywzLjg1LDYxLjQ3LDMuODUsNjEuNDd6Ii8+JiN4YTsJCQkJCTwvZz4mI3hhOwkJCQkJPGcgaWQ9Imdyb3VwMzk0OC0xNCIgdHJhbnNmb3JtPSJ0cmFuc2xhdGUoMjAuMzY3OSkiPiYjeGE7CQkJCQkJPHRpdGxlIGlkPSJ0aXRsZTEwMTI1MCI+Zzg3MDwvdGl0bGU+JiN4YTsJCQkJCQk8ZyBpZD0ic2hhcGUzOTQ5LTE1IiB0cmFuc2Zvcm09InRyYW5zbGF0ZSgxMS45NzIsLTUuOTYwMDYpIj4mI3hhOwkJCQkJCQk8dGl0bGUgaWQ9InRpdGxlMTAxMjUyIj5wYXRoNjwvdGl0bGU+JiN4YTsJCQkJCQkJPHBhdGggaWQ9InBhdGgxMDEyNTQiIGlua3NjYXBlOmNvbm5lY3Rvci1jdXJ2YXR1cmU9IjAiIHN0eWxlPSJmaWxsOiM0NzQ3NEE7IiBkPSJNNC4wNiw2MS40MmMwLDAuODEsMCwxLjYyLDAsMi40MyAgICAgICAgIGMwLDAuMTcsMC4wMiwwLjM1LDAuMDMsMC41MmMwLjA0LDAuMjYsMC4xOCwwLjQxLDAuNDIsMC40OGMwLjI5LDAuMDksMC42LDAuMTQsMC45MSwwLjE2YzAuMTgsMC4wMiwwLjIxLDAuMDksMC4yMywwLjIyICAgICAgICAgYzAsMC4wNCwwLDAuMDcsMCwwLjEyYy0wLjAyLDAuNjEtMC4wOSwwLjY4LTAuNjcsMC42NGMtMS4zMi0wLjA4LTIuNjMtMC4wNy0zLjk0LDBjLTAuMTgsMC0wLjM1LDAuMDItMC41MiwwLjAyICAgICAgICAgYy0wLjExLDAtMC4xNC0wLjA1LTAuMTYtMC4xMmMtMC4wNS0wLjI0LTAuMDUtMC40OCwwLTAuNzNjMC4wMi0wLjEsMC4wOS0wLjEzLDAuMTktMC4xNWMwLjI0LTAuMDQsMC40Ny0wLjA5LDAuNzEtMC4xNCAgICAgICAgIGMwLjQzLTAuMSwwLjU5LTAuMjgsMC42MS0wLjcyYzAuMDMtMC40OSwwLjA1LTAuOTcsMC4wNS0xLjQ2YzAtMS40MSwwLTIuODMsMC00LjI1YzAtMC4zMS0wLjEyLTAuNS0wLjQtMC42NCAgICAgICAgIGMtMC4zMS0wLjE3LTAuNjQtMC4yOS0wLjk4LTAuNDFjLTAuMTEtMC4wMy0wLjIxLTAuMDctMC4zLTAuMTJDMC4wMiw1Ny4xMSwwLDU2Ljg5LDAuMjEsNTYuNzJjMC4xLTAuMDksMC4yLTAuMTIsMC4zNC0wLjE0ICAgICAgICAgYzEuMTEtMC4xNywyLjE4LTAuNDIsMy4yMi0wLjgzYzAuMTItMC4wNSwwLjE3LTAuMDIsMC4yMiwwLjA5YzAuMDUsMC4xLDAuMDcsMC4yMiwwLjA1LDAuMzRjLTAuMDEsMC4yOC0wLjAzLDAuNTQtMC4wNSwwLjgxICAgICAgICAgYzAsMC4xMS0wLjA1LDAuMjQsMC4wNCwwLjNjMC4xLDAuMDcsMC4xNy0wLjA5LDAuMjUtMC4xNGMwLjUyLTAuNDIsMS4wOC0wLjgsMS42OC0xLjA3YzAuNTQtMC4yNCwxLjA5LTAuNDIsMS43MS0wLjM4ICAgICAgICAgYzEuMTYsMC4wNywxLjk5LDAuNjUsMi41MiwxLjY3YzAuMjgsMC41NCwwLjQsMS4xMywwLjQ1LDEuNzNjMC4wNCwwLjQyLDAuMDUsMC44NSwwLjA1LDEuMjhjMCwxLjE5LDAuMDIsMi4zNywwLjAyLDMuNTYgICAgICAgICBjMCwwLjA4LDAsMC4xNywwLDAuMjZjMC4wMiwwLjI5LDAuMTIsMC40OCwwLjQyLDAuNThjMC4zMSwwLjExLDAuNiwwLjE4LDAuOTMsMC4yM2MwLjI3LDAuMDMsMC4yOSwwLjA5LDAuMzEsMC4zNCAgICAgICAgIGMwLDAuMDQsMCwwLjA2LDAsMC4wOWMtMC4wNCwwLjU5LTAuMDcsMC42MS0wLjY2LDAuNTdjLTEuMjktMC4wNy0yLjU5LTAuMDctMy44NywwYy0wLjE3LDAuMDItMC4zNCwwLTAuNTIsMC4wMiAgICAgICAgIGMtMC4xLDAtMC4xNy0wLjAyLTAuMTktMC4xMmMtMC4wMy0wLjIzLTAuMDYtMC40NS0wLjAxLTAuNjljMC4wMS0wLjExLDAuMDctMC4xNiwwLjE5LTAuMThjMC4yNi0wLjAzLDAuNTMtMC4wNywwLjc5LTAuMTMgICAgICAgICBjMC4yOC0wLjA3LDAuNDMtMC4yNSwwLjQ3LTAuNTJjMC4wMi0wLjE2LDAuMDMtMC4zMywwLjAzLTAuNDljMC0xLjIxLDAtMi40Mi0wLjAxLTMuNjFjMC0wLjQxLTAuMDItMC44My0wLjExLTEuMjQgICAgICAgICBjLTAuMi0wLjktMC44OC0xLjUtMS43OS0xLjYxYy0wLjgtMC4wOC0xLjUxLDAuMTItMi4xOCwwLjU2Yy0wLjMzLDAuMi0wLjQ3LDAuNS0wLjQ3LDAuODZjMCwwLjYsMCwxLjIxLDAsMS44MyAgICAgICAgIGMwLDAuMjYsMCwwLjUyLDAsMC43OEM0LjA0LDYxLjQyLDQuMDQsNjEuNDIsNC4wNiw2MS40MkM0LjA2LDYxLjQyLDQuMDYsNjEuNDIsNC4wNiw2MS40MnoiLz4mI3hhOwkJCQkJCTwvZz4mI3hhOwkJCQkJCTxnIGlkPSJzaGFwZTM5NTAtMTciIHRyYW5zZm9ybT0idHJhbnNsYXRlKDUwLjgwNzYsLTYuMTE1NTIpIj4mI3hhOwkJCQkJCQk8dGl0bGUgaWQ9InRpdGxlMTAxMjU3Ij5wYXRoMTI8L3RpdGxlPiYjeGE7CQkJCQkJCTxwYXRoIGlkPSJwYXRoMTAxMjU5IiBpbmtzY2FwZTpjb25uZWN0b3ItY3VydmF0dXJlPSIwIiBzdHlsZT0iZmlsbDojQzJCRkJGOyIgZD0iTTE1LjgyLDU2LjY4ICAgICAgICAgYy0wLjE5LTEuMjYtMC42NS0yLjM4LTEuNDYtMy4zN2MtMC43My0wLjg4LTEuNjEtMS41My0yLjY2LTEuOTdjLTEuMDktMC40NS0yLjI1LTAuNTgtMy40Mi0wLjYyICAgICAgICAgYy0wLjQ5LTAuMDItNy4wOSwwLjA5LTcuNTcsMGMtMC4xMi0wLjAyLTAuMjEsMC4wMi0wLjI4LDAuMTJjLTAuMDgsMC4xNC0wLjE3LDAuMjYtMC4yMiwwLjRDMCw1MS43MSwwLDUxLjY3LDAuNSw1MS43NCAgICAgICAgIGMwLjQyLDAuMDcsMC44MSwwLjEsMS4yMSwwLjIzYzAuMzYsMC4xMiwwLjYyLDAuMzIsMC43MSwwLjcyYzAuMDMsMC4xOSwwLjA3LDYuMjcsMC4wNyw5LjExYzAsMC42Ny0wLjAyLDEuMzQtMC4wNywyLjAyICAgICAgICAgYy0wLjAyLDAuMTUtMC4wNCwwLjMxLTAuMDksMC40NWMtMC4wNywwLjItMC4xOSwwLjM4LTAuNCwwLjQ2Yy0wLjIyLDAuMTEtMC40NiwwLjE4LTAuNzIsMC4xOSAgICAgICAgIGMtMC40NywwLjA1LTAuNTQsMC4wNy0wLjY5LDAuNTljLTAuMDIsMC4wNy0wLjA0LDAuMTQtMC4wNSwwLjE5Yy0wLjA0LDAuMjItMC4wMiwwLjI2LDAuMiwwLjI2ICAgICAgICAgYzEuMDQsMC4wMiw0LjMxLDAuMDUsNS4xNywwLjA1YzAuNDgtMC4wMiwxLjI2LDAuMDQsMi4wMi0wLjAzYzAuNDctMC4wNiwwLjkzLTAuMDksMS40LTAuMThjMS41OS0wLjI5LDMuMDEtMC45NSw0LjIyLTIgICAgICAgICBjMC43LTAuNjIsMS4yNC0xLjM1LDEuNjUtMi4xOGMwLjQ5LTAuOTYsMC42OS0yLjAyLDAuNzUtMy4wOUMxNS45Niw1Ny45MywxNS45Myw1Ny4zLDE1LjgyLDU2LjY4TDE1LjgyLDU2LjY4eiBNMTMuMzIsNTkuMTQgICAgICAgICBjLTAuMDcsMS4xLTAuMjksMi4xNy0wLjg2LDMuMTRjLTAuNzMsMS4yNi0xLjc3LDIuMTQtMy4yLDIuNDVjLTAuNjIsMC4xNC0xLjI0LDAuMTktMS44OCwwLjExICAgICAgICAgYy0wLjQ3LTAuMDYtMC45Mi0wLjExLTEuMzUtMC4yNmMtMC43OC0wLjI4LTEuMDUtMC43Ni0xLjA3LTEuNTFjLTAuMDQtMS4wOCwwLTguNy0wLjAyLTEwLjQxYzAtMC42MywwLjI4LTAuNzYsMC43My0wLjc4ICAgICAgICAgYzAuNjctMC4wNSwxLjM2LTAuMDQsMi4wMywwLjAzYzAuNzMsMC4wNywxLjQyLDAuMjUsMi4xLDAuNTJjMC41LDAuMjEsMC45NiwwLjUsMS4zNiwwLjg1YzAuOTMsMC43OSwxLjU1LDEuOCwxLjg4LDIuOTcgICAgICAgICBDMTMuMzIsNTcuMiwxMy4zNyw1OC4xNywxMy4zMiw1OS4xNHoiLz4mI3hhOwkJCQkJCTwvZz4mI3hhOwkJCQkJCTxnIGlkPSJzaGFwZTM5NTEtMTkiIHRyYW5zZm9ybT0idHJhbnNsYXRlKDY3Ljg5MzIsLTYuMDExOSkiPiYjeGE7CQkJCQkJCTx0aXRsZSBpZD0idGl0bGUxMDEyNjIiPnBhdGgxNDwvdGl0bGU+JiN4YTsJCQkJCQkJPHBhdGggaWQ9InBhdGgxMDEyNjQiIGlua3NjYXBlOmNvbm5lY3Rvci1jdXJ2YXR1cmU9IjAiIHN0eWxlPSJmaWxsOiNDMkJGQkY7IiBkPSJNMTMuMDksNjAuNzJjMC0wLjEsMC0wLjE5LTAuMDEtMC4yOSAgICAgICAgIGMtMC4xNi0wLjk1LTAuNjYtMS42Ny0xLjQ0LTIuMjNjLTAuNS0wLjM2LTEuMDctMC42LTEuNjUtMC43OGMtMC4xMS0wLjAzLTAuMTktMC4wNi0wLjMtMC4wOGMwLjAyLTAuMDksMC4wNy0wLjExLDAuMTItMC4xMiAgICAgICAgIGMwLjM1LTAuMTgsMC42OC0wLjM3LDAuOTctMC42MmMwLjU0LTAuNDUsMC45LTEuMDEsMS4wNy0xLjY4YzAuMS0wLjM2LDAuMS0wLjczLDAuMDctMS4xMWMtMC4wOS0wLjk1LTAuNS0xLjY5LTEuMjYtMi4yNCAgICAgICAgIGMtMC44LTAuNTktMS43My0wLjgzLTIuNy0wLjg1Yy0xLjg2LTAuMDMtMy43NCwwLTUuNjEsMGMtMC41NCwwLTEuMDcsMC4wNC0xLjYyLTAuMDVjLTAuMTEtMC4wMi0wLjI1LTAuMDUtMC4zMywwLjA3ICAgICAgICAgYy0wLjE0LDAuMjItMC4yOCwwLjQ1LTAuMzMsMC43MWMtMC4wMiwwLjEyLDAuMDIsMC4xOSwwLjE1LDAuMmMwLjQsMC4wNiwwLjgsMC4xMywxLjIsMC4xOGMwLjQ2LDAuMDcsMC43OSwwLjMzLDAuODMsMC43NCAgICAgICAgIGMwLjAzLDAuMjksMC4wNSwwLjU3LDAuMDUsMC44NmMwLDEuMDgtMC4wMiwyLjE2LTAuMDQsMy4yM2MtMC4wMywyLjEzLTAuMDEsNC4yNy0wLjAxLDYuNGMwLDAuMzgtMC4wNiwwLjc0LTAuMTMsMS4xMiAgICAgICAgIGMtMC4wNSwwLjI2LTAuMTksMC40My0wLjQ0LDAuNTJDMS4zMyw2NC44LDEsNjQuOTEsMC42NCw2NC45MWMtMC4yMywwLTAuMzYsMC4wOC0wLjQ1LDAuMjljLTAuMDcsMC4xNS0wLjE0LDAuMzMtMC4xNiwwLjQ4ICAgICAgICAgQzAsNjUuODksMC4wNSw2NS45NiwwLjI2LDY1LjkyYzAuMTUtMC4wMSw1Ljg2LDAuMTMsNi45MywwLjAyYzAuNjQtMC4wNywxLjI4LTAuMTUsMS45LTAuMzRjMS4wOS0wLjM1LDIuMDktMC44NSwyLjg4LTEuNyAgICAgICAgIGMwLjY2LTAuNjksMS4wNC0xLjUyLDEuMDctMi40OEMxMy4wOSw2MS4xOSwxMy4wOSw2MC45NywxMy4wOSw2MC43MnogTTQuNzIsNTMuNjZjMC4wMy0wLjQ3LDAuMDMtMC45MiwwLjA1LTEuMzggICAgICAgICBjMC0wLjI2LDAuMS0wLjM4LDAuMzYtMC40NGMwLjQyLTAuMDgsMC44My0wLjA1LDEuMjQtMC4wM2MwLjQyLDAuMDMsMC44MiwwLjA5LDEuMjMsMC4yMWMwLjc2LDAuMjIsMS4zNSwwLjY1LDEuNjksMS4zOCAgICAgICAgIGMwLjE2LDAuMzMsMC4yNSwwLjY5LDAuMjUsMS4wNWMwLjAxLDAuNDktMC4wMiwwLjk1LTAuMjEsMS40MmMtMC4yOSwwLjY0LTAuNzYsMS4wNS0xLjQ0LDEuMTcgICAgICAgICBjLTAuNjcsMC4xMy0yLjU5LDAuMDctMi44OCwwLjA3Yy0wLjI2LDAtMC4yOC0wLjAzLTAuMjgtMC4yOWMwLTAuNTUsMC0xLjExLDAtMS42NGwwLDBDNC43LDU0LjcsNC42OCw1NC4xOCw0LjcyLDUzLjY2eiAgICAgICAgICBNMTAuMzMsNjIuOTVjLTAuMjksMC43OC0wLjgzLDEuMzItMS41OSwxLjYxYy0wLjQxLDAuMTYtMC44MywwLjI0LTEuMjgsMC4yMmMtMC41My0wLjAxLTEuMDcsMC0xLjYtMC4xICAgICAgICAgYy0wLjczLTAuMTUtMS4wNi0wLjg1LTEuMTEtMS4zNWMtMC4wOS0wLjg4LTAuMDMtMS43OC0wLjA1LTIuNDNjMC0wLjkyLDAtMS41OSwwLTIuMjhjMC0wLjI4LDAuMDMtMC4zNywwLjMzLTAuMzcgICAgICAgICBjMC41My0wLjAxLDEuMDctMC4wMywxLjYyLDAuMDJjMC4zOCwwLjA0LDAuNzQsMC4wNywxLjExLDAuMTRjMC43NywwLjE3LDEuNDgsMC40NywyLjA0LDEuMDdjMC40NCwwLjQ4LDAuNjksMS4wNywwLjc0LDEuNzEgICAgICAgICBDMTAuNTksNjEuOCwxMC41Niw2Mi4zOCwxMC4zMyw2Mi45NUMxMC4zMyw2Mi45NSwxMC4zMyw2Mi45NSwxMC4zMyw2Mi45NXoiLz4mI3hhOwkJCQkJCTwvZz4mI3hhOwkJCQkJCTxnIGlkPSJzaGFwZTM5NTItMjEiIHRyYW5zZm9ybT0idHJhbnNsYXRlKDI1LjU4NTIpIj4mI3hhOwkJCQkJCQk8dGl0bGUgaWQ9InRpdGxlMTAxMjY3Ij5wYXRoMTY8L3RpdGxlPiYjeGE7CQkJCQkJCTxwYXRoIGlkPSJwYXRoMTAxMjY5IiBpbmtzY2FwZTpjb25uZWN0b3ItY3VydmF0dXJlPSIwIiBzdHlsZT0iZmlsbDojNDc0NzRBOyIgZD0iTTguNzQsNTEuNzJjMC4xNiwwLjAyLDAuMzEsMC4wNiwwLjQ1LDAuMDcgICAgICAgICBjMC40OCwwLjAyLDEuMDUtMC4xNSwxLjIzLTAuODNjMC4wOC0wLjMyLDAuMS0wLjY0LDAtMC45OGMtMC4xMSwwLTAuMTYsMC4wOS0wLjIxLDAuMTJjLTAuMjYsMC4yMS0wLjU1LDAuMzMtMC44NiwwLjM2ICAgICAgICAgQzguNzIsNTAuNTMsOC4xLDUwLjUsNy41LDUwLjI3Yy0wLjI4LTAuMS0wLjU2LTAuMi0wLjg1LTAuMjljLTAuNTktMC4xOS0xLjIxLTAuMjgtMS44My0wLjI0ICAgICAgICAgYy0wLjg4LDAuMDctMS43MSwwLjM2LTIuNDksMC43N2MtMC44MywwLjQ1LTEuNDEsMS4xMy0xLjY5LDIuMDRjLTAuMTYsMC41NC0wLjE3LDEuMDktMC4xLDEuNjRjMC4xNywxLjI3LDAuODIsMi4xNSwyLDIuNjEgICAgICAgICBjMC4wNywwLjAyLDAuMTIsMC4wNSwwLjE5LDAuMDdjMC4xNiwwLjA5LDAuMTcsMC4xNywwLjAzLDAuM2MtMC4xMywwLjEtMC4yNywwLjItMC40MywwLjI5Yy0wLjM0LDAuMjEtMC42OSwwLjQxLTEuMDMsMC42NCAgICAgICAgIGMtMC4yNiwwLjE1LTAuMywwLjI4LTAuMjEsMC41NWMwLjEsMC4zMywwLjI5LDAuNjEsMC41NSwwLjgzYzAuMjQsMC4yMSwwLjUsMC4zNiwwLjgsMC40OGMwLjE5LDAuMDksMC4xOSwwLjE0LDAuMDEsMC4yOCAgICAgICAgIGMtMC4zMywwLjI0LTAuNjUsMC40Ny0wLjk4LDAuNzFjLTAuMzMsMC4yNC0wLjY2LDAuNTItMC45MywwLjgzYy0wLjQsMC40NS0wLjU0LDAuOTctMC40MiwxLjU1ICAgICAgICAgYzAuMTQsMC42MywwLjQzLDEuMTMsMC45LDEuNTZDMS40Nyw2NS4zLDIsNjUuNiwyLjYxLDY1Ljc1YzAuOTcsMC4yOCwxLjk3LDAuMywyLjk1LDAuMTFjMS40Mi0wLjI2LDIuNjUtMC45LDMuNjMtMS45NiAgICAgICAgIGMwLjY3LTAuNywxLjA3LTEuNTMsMS4xMS0yLjU0YzAuMDUtMS4yMS0wLjY5LTIuMjItMS44Ny0yLjUyYy0wLjMxLTAuMDctMC42Mi0wLjEyLTAuOTMtMC4xN2MtMC45NS0wLjEyLTEuOS0wLjE3LTIuODUtMC4yNCAgICAgICAgIGMtMC4zMS0wLjAyLTAuNjItMC4wNy0wLjg4LTAuMjNjLTAuMzMtMC4yLTAuNDItMC42LTAuMjEtMC44NmMwLjE1LTAuMTksMC4zNC0wLjMxLDAuNTktMC4zM2MwLjE5LTAuMDIsMC4zNi0wLjAzLDAuNTUtMC4wNSAgICAgICAgIGMxLjEyLTAuMTIsMi4wOS0wLjU3LDIuOTItMS4zM2MwLjQzLTAuNCwwLjcyLTAuOSwwLjg4LTEuNDdjMC4yMS0wLjc0LDAuMjEtMS41LDAuMDMtMi4yNkM4LjQ4LDUxLjcxLDguNSw1MS42OSw4Ljc0LDUxLjcyeiAgICAgICAgICBNNC41MSw2MC4zM2MwLjEsMC4wMSwwLjIxLDAsMC4zMSwwQzUuNTUsNjAuMzYsNi4yOSw2MC40MSw3LDYwLjZjMC4yNCwwLjA3LDAuNDUsMC4xNiwwLjY3LDAuMjYgICAgICAgICBjMC42OSwwLjM4LDAuOTUsMS4wNCwwLjg2LDEuNzVDOC40Myw2My4zOSw4LDYzLjk0LDcuMzIsNjQuM2MtMC40NCwwLjI0LTAuOTUsMC4zNi0xLjQ2LDAuNDJjLTAuMTksMC4wMS0wLjM3LDAtMC41NiwwICAgICAgICAgYy0wLjYsMC4wMS0xLjE5LTAuMDYtMS43Ni0wLjNjLTAuNC0wLjE1LTAuNzItMC4zOC0xLjAyLTAuNjljLTAuNi0wLjYtMC45LTEuNzEsMC4wMi0yLjYxQzMuMDksNjAuNiwzLjcxLDYwLjI2LDQuNTEsNjAuMzN6ICAgICAgICAgIE02LjQ4LDU0Ljk0Yy0wLjM2LDAuOTEtMS4xNiwxLjE5LTEuOTUsMS4wN2MtMC43My0wLjExLTEuMjYtMC41LTEuNjEtMS4xNmMtMC40NS0wLjg4LTAuNTctMS44LTAuMzEtMi43NSAgICAgICAgIGMwLjE5LTAuNywwLjYyLTEuMjQsMS4zOC0xLjM2YzAuOTctMC4xNywxLjg4LDAuMTcsMi4zOCwxLjE0YzAuMjUsMC40NywwLjM3LDEuMDQsMC4zNywxLjg1ICAgICAgICAgQzYuNzIsNTQuMDYsNi42NSw1NC41MSw2LjQ4LDU0Ljk0eiIvPiYjeGE7CQkJCQkJPC9nPiYjeGE7CQkJCQkJPGcgaWQ9InNoYXBlMzk1My0yMyIgdHJhbnNmb3JtPSJ0cmFuc2xhdGUoMCwtNS43NTI3NykiPiYjeGE7CQkJCQkJCTx0aXRsZSBpZD0idGl0bGUxMDEyNzIiPnBhdGgxODwvdGl0bGU+JiN4YTsJCQkJCQkJPHBhdGggaWQ9InBhdGgxMDEyNzQiIGlua3NjYXBlOmNvbm5lY3Rvci1jdXJ2YXR1cmU9IjAiIHN0eWxlPSJmaWxsOiM0NzQ3NEE7IiBkPSJNMTAuMyw1OS41MmMtMC4xNi0wLjk0LTAuNS0xLjc4LTEuMTQtMi40OSAgICAgICAgIEM4LjIxLDU1Ljk3LDcsNTUuNTIsNS42Myw1NS41MWMtMS4xOS0wLjAyLTIuMzEsMC4zMy0zLjMyLDAuOTVjLTEsMC42Mi0xLjY5LDEuNS0yLjAyLDIuNjRjLTAuMjksMS0wLjI3LDIuMDItMC4wNSwzLjA0ICAgICAgICAgYzAuNjEsMi43MywyLjcxLDMuOTEsNS4yNCwzLjczYzAuNzQtMC4wNSwxLjQ1LTAuMjksMi4xMi0wLjYyYzEtMC40NywxLjczLTEuMjEsMi4yMy0yLjE5YzAuNC0wLjgyLDAuNTctMS42OCwwLjU1LTIuNjYgICAgICAgICBDMTAuMzcsNjAuMTUsMTAuMzUsNTkuODMsMTAuMyw1OS41MnogTTcuODQsNjMuMzVjLTAuMzEsMC44My0wLjksMS4zMy0xLjc4LDEuNDVjLTAuNzYsMC4xMS0xLjQ2LTAuMDgtMi4xLTAuNTMgICAgICAgICBjLTAuNDctMC4zNS0wLjgzLTAuNzgtMS4wOS0xLjNDMi4xNiw2MS41MiwyLjA0LDYwLDIuNCw1OC40NGMwLjEyLTAuNDgsMC4zNi0wLjkxLDAuNzMtMS4yNmMwLjY0LTAuNTgsMS4zOC0wLjcyLDIuMjEtMC41NSAgICAgICAgIGMwLjc5LDAuMTcsMS40LDAuNiwxLjg4LDEuMjZzMC43MywxLjQyLDAuODYsMi4yMWMwLjA3LDAuNCwwLjA3LDAuODEsMC4wOSwxLjA3QzguMTcsNjIsOC4xLDYyLjY4LDcuODQsNjMuMzV6Ii8+JiN4YTsJCQkJCQk8L2c+JiN4YTsJCQkJCQk8ZyBpZD0ic2hhcGUzOTU0LTI1IiB0cmFuc2Zvcm09InRyYW5zbGF0ZSgzNy42MjYzLC01LjczNTUpIj4mI3hhOwkJCQkJCQk8dGl0bGUgaWQ9InRpdGxlMTAxMjc3Ij5wYXRoMjA8L3RpdGxlPiYjeGE7CQkJCQkJCTxwYXRoIGlkPSJwYXRoMTAxMjc5IiBpbmtzY2FwZTpjb25uZWN0b3ItY3VydmF0dXJlPSIwIiBzdHlsZT0iZmlsbDojNDc0NzRBOyIgZD0iTTEwLjQyLDU5LjY0ICAgICAgICAgYy0wLjE0LTEuMDEtMC41LTEuOTItMS4yMS0yLjY4Yy0wLjkzLTEuMDItMi4xNC0xLjQ1LTMuNDktMS40N2MtMS4xNi0wLjAyLTIuMjMsMC4zMS0zLjIyLDAuODggICAgICAgICBjLTEuMSwwLjY2LTEuODYsMS41OS0yLjE1LDIuODVjLTAuMzUsMS40Mi0wLjIxLDIuOCwwLjQxLDQuMTFjMC41NywxLjIxLDEuNTQsMS45OSwyLjgyLDIuMzRjMS40MSwwLjM4LDIuNzYsMC4yLDQuMDctMC40NCAgICAgICAgIGMxLjE0LTAuNTUsMS45Ni0xLjQxLDIuNDItMi41OWMwLjI4LTAuNjksMC4zOC0xLjQzLDAuNC0yLjNDMTAuNDksNjAuMTksMTAuNDUsNTkuOTEsMTAuNDIsNTkuNjR6IE04LjAzLDYzLjExICAgICAgICAgYy0wLjI3LDAuOTMtMC44NiwxLjU0LTEuODUsMS42N2MtMC43MiwwLjExLTEuNDEtMC4wNi0yLjAzLTAuNDhjLTAuNTQtMC4zNi0wLjkyLTAuODUtMS4yLTEuNDIgICAgICAgICBjLTAuMzEtMC42LTAuNDgtMS4yNC0wLjU1LTEuOWMtMC4xLTAuODEtMC4xLTEuNiwwLjA5LTIuNDFjMC4wMy0wLjE2LDAuMDgtMC4zMiwwLjE1LTAuNDdjMC40OS0xLjIxLDEuNTYtMS43NiwyLjgyLTEuNDkgICAgICAgICBjMC44NSwwLjE5LDEuNDgsMC42NiwxLjk3LDEuMzdjMC40NiwwLjY5LDAuNjksMS40NSwwLjc5LDIuMjZjMC4wNiwwLjMzLDAuMDcsMC42NywwLjA2LDAuOTcgICAgICAgICBDOC4yOCw2MS44OCw4LjIyLDYyLjUsOC4wMyw2My4xMXoiLz4mI3hhOwkJCQkJCTwvZz4mI3hhOwkJCQkJPC9nPiYjeGE7CQkJCTwvZz4mI3hhOwkJCTwvZz4mI3hhOwkJPC9nPiYjeGE7CTwvZz4mI3hhOzwvZz4mI3hhOzwvc3ZnPg==;" parent="BIbaWBOUddNFx-qwVSOw-2311" vertex="1">
          <mxGeometry x="126.99999999999977" y="10" width="179.91" height="114" as="geometry" />
        </mxCell>
        <mxCell id="BIbaWBOUddNFx-qwVSOw-2275" value="" style="image;sketch=0;aspect=fixed;html=1;points=[];align=center;fontSize=12;image=img/lib/mscae/Cache_Redis_Product.svg;" parent="BIbaWBOUddNFx-qwVSOw-2311" vertex="1">
          <mxGeometry x="353.9999999999998" y="14.800000000000182" width="130" height="109.2" as="geometry" />
        </mxCell>
        <mxCell id="BIbaWBOUddNFx-qwVSOw-2377" style="edgeStyle=orthogonalEdgeStyle;rounded=0;orthogonalLoop=1;jettySize=auto;html=1;startArrow=classic;startFill=1;" parent="1" source="BIbaWBOUddNFx-qwVSOw-2373" target="BIbaWBOUddNFx-qwVSOw-2374" edge="1">
          <mxGeometry relative="1" as="geometry" />
        </mxCell>
        <mxCell id="BIbaWBOUddNFx-qwVSOw-2398" style="edgeStyle=orthogonalEdgeStyle;rounded=0;orthogonalLoop=1;jettySize=auto;html=1;startArrow=classic;startFill=1;" parent="1" source="BIbaWBOUddNFx-qwVSOw-2326" target="BIbaWBOUddNFx-qwVSOw-2389" edge="1">
          <mxGeometry relative="1" as="geometry" />
        </mxCell>
        <mxCell id="BIbaWBOUddNFx-qwVSOw-2326" value="000" style="shape=image;html=1;verticalAlign=top;verticalLabelPosition=bottom;labelBackgroundColor=#ffffff;imageAspect=0;aspect=fixed;image=https://cdn3.iconfinder.com/data/icons/flat-office-icons-1/140/Artboard_1-13-128.png" parent="1" vertex="1">
          <mxGeometry x="3426" y="2068" width="128" height="128" as="geometry" />
        </mxCell>
        <mxCell id="BIbaWBOUddNFx-qwVSOw-2399" style="edgeStyle=orthogonalEdgeStyle;rounded=0;orthogonalLoop=1;jettySize=auto;html=1;entryX=0.25;entryY=1;entryDx=0;entryDy=0;startArrow=classic;startFill=1;" parent="1" source="BIbaWBOUddNFx-qwVSOw-2327" target="BIbaWBOUddNFx-qwVSOw-2389" edge="1">
          <mxGeometry relative="1" as="geometry" />
        </mxCell>
        <mxCell id="BIbaWBOUddNFx-qwVSOw-2327" value="" style="shape=image;html=1;verticalAlign=top;verticalLabelPosition=bottom;labelBackgroundColor=#ffffff;imageAspect=0;aspect=fixed;image=https://cdn4.iconfinder.com/data/icons/smart-phones-technologies/128/android-phone-color.png" parent="1" vertex="1">
          <mxGeometry x="3426" y="2244" width="128" height="128" as="geometry" />
        </mxCell>
        <mxCell id="BIbaWBOUddNFx-qwVSOw-2379" value="" style="group" parent="1" vertex="1" connectable="0">
          <mxGeometry x="3392.25" y="1695.22" width="194.5" height="222.77999999999997" as="geometry" />
        </mxCell>
        <mxCell id="BIbaWBOUddNFx-qwVSOw-2373" value="" style="image;aspect=fixed;html=1;points=[];align=center;fontSize=12;image=img/lib/azure2/management_governance/My_Customers.svg;" parent="BIbaWBOUddNFx-qwVSOw-2379" vertex="1">
          <mxGeometry x="11.75" width="171" height="138.78" as="geometry" />
        </mxCell>
        <mxCell id="BIbaWBOUddNFx-qwVSOw-2376" value="Employee" style="whiteSpace=wrap;html=1;dashed=1;strokeWidth=2;fontFamily=Helvetica;fontSize=29;fontStyle=1;rounded=1;glass=1;shadow=1;strokeColor=none;fillColor=none;" parent="BIbaWBOUddNFx-qwVSOw-2379" vertex="1">
          <mxGeometry x="-2.25" y="162.77999999999997" width="194.5" height="60" as="geometry" />
        </mxCell>
        <mxCell id="BIbaWBOUddNFx-qwVSOw-2386" style="edgeStyle=orthogonalEdgeStyle;rounded=0;orthogonalLoop=1;jettySize=auto;html=1;startArrow=classic;startFill=1;" parent="1" source="BIbaWBOUddNFx-qwVSOw-2384" target="BIbaWBOUddNFx-qwVSOw-2374" edge="1">
          <mxGeometry relative="1" as="geometry" />
        </mxCell>
        <mxCell id="BIbaWBOUddNFx-qwVSOw-2388" value="App Service Network" style="whiteSpace=wrap;html=1;dashed=1;strokeWidth=2;fontFamily=Helvetica;fontSize=29;fontStyle=1;rounded=1;glass=1;shadow=1;strokeColor=none;fillColor=none;" parent="1" vertex="1">
          <mxGeometry x="3426" y="3030" width="310" height="60" as="geometry" />
        </mxCell>
        <mxCell id="BIbaWBOUddNFx-qwVSOw-2390" value="" style="group" parent="1" vertex="1" connectable="0">
          <mxGeometry x="3120" y="1706.61" width="220" height="187.3900000000001" as="geometry" />
        </mxCell>
        <mxCell id="BIbaWBOUddNFx-qwVSOw-2374" value="" style="image;aspect=fixed;html=1;points=[];align=center;fontSize=12;image=img/lib/azure2/general/Browser.svg;" parent="BIbaWBOUddNFx-qwVSOw-2390" vertex="1">
          <mxGeometry x="45" width="145" height="116" as="geometry" />
        </mxCell>
        <mxCell id="BIbaWBOUddNFx-qwVSOw-2387" value="Browser" style="whiteSpace=wrap;html=1;dashed=1;strokeWidth=2;fontFamily=Helvetica;fontSize=29;fontStyle=1;rounded=1;glass=1;shadow=1;strokeColor=none;fillColor=none;" parent="BIbaWBOUddNFx-qwVSOw-2390" vertex="1">
          <mxGeometry y="127.3900000000001" width="220" height="60" as="geometry" />
        </mxCell>
        <mxCell id="BIbaWBOUddNFx-qwVSOw-2391" value="" style="group" parent="1" vertex="1" connectable="0">
          <mxGeometry x="2825" y="1699" width="228" height="194" as="geometry" />
        </mxCell>
        <mxCell id="BIbaWBOUddNFx-qwVSOw-2384" value="" style="verticalLabelPosition=bottom;html=1;verticalAlign=top;align=center;strokeColor=none;fillColor=#FF8000;shape=mxgraph.azure.cloud;" parent="BIbaWBOUddNFx-qwVSOw-2391" vertex="1">
          <mxGeometry x="2.0727272727272728" width="204.16363636363636" height="132" as="geometry" />
        </mxCell>
        <mxCell id="BIbaWBOUddNFx-qwVSOw-2389" value="Cloudflare&amp;nbsp;" style="whiteSpace=wrap;html=1;dashed=1;strokeWidth=2;fontFamily=Helvetica;fontSize=29;fontStyle=1;rounded=1;glass=1;shadow=1;strokeColor=none;fillColor=none;" parent="BIbaWBOUddNFx-qwVSOw-2391" vertex="1">
          <mxGeometry y="134" width="228" height="60" as="geometry" />
        </mxCell>
        <mxCell id="BIbaWBOUddNFx-qwVSOw-2421" style="edgeStyle=orthogonalEdgeStyle;rounded=0;orthogonalLoop=1;jettySize=auto;html=1;startArrow=classic;startFill=1;" parent="1" source="BIbaWBOUddNFx-qwVSOw-2321" target="BIbaWBOUddNFx-qwVSOw-2394" edge="1">
          <mxGeometry relative="1" as="geometry" />
        </mxCell>
        <mxCell id="BIbaWBOUddNFx-qwVSOw-2321" value="" style="rounded=1;whiteSpace=wrap;html=1;dashed=1;strokeColor=#009900;strokeWidth=2;fillColor=none;fontFamily=Verdana;fontSize=12;fontColor=#00BEF2;dashPattern=12 12;gradientColor=none;glass=1;" parent="1" vertex="1">
          <mxGeometry x="2112" y="1350" width="548" height="230" as="geometry" />
        </mxCell>
        <mxCell id="BIbaWBOUddNFx-qwVSOw-2395" style="edgeStyle=orthogonalEdgeStyle;rounded=0;orthogonalLoop=1;jettySize=auto;html=1;startArrow=classic;startFill=1;" parent="1" source="BIbaWBOUddNFx-qwVSOw-2394" target="BIbaWBOUddNFx-qwVSOw-2384" edge="1">
          <mxGeometry relative="1" as="geometry" />
        </mxCell>
        <mxCell id="BIbaWBOUddNFx-qwVSOw-2400" style="edgeStyle=orthogonalEdgeStyle;rounded=0;orthogonalLoop=1;jettySize=auto;html=1;entryX=1;entryY=0.25;entryDx=0;entryDy=0;startArrow=classic;startFill=1;" parent="1" source="BIbaWBOUddNFx-qwVSOw-2394" target="BIbaWBOUddNFx-qwVSOw-2204" edge="1">
          <mxGeometry relative="1" as="geometry" />
        </mxCell>
        <mxCell id="BIbaWBOUddNFx-qwVSOw-2394" value="" style="image;aspect=fixed;html=1;points=[];align=center;fontSize=12;image=img/lib/azure2/networking/Application_Gateways.svg;" parent="1" vertex="1">
          <mxGeometry x="1977" y="1701" width="130" height="130" as="geometry" />
        </mxCell>
        <mxCell id="BIbaWBOUddNFx-qwVSOw-2401" style="edgeStyle=orthogonalEdgeStyle;rounded=0;orthogonalLoop=1;jettySize=auto;html=1;entryX=1.009;entryY=0.362;entryDx=0;entryDy=0;entryPerimeter=0;startArrow=classic;startFill=1;" parent="1" source="BIbaWBOUddNFx-qwVSOw-2394" target="BIbaWBOUddNFx-qwVSOw-2244" edge="1">
          <mxGeometry relative="1" as="geometry">
            <Array as="points">
              <mxPoint x="2042" y="2100" />
            </Array>
          </mxGeometry>
        </mxCell>
        <mxCell id="BIbaWBOUddNFx-qwVSOw-2402" style="edgeStyle=orthogonalEdgeStyle;rounded=0;orthogonalLoop=1;jettySize=auto;html=1;entryX=1.001;entryY=0.579;entryDx=0;entryDy=0;entryPerimeter=0;startArrow=classic;startFill=1;" parent="1" source="BIbaWBOUddNFx-qwVSOw-2394" target="BIbaWBOUddNFx-qwVSOw-2235" edge="1">
          <mxGeometry relative="1" as="geometry">
            <Array as="points">
              <mxPoint x="2070" y="2435" />
            </Array>
          </mxGeometry>
        </mxCell>
        <mxCell id="BIbaWBOUddNFx-qwVSOw-2403" value="" style="group" parent="1" vertex="1" connectable="0">
          <mxGeometry x="2168" y="1375" width="400" height="190" as="geometry" />
        </mxCell>
        <mxCell id="BIbaWBOUddNFx-qwVSOw-2308" value="" style="shape=image;verticalLabelPosition=bottom;labelBackgroundColor=#ffffff;verticalAlign=top;aspect=fixed;imageAspect=0;image=data:image/svg+xml,PHN2ZyB4bWxuczpkYz0iaHR0cDovL3B1cmwub3JnL2RjL2VsZW1lbnRzLzEuMS8iIHhtbG5zOmNjPSJodHRwOi8vY3JlYXRpdmVjb21tb25zLm9yZy9ucyMiIHhtbG5zOnJkZj0iaHR0cDovL3d3dy53My5vcmcvMTk5OS8wMi8yMi1yZGYtc3ludGF4LW5zIyIgeG1sbnM6c3ZnPSJodHRwOi8vd3d3LnczLm9yZy8yMDAwL3N2ZyIgeG1sbnM9Imh0dHA6Ly93d3cudzMub3JnLzIwMDAvc3ZnIiB4bWxuczpzb2RpcG9kaT0iaHR0cDovL3NvZGlwb2RpLnNvdXJjZWZvcmdlLm5ldC9EVEQvc29kaXBvZGktMC5kdGQiIHhtbG5zOmlua3NjYXBlPSJodHRwOi8vd3d3Lmlua3NjYXBlLm9yZy9uYW1lc3BhY2VzL2lua3NjYXBlIiB2ZXJzaW9uPSIxLjEiIGlkPSJzdmcxMTEyNyIgaW5rc2NhcGU6dmVyc2lvbj0iMC45Mi4zICgyNDA1NTQ2LCAyMDE4LTAzLTExKSIgc29kaXBvZGk6ZG9jbmFtZT0id2ViX2FwcHMuc3ZnIiB4PSIwcHgiIHk9IjBweCIgdmlld0JveD0iMCAwIDUxLjAyOTMxNiA1MS4wMTk5OTkiIHhtbDpzcGFjZT0icHJlc2VydmUiIHdpZHRoPSI1MS4wMjkzMTYiIGhlaWdodD0iNTEuMDIiPjxtZXRhZGF0YSBpZD0ibWV0YWRhdGExMjM5MiI+PHJkZjpSREY+PGNjOldvcmsgcmRmOmFib3V0PSIiPjxkYzpmb3JtYXQ+aW1hZ2Uvc3ZnK3htbDwvZGM6Zm9ybWF0PjxkYzp0eXBlIHJkZjpyZXNvdXJjZT0iaHR0cDovL3B1cmwub3JnL2RjL2RjbWl0eXBlL1N0aWxsSW1hZ2UiLz48ZGM6dGl0bGUvPjwvY2M6V29yaz48L3JkZjpSREY+PC9tZXRhZGF0YT48ZGVmcyBpZD0iZGVmczEyMzkwIj4mI3hhOwkmI3hhOwkmI3hhOyYjeGE7CQkmI3hhOwkJJiN4YTsJCSYjeGE7CSYjeGE7CQkJJiN4YTsJCQkmI3hhOwkJCSYjeGE7CQkmI3hhOwkJCSYjeGE7CQkJJiN4YTsJCQkmI3hhOwkJJiN4YTsJCQkJJiN4YTsJCQkmI3hhOwkJCQkmI3hhOwkJCSYjeGE7CQkJCQkmI3hhOwkJCQkmI3hhOwkJCQkJJiN4YTsJCQkJPC9kZWZzPiYjeGE7PGZpbHRlciBpZD0iZmlsdGVyXzIiPiYjeGE7CTxmZUdhdXNzaWFuQmx1ciBpZD0iZmVHYXVzc2lhbkJsdXIxMTEwMCIgc3RkRGV2aWF0aW9uPSIyIi8+JiN4YTs8L2ZpbHRlcj4mI3hhOzxzb2RpcG9kaTpuYW1lZHZpZXcgYm9yZGVyY29sb3I9IiM2NjY2NjYiIGJvcmRlcm9wYWNpdHk9IjEiIGZpdC1tYXJnaW4tYm90dG9tPSIwIiBmaXQtbWFyZ2luLWxlZnQ9IjAiIGZpdC1tYXJnaW4tcmlnaHQ9IjAiIGZpdC1tYXJnaW4tdG9wPSIwIiBncmlkdG9sZXJhbmNlPSIxMCIgZ3VpZGV0b2xlcmFuY2U9IjEwIiBpZD0ibmFtZWR2aWV3MTExMjkiIGlua3NjYXBlOmN1cnJlbnQtbGF5ZXI9InN2ZzExMTI3IiBpbmtzY2FwZTpjeD0iMzQuNTc5OTYxIiBpbmtzY2FwZTpjeT0iMzMuNzcwNzQ2IiBpbmtzY2FwZTpwYWdlb3BhY2l0eT0iMCIgaW5rc2NhcGU6cGFnZXNoYWRvdz0iMiIgaW5rc2NhcGU6d2luZG93LWhlaWdodD0iMTAxNyIgaW5rc2NhcGU6d2luZG93LW1heGltaXplZD0iMSIgaW5rc2NhcGU6d2luZG93LXdpZHRoPSIxOTIwIiBpbmtzY2FwZTp3aW5kb3cteD0iLTgiIGlua3NjYXBlOndpbmRvdy15PSItOCIgaW5rc2NhcGU6em9vbT0iOC42MTMxNjY5IiBvYmplY3R0b2xlcmFuY2U9IjEwIiBwYWdlY29sb3I9IiNmZmZmZmYiIHNob3dncmlkPSJmYWxzZSI+JiN4YTsJPC9zb2RpcG9kaTpuYW1lZHZpZXc+JiN4YTs8cGF0aCBkPSJtIDQxLjAxNDUyNiw0NS43NiBjIC00LjYyLDMuNTMgLTEwLjA3LDUuMjYgLTE1LjQ3LDUuMjYgLTcuNjgsMCAtMTUuMjcsLTMuNDUgLTIwLjI3OTk5OTYsLTEwLjAxIEMgLTMuMzA1NDc0LDI5LjgyIC0xLjE5NTQ3NCwxMy44MyAxMC4wMTQ1MjYsNS4yNSBjIDQuNjIsLTMuNTUgMTAuMDgsLTUuMjUgMTUuNDgsLTUuMjUgNy42NywwIDE1LjI2LDMuNDUgMjAuMjgsMTAuMDEgOC41NywxMS4xOCA2LjQzLDI3LjE5IC00Ljc2LDM1Ljc1IHoiIHN0eWxlPSJmaWxsOiM1OWI0ZDkiIGlua3NjYXBlOmNvbm5lY3Rvci1jdXJ2YXR1cmU9IjAiIGlkPSJwYXRoMTExMTMiLz48cGF0aCBkPSJtIDM2LjMzMTI3NiwyOS45ODI5NyBjIDEuODUsMi40MSA1LjI5LDIuODUgNy43LDEuMDIgMC4xMiwtMC4wOSAwLjIyLC0wLjIxIDAuMzMsLTAuMzEgMi40NiwxLjczIDQuMTcsMi44NyA1LjEzLDMuNTMgMC4yOCwtMC43NCAwLjQ4LC0xLjQ1IDAuNjgsLTIuMTkgLTEuMDEsLTAuNzYgLTIuMzksLTEuODEgLTQuMzcsLTMuNDIgMC42NSwtMS43MiAwLjQ0LC0zLjcyIC0wLjc1LC01LjI4IC0xLjcsLTIuMjEgLTQuNzIsLTIuNzcgLTcuMDgsLTEuNDEgLTIuNiwtMi4zMyAtNS40NSwtNSAtOC40NiwtNy45OSA5LjM1LC01LjAzIDE2LC00LjI5IDE2LC00LjI5IC0xLjExLC0xLjQyIC0yLjM2LC0yLjY2IC0zLjY4LC0zLjc4IC0zLjk1LC0wLjYxIC0xMC4wNywtMC41NCAtMTcuMDcsMy4xOSBsIC0wLjAxLC0wLjAxIHYgMCBjIC0yLjMzLC0yLjQ0IC00LjcxLC01LjA2IC03LjEyLC03Ljg3IC0xLjE2LDAuMzcgLTIuMjksMC44MyAtMy4zOCwxLjM4IDEuNzgsMi45MiA0LjE4LDUuODcgNi44OSw4Ljc0IDAsMC4wMSAwLjAxLDAuMDEgMC4wMiwwLjAyIC0yLjI2LDEuNTcgLTQuNzcsMy42OCAtNy4wOSw2LjEzIC0wLjMsMC4zMiAtMC41OCwwLjY0IC0wLjg2LDAuOTUgLTEuMzgsLTAuMjkgLTIuODQsLTAuMiAtNC4xOTk5OTk2LDAuMjkgLTIuMzEsLTQuOTggLTIuMTMsLTguOTkgLTEuNzYsLTExLjA1IC0xLDEuMDUgLTEuOTQsMi4xNSAtMi43NTAwMDA0LDMuMzMgLTAuNiwyLjQ3IC0wLjc3LDYuMDIgMS4wMTAwMDA0LDEwLjMgLTIuMDYwMDAwNCwyLjcgLTIuMTYwMDAwNCw2LjUyIC0wLjAxLDkuMzUgMC4xOCwwLjIzIDAuMzcsMC40NSAwLjU3LDAuNjUgLTAuOTQwMDAwNCwzLjIgLTEuMzYwMDAwNCw2LjI5IC0xLjQ5MDAwMDQsOC45NCAwLjI0LDAuMzMgMC4yNCwwLjYgMC40OCwwLjkyIDEuMjMwMDAwNCwxLjU3IDIuNzYwMDAwNCwyLjg5IDQuMjUwMDAwNCw0LjA5IC0wLjE4LC0yLjgxIDAuMDEsLTYuOTUgMS43NDk5OTk2LC0xMS42MSAxLjIsMC4wOSAyLjQxLC0wLjA5IDMuNTUsLTAuNTcgMC42NiwwLjU3IDEuMzQsMS4xNSAyLjA3LDEuNzQgMi41LDEuOTggNSwzLjUzIDcuNDMsNC43NCAtMC4xMiwxLjI0IDAuMTksMi41MiAwLjk5LDMuNTkgMS43MiwyLjIyIDQuOTEsMi42NCA3LjEzLDAuOTQgMC40NiwtMC4zNiAwLjgzLC0wLjc4IDEuMTMsLTEuMjQgMy45NywwLjg4IDcuNDQsMS4wNCAxMC4wMSwxLjA0IDAuMzksMCAyLjIyLC0yLjQ5IDMuMjYsLTQuMDMgLTEuNTYsMC4zMyAtNi4yLDAuOTcgLTEyLjU1LC0wLjg2IC0wLjE1LC0wLjcxIC0wLjQ0LC0xLjQgLTAuOTEsLTIuMDIgLTEuNjIsLTIuMTEgLTQuNTYsLTIuNTcgLTYuNzYsLTEuMTUgLTIuMiwtMS4yIC00LjUxLC0yLjcgLTYuODksLTQuNTkgLTAuNDgsLTAuMzggLTAuOTUsLTAuNzYgLTEuMzksLTEuMTQgMS40NSwtMi4yOSAxLjYxLC01LjIzIDAuMzIsLTcuNyAwLjMsLTAuMjkgMC41OCwtMC41OSAwLjg5LC0wLjg4IDIuMzYsLTIuMiA0LjU4LC0zLjk2IDYuNjYsLTUuMzggLTAuMDksLTAuMDggLTAuMTYsLTAuMTYgLTAuMjUsLTAuMjQgMC4wOSwwLjA4IDAuMTYsMC4xNiAwLjI1LDAuMjQgdiAwIGMgMy4xOCwyLjk0IDYuNTYsNS43MyA5Ljc2LDguMjMgLTAuODUsMS43OSAtMC43MiwzLjk4IDAuNTcsNS42NiB6IiBzdHlsZT0iZmlsbDojZmZmZmZmIiBpbmtzY2FwZTpjb25uZWN0b3ItY3VydmF0dXJlPSIwIiBpZD0icGF0aDExMTIxIi8+JiN4YTs8L3N2Zz4=;" parent="BIbaWBOUddNFx-qwVSOw-2403" vertex="1">
          <mxGeometry x="35" y="7" width="90" height="90" as="geometry" />
        </mxCell>
        <mxCell id="BIbaWBOUddNFx-qwVSOw-2307" value="Admin Panel" style="text;html=1;strokeColor=none;fillColor=none;align=center;verticalAlign=middle;whiteSpace=wrap;rounded=0;fontStyle=1;fontSize=20;" parent="BIbaWBOUddNFx-qwVSOw-2403" vertex="1">
          <mxGeometry y="111" width="160" height="72" as="geometry" />
        </mxCell>
        <mxCell id="BIbaWBOUddNFx-qwVSOw-2397" value="" style="group" parent="BIbaWBOUddNFx-qwVSOw-2403" vertex="1" connectable="0">
          <mxGeometry x="250" width="150" height="190" as="geometry" />
        </mxCell>
        <mxCell id="BIbaWBOUddNFx-qwVSOw-2305" value="" style="image;sketch=0;aspect=fixed;html=1;points=[];align=center;fontSize=12;image=img/lib/mscae/Azure_Firewall.svg;" parent="BIbaWBOUddNFx-qwVSOw-2397" vertex="1">
          <mxGeometry x="20" width="110" height="110" as="geometry" />
        </mxCell>
        <mxCell id="BIbaWBOUddNFx-qwVSOw-2306" value="Azure FireWall" style="text;html=1;strokeColor=none;fillColor=none;align=center;verticalAlign=middle;whiteSpace=wrap;rounded=0;fontStyle=1;fontSize=20;" parent="BIbaWBOUddNFx-qwVSOw-2397" vertex="1">
          <mxGeometry y="120" width="150" height="70" as="geometry" />
        </mxCell>
        <mxCell id="BIbaWBOUddNFx-qwVSOw-2416" value="" style="rounded=1;whiteSpace=wrap;html=1;dashed=1;strokeColor=#009900;strokeWidth=2;fillColor=none;fontFamily=Verdana;fontSize=12;fontColor=#00BEF2;dashPattern=12 12;gradientColor=none;glass=1;" parent="1" vertex="1">
          <mxGeometry x="1538" y="1165" width="532" height="245" as="geometry" />
        </mxCell>
        <mxCell id="BIbaWBOUddNFx-qwVSOw-2411" value="" style="shape=image;verticalLabelPosition=bottom;labelBackgroundColor=#ffffff;verticalAlign=top;aspect=fixed;imageAspect=0;image=data:image/svg+xml,PHN2ZyB4bWxuczpkYz0iaHR0cDovL3B1cmwub3JnL2RjL2VsZW1lbnRzLzEuMS8iIHhtbG5zOmNjPSJodHRwOi8vY3JlYXRpdmVjb21tb25zLm9yZy9ucyMiIHhtbG5zOnJkZj0iaHR0cDovL3d3dy53My5vcmcvMTk5OS8wMi8yMi1yZGYtc3ludGF4LW5zIyIgeG1sbnM6c3ZnPSJodHRwOi8vd3d3LnczLm9yZy8yMDAwL3N2ZyIgeG1sbnM9Imh0dHA6Ly93d3cudzMub3JnLzIwMDAvc3ZnIiB4bWxuczpzb2RpcG9kaT0iaHR0cDovL3NvZGlwb2RpLnNvdXJjZWZvcmdlLm5ldC9EVEQvc29kaXBvZGktMC5kdGQiIHhtbG5zOmlua3NjYXBlPSJodHRwOi8vd3d3Lmlua3NjYXBlLm9yZy9uYW1lc3BhY2VzL2lua3NjYXBlIiB2ZXJzaW9uPSIxLjEiIGlkPSJzdmcxMTEyNyIgaW5rc2NhcGU6dmVyc2lvbj0iMC45Mi4zICgyNDA1NTQ2LCAyMDE4LTAzLTExKSIgc29kaXBvZGk6ZG9jbmFtZT0id2ViX2FwcHMuc3ZnIiB4PSIwcHgiIHk9IjBweCIgdmlld0JveD0iMCAwIDUxLjAyOTMxNiA1MS4wMTk5OTkiIHhtbDpzcGFjZT0icHJlc2VydmUiIHdpZHRoPSI1MS4wMjkzMTYiIGhlaWdodD0iNTEuMDIiPjxtZXRhZGF0YSBpZD0ibWV0YWRhdGExMjM5MiI+PHJkZjpSREY+PGNjOldvcmsgcmRmOmFib3V0PSIiPjxkYzpmb3JtYXQ+aW1hZ2Uvc3ZnK3htbDwvZGM6Zm9ybWF0PjxkYzp0eXBlIHJkZjpyZXNvdXJjZT0iaHR0cDovL3B1cmwub3JnL2RjL2RjbWl0eXBlL1N0aWxsSW1hZ2UiLz48ZGM6dGl0bGUvPjwvY2M6V29yaz48L3JkZjpSREY+PC9tZXRhZGF0YT48ZGVmcyBpZD0iZGVmczEyMzkwIj4mI3hhOwkmI3hhOwkmI3hhOyYjeGE7CQkmI3hhOwkJJiN4YTsJCSYjeGE7CSYjeGE7CQkJJiN4YTsJCQkmI3hhOwkJCSYjeGE7CQkmI3hhOwkJCSYjeGE7CQkJJiN4YTsJCQkmI3hhOwkJJiN4YTsJCQkJJiN4YTsJCQkmI3hhOwkJCQkmI3hhOwkJCSYjeGE7CQkJCQkmI3hhOwkJCQkmI3hhOwkJCQkJJiN4YTsJCQkJPC9kZWZzPiYjeGE7PGZpbHRlciBpZD0iZmlsdGVyXzIiPiYjeGE7CTxmZUdhdXNzaWFuQmx1ciBpZD0iZmVHYXVzc2lhbkJsdXIxMTEwMCIgc3RkRGV2aWF0aW9uPSIyIi8+JiN4YTs8L2ZpbHRlcj4mI3hhOzxzb2RpcG9kaTpuYW1lZHZpZXcgYm9yZGVyY29sb3I9IiM2NjY2NjYiIGJvcmRlcm9wYWNpdHk9IjEiIGZpdC1tYXJnaW4tYm90dG9tPSIwIiBmaXQtbWFyZ2luLWxlZnQ9IjAiIGZpdC1tYXJnaW4tcmlnaHQ9IjAiIGZpdC1tYXJnaW4tdG9wPSIwIiBncmlkdG9sZXJhbmNlPSIxMCIgZ3VpZGV0b2xlcmFuY2U9IjEwIiBpZD0ibmFtZWR2aWV3MTExMjkiIGlua3NjYXBlOmN1cnJlbnQtbGF5ZXI9InN2ZzExMTI3IiBpbmtzY2FwZTpjeD0iMzQuNTc5OTYxIiBpbmtzY2FwZTpjeT0iMzMuNzcwNzQ2IiBpbmtzY2FwZTpwYWdlb3BhY2l0eT0iMCIgaW5rc2NhcGU6cGFnZXNoYWRvdz0iMiIgaW5rc2NhcGU6d2luZG93LWhlaWdodD0iMTAxNyIgaW5rc2NhcGU6d2luZG93LW1heGltaXplZD0iMSIgaW5rc2NhcGU6d2luZG93LXdpZHRoPSIxOTIwIiBpbmtzY2FwZTp3aW5kb3cteD0iLTgiIGlua3NjYXBlOndpbmRvdy15PSItOCIgaW5rc2NhcGU6em9vbT0iOC42MTMxNjY5IiBvYmplY3R0b2xlcmFuY2U9IjEwIiBwYWdlY29sb3I9IiNmZmZmZmYiIHNob3dncmlkPSJmYWxzZSI+JiN4YTsJPC9zb2RpcG9kaTpuYW1lZHZpZXc+JiN4YTs8cGF0aCBkPSJtIDQxLjAxNDUyNiw0NS43NiBjIC00LjYyLDMuNTMgLTEwLjA3LDUuMjYgLTE1LjQ3LDUuMjYgLTcuNjgsMCAtMTUuMjcsLTMuNDUgLTIwLjI3OTk5OTYsLTEwLjAxIEMgLTMuMzA1NDc0LDI5LjgyIC0xLjE5NTQ3NCwxMy44MyAxMC4wMTQ1MjYsNS4yNSBjIDQuNjIsLTMuNTUgMTAuMDgsLTUuMjUgMTUuNDgsLTUuMjUgNy42NywwIDE1LjI2LDMuNDUgMjAuMjgsMTAuMDEgOC41NywxMS4xOCA2LjQzLDI3LjE5IC00Ljc2LDM1Ljc1IHoiIHN0eWxlPSJmaWxsOiM1OWI0ZDkiIGlua3NjYXBlOmNvbm5lY3Rvci1jdXJ2YXR1cmU9IjAiIGlkPSJwYXRoMTExMTMiLz48cGF0aCBkPSJtIDM2LjMzMTI3NiwyOS45ODI5NyBjIDEuODUsMi40MSA1LjI5LDIuODUgNy43LDEuMDIgMC4xMiwtMC4wOSAwLjIyLC0wLjIxIDAuMzMsLTAuMzEgMi40NiwxLjczIDQuMTcsMi44NyA1LjEzLDMuNTMgMC4yOCwtMC43NCAwLjQ4LC0xLjQ1IDAuNjgsLTIuMTkgLTEuMDEsLTAuNzYgLTIuMzksLTEuODEgLTQuMzcsLTMuNDIgMC42NSwtMS43MiAwLjQ0LC0zLjcyIC0wLjc1LC01LjI4IC0xLjcsLTIuMjEgLTQuNzIsLTIuNzcgLTcuMDgsLTEuNDEgLTIuNiwtMi4zMyAtNS40NSwtNSAtOC40NiwtNy45OSA5LjM1LC01LjAzIDE2LC00LjI5IDE2LC00LjI5IC0xLjExLC0xLjQyIC0yLjM2LC0yLjY2IC0zLjY4LC0zLjc4IC0zLjk1LC0wLjYxIC0xMC4wNywtMC41NCAtMTcuMDcsMy4xOSBsIC0wLjAxLC0wLjAxIHYgMCBjIC0yLjMzLC0yLjQ0IC00LjcxLC01LjA2IC03LjEyLC03Ljg3IC0xLjE2LDAuMzcgLTIuMjksMC44MyAtMy4zOCwxLjM4IDEuNzgsMi45MiA0LjE4LDUuODcgNi44OSw4Ljc0IDAsMC4wMSAwLjAxLDAuMDEgMC4wMiwwLjAyIC0yLjI2LDEuNTcgLTQuNzcsMy42OCAtNy4wOSw2LjEzIC0wLjMsMC4zMiAtMC41OCwwLjY0IC0wLjg2LDAuOTUgLTEuMzgsLTAuMjkgLTIuODQsLTAuMiAtNC4xOTk5OTk2LDAuMjkgLTIuMzEsLTQuOTggLTIuMTMsLTguOTkgLTEuNzYsLTExLjA1IC0xLDEuMDUgLTEuOTQsMi4xNSAtMi43NTAwMDA0LDMuMzMgLTAuNiwyLjQ3IC0wLjc3LDYuMDIgMS4wMTAwMDA0LDEwLjMgLTIuMDYwMDAwNCwyLjcgLTIuMTYwMDAwNCw2LjUyIC0wLjAxLDkuMzUgMC4xOCwwLjIzIDAuMzcsMC40NSAwLjU3LDAuNjUgLTAuOTQwMDAwNCwzLjIgLTEuMzYwMDAwNCw2LjI5IC0xLjQ5MDAwMDQsOC45NCAwLjI0LDAuMzMgMC4yNCwwLjYgMC40OCwwLjkyIDEuMjMwMDAwNCwxLjU3IDIuNzYwMDAwNCwyLjg5IDQuMjUwMDAwNCw0LjA5IC0wLjE4LC0yLjgxIDAuMDEsLTYuOTUgMS43NDk5OTk2LC0xMS42MSAxLjIsMC4wOSAyLjQxLC0wLjA5IDMuNTUsLTAuNTcgMC42NiwwLjU3IDEuMzQsMS4xNSAyLjA3LDEuNzQgMi41LDEuOTggNSwzLjUzIDcuNDMsNC43NCAtMC4xMiwxLjI0IDAuMTksMi41MiAwLjk5LDMuNTkgMS43MiwyLjIyIDQuOTEsMi42NCA3LjEzLDAuOTQgMC40NiwtMC4zNiAwLjgzLC0wLjc4IDEuMTMsLTEuMjQgMy45NywwLjg4IDcuNDQsMS4wNCAxMC4wMSwxLjA0IDAuMzksMCAyLjIyLC0yLjQ5IDMuMjYsLTQuMDMgLTEuNTYsMC4zMyAtNi4yLDAuOTcgLTEyLjU1LC0wLjg2IC0wLjE1LC0wLjcxIC0wLjQ0LC0xLjQgLTAuOTEsLTIuMDIgLTEuNjIsLTIuMTEgLTQuNTYsLTIuNTcgLTYuNzYsLTEuMTUgLTIuMiwtMS4yIC00LjUxLC0yLjcgLTYuODksLTQuNTkgLTAuNDgsLTAuMzggLTAuOTUsLTAuNzYgLTEuMzksLTEuMTQgMS40NSwtMi4yOSAxLjYxLC01LjIzIDAuMzIsLTcuNyAwLjMsLTAuMjkgMC41OCwtMC41OSAwLjg5LC0wLjg4IDIuMzYsLTIuMiA0LjU4LC0zLjk2IDYuNjYsLTUuMzggLTAuMDksLTAuMDggLTAuMTYsLTAuMTYgLTAuMjUsLTAuMjQgMC4wOSwwLjA4IDAuMTYsMC4xNiAwLjI1LDAuMjQgdiAwIGMgMy4xOCwyLjk0IDYuNTYsNS43MyA5Ljc2LDguMjMgLTAuODUsMS43OSAtMC43MiwzLjk4IDAuNTcsNS42NiB6IiBzdHlsZT0iZmlsbDojZmZmZmZmIiBpbmtzY2FwZTpjb25uZWN0b3ItY3VydmF0dXJlPSIwIiBpZD0icGF0aDExMTIxIi8+JiN4YTs8L3N2Zz4=;" parent="1" vertex="1">
          <mxGeometry x="1620" y="1197" width="90" height="90" as="geometry" />
        </mxCell>
        <mxCell id="BIbaWBOUddNFx-qwVSOw-2412" value="New Website&lt;br&gt;(Domain N)" style="text;html=1;strokeColor=none;fillColor=none;align=center;verticalAlign=middle;whiteSpace=wrap;rounded=0;fontStyle=1;fontSize=20;" parent="1" vertex="1">
          <mxGeometry x="1585" y="1305" width="160" height="68" as="geometry" />
        </mxCell>
        <mxCell id="BIbaWBOUddNFx-qwVSOw-2414" value="" style="image;sketch=0;aspect=fixed;html=1;points=[];align=center;fontSize=12;image=img/lib/mscae/Azure_Firewall.svg;" parent="1" vertex="1">
          <mxGeometry x="1889" y="1190" width="110" height="110" as="geometry" />
        </mxCell>
        <mxCell id="BIbaWBOUddNFx-qwVSOw-2415" value="Azure FireWall" style="text;html=1;strokeColor=none;fillColor=none;align=center;verticalAlign=middle;whiteSpace=wrap;rounded=0;fontStyle=1;fontSize=20;" parent="1" vertex="1">
          <mxGeometry x="1869" y="1310" width="150" height="70" as="geometry" />
        </mxCell>
        <mxCell id="BIbaWBOUddNFx-qwVSOw-2428" style="edgeStyle=orthogonalEdgeStyle;rounded=0;orthogonalLoop=1;jettySize=auto;html=1;entryX=0.1;entryY=0.377;entryDx=0;entryDy=0;entryPerimeter=0;startArrow=classic;startFill=1;" parent="1" source="BIbaWBOUddNFx-qwVSOw-2416" target="BIbaWBOUddNFx-qwVSOw-2394" edge="1">
          <mxGeometry relative="1" as="geometry">
            <Array as="points">
              <mxPoint x="1804" y="1750" />
            </Array>
          </mxGeometry>
        </mxCell>
        <mxCell id="BIbaWBOUddNFx-qwVSOw-2429" style="edgeStyle=orthogonalEdgeStyle;rounded=0;orthogonalLoop=1;jettySize=auto;html=1;entryX=0.5;entryY=0;entryDx=0;entryDy=0;startArrow=classic;startFill=1;" parent="1" source="BIbaWBOUddNFx-qwVSOw-2133" target="BIbaWBOUddNFx-qwVSOw-2259" edge="1">
          <mxGeometry relative="1" as="geometry">
            <Array as="points">
              <mxPoint x="-129" y="990" />
              <mxPoint x="1174" y="990" />
            </Array>
          </mxGeometry>
        </mxCell>
        <mxCell id="BIbaWBOUddNFx-qwVSOw-2430" style="edgeStyle=orthogonalEdgeStyle;rounded=0;orthogonalLoop=1;jettySize=auto;html=1;startArrow=classic;startFill=1;" parent="1" source="BIbaWBOUddNFx-qwVSOw-2416" edge="1">
          <mxGeometry relative="1" as="geometry">
            <mxPoint x="-170" y="1170" as="targetPoint" />
            <Array as="points">
              <mxPoint x="1650" y="940" />
              <mxPoint x="-170" y="940" />
              <mxPoint x="-170" y="1160" />
            </Array>
          </mxGeometry>
        </mxCell>
        <mxCell id="BIbaWBOUddNFx-qwVSOw-2431" style="edgeStyle=orthogonalEdgeStyle;rounded=0;orthogonalLoop=1;jettySize=auto;html=1;startArrow=classic;startFill=1;" parent="1" source="BIbaWBOUddNFx-qwVSOw-2321" edge="1">
          <mxGeometry relative="1" as="geometry">
            <mxPoint x="-199" y="1160" as="targetPoint" />
            <Array as="points">
              <mxPoint x="2386" y="900" />
              <mxPoint x="-199" y="900" />
            </Array>
          </mxGeometry>
        </mxCell>
        <mxCell id="f0EU0gNQPLPFdARf_Crc-2096" style="edgeStyle=orthogonalEdgeStyle;rounded=0;orthogonalLoop=1;jettySize=auto;html=1;startArrow=classic;startFill=1;" edge="1" parent="1" source="f0EU0gNQPLPFdARf_Crc-2085" target="f0EU0gNQPLPFdARf_Crc-2095">
          <mxGeometry relative="1" as="geometry" />
        </mxCell>
        <mxCell id="f0EU0gNQPLPFdARf_Crc-2085" value="" style="rounded=1;whiteSpace=wrap;html=1;dashed=1;strokeColor=#009900;strokeWidth=2;fillColor=none;fontFamily=Verdana;fontSize=12;fontColor=#00BEF2;dashPattern=12 12;gradientColor=none;glass=1;" vertex="1" parent="1">
          <mxGeometry x="1790" y="2730" width="548" height="230" as="geometry" />
        </mxCell>
        <mxCell id="f0EU0gNQPLPFdARf_Crc-2086" value="" style="group" vertex="1" connectable="0" parent="1">
          <mxGeometry x="1846" y="2755" width="400" height="190" as="geometry" />
        </mxCell>
        <mxCell id="f0EU0gNQPLPFdARf_Crc-2087" value="" style="shape=image;verticalLabelPosition=bottom;labelBackgroundColor=#ffffff;verticalAlign=top;aspect=fixed;imageAspect=0;image=data:image/svg+xml,PHN2ZyB4bWxuczpkYz0iaHR0cDovL3B1cmwub3JnL2RjL2VsZW1lbnRzLzEuMS8iIHhtbG5zOmNjPSJodHRwOi8vY3JlYXRpdmVjb21tb25zLm9yZy9ucyMiIHhtbG5zOnJkZj0iaHR0cDovL3d3dy53My5vcmcvMTk5OS8wMi8yMi1yZGYtc3ludGF4LW5zIyIgeG1sbnM6c3ZnPSJodHRwOi8vd3d3LnczLm9yZy8yMDAwL3N2ZyIgeG1sbnM9Imh0dHA6Ly93d3cudzMub3JnLzIwMDAvc3ZnIiB4bWxuczpzb2RpcG9kaT0iaHR0cDovL3NvZGlwb2RpLnNvdXJjZWZvcmdlLm5ldC9EVEQvc29kaXBvZGktMC5kdGQiIHhtbG5zOmlua3NjYXBlPSJodHRwOi8vd3d3Lmlua3NjYXBlLm9yZy9uYW1lc3BhY2VzL2lua3NjYXBlIiB2ZXJzaW9uPSIxLjEiIGlkPSJzdmcxMTEyNyIgaW5rc2NhcGU6dmVyc2lvbj0iMC45Mi4zICgyNDA1NTQ2LCAyMDE4LTAzLTExKSIgc29kaXBvZGk6ZG9jbmFtZT0id2ViX2FwcHMuc3ZnIiB4PSIwcHgiIHk9IjBweCIgdmlld0JveD0iMCAwIDUxLjAyOTMxNiA1MS4wMTk5OTkiIHhtbDpzcGFjZT0icHJlc2VydmUiIHdpZHRoPSI1MS4wMjkzMTYiIGhlaWdodD0iNTEuMDIiPjxtZXRhZGF0YSBpZD0ibWV0YWRhdGExMjM5MiI+PHJkZjpSREY+PGNjOldvcmsgcmRmOmFib3V0PSIiPjxkYzpmb3JtYXQ+aW1hZ2Uvc3ZnK3htbDwvZGM6Zm9ybWF0PjxkYzp0eXBlIHJkZjpyZXNvdXJjZT0iaHR0cDovL3B1cmwub3JnL2RjL2RjbWl0eXBlL1N0aWxsSW1hZ2UiLz48ZGM6dGl0bGUvPjwvY2M6V29yaz48L3JkZjpSREY+PC9tZXRhZGF0YT48ZGVmcyBpZD0iZGVmczEyMzkwIj4mI3hhOwkmI3hhOwkmI3hhOyYjeGE7CQkmI3hhOwkJJiN4YTsJCSYjeGE7CSYjeGE7CQkJJiN4YTsJCQkmI3hhOwkJCSYjeGE7CQkmI3hhOwkJCSYjeGE7CQkJJiN4YTsJCQkmI3hhOwkJJiN4YTsJCQkJJiN4YTsJCQkmI3hhOwkJCQkmI3hhOwkJCSYjeGE7CQkJCQkmI3hhOwkJCQkmI3hhOwkJCQkJJiN4YTsJCQkJPC9kZWZzPiYjeGE7PGZpbHRlciBpZD0iZmlsdGVyXzIiPiYjeGE7CTxmZUdhdXNzaWFuQmx1ciBpZD0iZmVHYXVzc2lhbkJsdXIxMTEwMCIgc3RkRGV2aWF0aW9uPSIyIi8+JiN4YTs8L2ZpbHRlcj4mI3hhOzxzb2RpcG9kaTpuYW1lZHZpZXcgYm9yZGVyY29sb3I9IiM2NjY2NjYiIGJvcmRlcm9wYWNpdHk9IjEiIGZpdC1tYXJnaW4tYm90dG9tPSIwIiBmaXQtbWFyZ2luLWxlZnQ9IjAiIGZpdC1tYXJnaW4tcmlnaHQ9IjAiIGZpdC1tYXJnaW4tdG9wPSIwIiBncmlkdG9sZXJhbmNlPSIxMCIgZ3VpZGV0b2xlcmFuY2U9IjEwIiBpZD0ibmFtZWR2aWV3MTExMjkiIGlua3NjYXBlOmN1cnJlbnQtbGF5ZXI9InN2ZzExMTI3IiBpbmtzY2FwZTpjeD0iMzQuNTc5OTYxIiBpbmtzY2FwZTpjeT0iMzMuNzcwNzQ2IiBpbmtzY2FwZTpwYWdlb3BhY2l0eT0iMCIgaW5rc2NhcGU6cGFnZXNoYWRvdz0iMiIgaW5rc2NhcGU6d2luZG93LWhlaWdodD0iMTAxNyIgaW5rc2NhcGU6d2luZG93LW1heGltaXplZD0iMSIgaW5rc2NhcGU6d2luZG93LXdpZHRoPSIxOTIwIiBpbmtzY2FwZTp3aW5kb3cteD0iLTgiIGlua3NjYXBlOndpbmRvdy15PSItOCIgaW5rc2NhcGU6em9vbT0iOC42MTMxNjY5IiBvYmplY3R0b2xlcmFuY2U9IjEwIiBwYWdlY29sb3I9IiNmZmZmZmYiIHNob3dncmlkPSJmYWxzZSI+JiN4YTsJPC9zb2RpcG9kaTpuYW1lZHZpZXc+JiN4YTs8cGF0aCBkPSJtIDQxLjAxNDUyNiw0NS43NiBjIC00LjYyLDMuNTMgLTEwLjA3LDUuMjYgLTE1LjQ3LDUuMjYgLTcuNjgsMCAtMTUuMjcsLTMuNDUgLTIwLjI3OTk5OTYsLTEwLjAxIEMgLTMuMzA1NDc0LDI5LjgyIC0xLjE5NTQ3NCwxMy44MyAxMC4wMTQ1MjYsNS4yNSBjIDQuNjIsLTMuNTUgMTAuMDgsLTUuMjUgMTUuNDgsLTUuMjUgNy42NywwIDE1LjI2LDMuNDUgMjAuMjgsMTAuMDEgOC41NywxMS4xOCA2LjQzLDI3LjE5IC00Ljc2LDM1Ljc1IHoiIHN0eWxlPSJmaWxsOiM1OWI0ZDkiIGlua3NjYXBlOmNvbm5lY3Rvci1jdXJ2YXR1cmU9IjAiIGlkPSJwYXRoMTExMTMiLz48cGF0aCBkPSJtIDM2LjMzMTI3NiwyOS45ODI5NyBjIDEuODUsMi40MSA1LjI5LDIuODUgNy43LDEuMDIgMC4xMiwtMC4wOSAwLjIyLC0wLjIxIDAuMzMsLTAuMzEgMi40NiwxLjczIDQuMTcsMi44NyA1LjEzLDMuNTMgMC4yOCwtMC43NCAwLjQ4LC0xLjQ1IDAuNjgsLTIuMTkgLTEuMDEsLTAuNzYgLTIuMzksLTEuODEgLTQuMzcsLTMuNDIgMC42NSwtMS43MiAwLjQ0LC0zLjcyIC0wLjc1LC01LjI4IC0xLjcsLTIuMjEgLTQuNzIsLTIuNzcgLTcuMDgsLTEuNDEgLTIuNiwtMi4zMyAtNS40NSwtNSAtOC40NiwtNy45OSA5LjM1LC01LjAzIDE2LC00LjI5IDE2LC00LjI5IC0xLjExLC0xLjQyIC0yLjM2LC0yLjY2IC0zLjY4LC0zLjc4IC0zLjk1LC0wLjYxIC0xMC4wNywtMC41NCAtMTcuMDcsMy4xOSBsIC0wLjAxLC0wLjAxIHYgMCBjIC0yLjMzLC0yLjQ0IC00LjcxLC01LjA2IC03LjEyLC03Ljg3IC0xLjE2LDAuMzcgLTIuMjksMC44MyAtMy4zOCwxLjM4IDEuNzgsMi45MiA0LjE4LDUuODcgNi44OSw4Ljc0IDAsMC4wMSAwLjAxLDAuMDEgMC4wMiwwLjAyIC0yLjI2LDEuNTcgLTQuNzcsMy42OCAtNy4wOSw2LjEzIC0wLjMsMC4zMiAtMC41OCwwLjY0IC0wLjg2LDAuOTUgLTEuMzgsLTAuMjkgLTIuODQsLTAuMiAtNC4xOTk5OTk2LDAuMjkgLTIuMzEsLTQuOTggLTIuMTMsLTguOTkgLTEuNzYsLTExLjA1IC0xLDEuMDUgLTEuOTQsMi4xNSAtMi43NTAwMDA0LDMuMzMgLTAuNiwyLjQ3IC0wLjc3LDYuMDIgMS4wMTAwMDA0LDEwLjMgLTIuMDYwMDAwNCwyLjcgLTIuMTYwMDAwNCw2LjUyIC0wLjAxLDkuMzUgMC4xOCwwLjIzIDAuMzcsMC40NSAwLjU3LDAuNjUgLTAuOTQwMDAwNCwzLjIgLTEuMzYwMDAwNCw2LjI5IC0xLjQ5MDAwMDQsOC45NCAwLjI0LDAuMzMgMC4yNCwwLjYgMC40OCwwLjkyIDEuMjMwMDAwNCwxLjU3IDIuNzYwMDAwNCwyLjg5IDQuMjUwMDAwNCw0LjA5IC0wLjE4LC0yLjgxIDAuMDEsLTYuOTUgMS43NDk5OTk2LC0xMS42MSAxLjIsMC4wOSAyLjQxLC0wLjA5IDMuNTUsLTAuNTcgMC42NiwwLjU3IDEuMzQsMS4xNSAyLjA3LDEuNzQgMi41LDEuOTggNSwzLjUzIDcuNDMsNC43NCAtMC4xMiwxLjI0IDAuMTksMi41MiAwLjk5LDMuNTkgMS43MiwyLjIyIDQuOTEsMi42NCA3LjEzLDAuOTQgMC40NiwtMC4zNiAwLjgzLC0wLjc4IDEuMTMsLTEuMjQgMy45NywwLjg4IDcuNDQsMS4wNCAxMC4wMSwxLjA0IDAuMzksMCAyLjIyLC0yLjQ5IDMuMjYsLTQuMDMgLTEuNTYsMC4zMyAtNi4yLDAuOTcgLTEyLjU1LC0wLjg2IC0wLjE1LC0wLjcxIC0wLjQ0LC0xLjQgLTAuOTEsLTIuMDIgLTEuNjIsLTIuMTEgLTQuNTYsLTIuNTcgLTYuNzYsLTEuMTUgLTIuMiwtMS4yIC00LjUxLC0yLjcgLTYuODksLTQuNTkgLTAuNDgsLTAuMzggLTAuOTUsLTAuNzYgLTEuMzksLTEuMTQgMS40NSwtMi4yOSAxLjYxLC01LjIzIDAuMzIsLTcuNyAwLjMsLTAuMjkgMC41OCwtMC41OSAwLjg5LC0wLjg4IDIuMzYsLTIuMiA0LjU4LC0zLjk2IDYuNjYsLTUuMzggLTAuMDksLTAuMDggLTAuMTYsLTAuMTYgLTAuMjUsLTAuMjQgMC4wOSwwLjA4IDAuMTYsMC4xNiAwLjI1LDAuMjQgdiAwIGMgMy4xOCwyLjk0IDYuNTYsNS43MyA5Ljc2LDguMjMgLTAuODUsMS43OSAtMC43MiwzLjk4IDAuNTcsNS42NiB6IiBzdHlsZT0iZmlsbDojZmZmZmZmIiBpbmtzY2FwZTpjb25uZWN0b3ItY3VydmF0dXJlPSIwIiBpZD0icGF0aDExMTIxIi8+JiN4YTs8L3N2Zz4=;" vertex="1" parent="f0EU0gNQPLPFdARf_Crc-2086">
          <mxGeometry x="35" y="7" width="90" height="90" as="geometry" />
        </mxCell>
        <mxCell id="f0EU0gNQPLPFdARf_Crc-2088" value="Notifier Service&lt;br&gt;(Mail , WebSocket &amp;amp; Firebase)&amp;nbsp;" style="text;html=1;strokeColor=none;fillColor=none;align=center;verticalAlign=middle;whiteSpace=wrap;rounded=0;fontStyle=1;fontSize=20;" vertex="1" parent="f0EU0gNQPLPFdARf_Crc-2086">
          <mxGeometry y="111" width="160" height="72" as="geometry" />
        </mxCell>
        <mxCell id="f0EU0gNQPLPFdARf_Crc-2089" value="" style="group" vertex="1" connectable="0" parent="f0EU0gNQPLPFdARf_Crc-2086">
          <mxGeometry x="250" width="150" height="190" as="geometry" />
        </mxCell>
        <mxCell id="f0EU0gNQPLPFdARf_Crc-2090" value="" style="image;sketch=0;aspect=fixed;html=1;points=[];align=center;fontSize=12;image=img/lib/mscae/Azure_Firewall.svg;" vertex="1" parent="f0EU0gNQPLPFdARf_Crc-2089">
          <mxGeometry x="20" width="110" height="110" as="geometry" />
        </mxCell>
        <mxCell id="f0EU0gNQPLPFdARf_Crc-2091" value="Azure FireWall" style="text;html=1;strokeColor=none;fillColor=none;align=center;verticalAlign=middle;whiteSpace=wrap;rounded=0;fontStyle=1;fontSize=20;" vertex="1" parent="f0EU0gNQPLPFdARf_Crc-2089">
          <mxGeometry y="120" width="150" height="70" as="geometry" />
        </mxCell>
        <mxCell id="f0EU0gNQPLPFdARf_Crc-2092" style="edgeStyle=orthogonalEdgeStyle;rounded=0;orthogonalLoop=1;jettySize=auto;html=1;entryX=1.076;entryY=0.936;entryDx=0;entryDy=0;entryPerimeter=0;startArrow=classic;startFill=1;" edge="1" parent="1" source="f0EU0gNQPLPFdARf_Crc-2085" target="BIbaWBOUddNFx-qwVSOw-2394">
          <mxGeometry relative="1" as="geometry">
            <Array as="points">
              <mxPoint x="2230" y="1823" />
            </Array>
          </mxGeometry>
        </mxCell>
        <mxCell id="f0EU0gNQPLPFdARf_Crc-2093" style="edgeStyle=orthogonalEdgeStyle;rounded=0;orthogonalLoop=1;jettySize=auto;html=1;entryX=1;entryY=0.633;entryDx=0;entryDy=0;entryPerimeter=0;startArrow=classic;startFill=1;" edge="1" parent="1" source="f0EU0gNQPLPFdARf_Crc-2085" target="BIbaWBOUddNFx-qwVSOw-2277">
          <mxGeometry relative="1" as="geometry" />
        </mxCell>
        <mxCell id="f0EU0gNQPLPFdARf_Crc-2094" style="edgeStyle=orthogonalEdgeStyle;rounded=0;orthogonalLoop=1;jettySize=auto;html=1;entryX=0.948;entryY=0.989;entryDx=0;entryDy=0;entryPerimeter=0;startArrow=classic;startFill=1;" edge="1" parent="1" source="f0EU0gNQPLPFdARf_Crc-2085" target="BIbaWBOUddNFx-qwVSOw-2169">
          <mxGeometry relative="1" as="geometry">
            <Array as="points">
              <mxPoint x="2064" y="3030" />
              <mxPoint x="-400" y="3030" />
            </Array>
          </mxGeometry>
        </mxCell>
        <mxCell id="f0EU0gNQPLPFdARf_Crc-2095" value="" style="rounded=1;whiteSpace=wrap;html=1;dashed=1;strokeColor=#009900;strokeWidth=2;fillColor=none;fontFamily=Verdana;fontSize=12;fontColor=#00BEF2;dashPattern=12 12;gradientColor=none;glass=1;" vertex="1" parent="1">
          <mxGeometry x="2800" y="1241" width="820" height="1639" as="geometry" />
        </mxCell>
        <mxCell id="f0EU0gNQPLPFdARf_Crc-2097" value="Employee" style="whiteSpace=wrap;html=1;dashed=1;strokeWidth=2;fontFamily=Helvetica;fontSize=29;fontStyle=1;rounded=1;glass=1;shadow=1;strokeColor=none;fillColor=none;" vertex="1" parent="1">
          <mxGeometry x="3000" y="1251" width="440" height="60" as="geometry" />
        </mxCell>
      </root>
    </mxGraphModel>
  </diagram>
</mxfile>
